<svg width="200" height="200" viewBox="0 0 200 200" fill="none" xmlns="http://www.w3.org/2000/svg">
<path fill-rule="evenodd" clip-rule="evenodd" d="M40.0205 97.2099C40.0205 97.2099 34.0927 92.1461 42.409 74.6622C50.7253 57.1783 67.5673 61.0104 78.3327 54.1334C94.239 43.9722 87.7194 36.0203 107.553 34.7386C132.526 33.1247 133.94 59.2045 146.434 59.2045C147.256 59.2045 166.711 51.387 169.559 72.7878C170.993 83.5654 146.434 100.001 146.434 100.001C146.434 100.001 136.213 109.265 135.651 113.84C133.297 133.027 138.206 155.003 83.1923 165.119C76.0773 166.428 64.263 161.695 57.7451 152.952C52.6388 146.103 32.1552 150.963 30.2431 128.445C29.2794 117.096 40.0205 97.2099 40.0205 97.2099Z" fill="#FFA600"/>
<path d="M76.7162 81.9975C76.9017 81.8881 77.1409 81.9497 77.2503 82.1353L77.6919 82.8802C79.4453 85.8219 80.1466 86.7772 80.892 87.209C81.5046 87.564 82.138 87.4538 83.2975 86.7738L83.4525 86.6808C84.1817 86.2263 87.5187 83.934 88.8089 83.1109C88.9906 82.995 89.2317 83.0483 89.3476 83.23C89.4634 83.4116 89.4101 83.6527 89.2285 83.7686L89.0299 83.8964C87.5922 84.8284 84.3623 87.0466 83.7905 87.3885C82.3867 88.2279 81.4765 88.4165 80.5645 87.9198L80.5009 87.884C79.521 87.3163 78.7589 86.2272 76.5785 82.5317C76.469 82.3461 76.5307 82.107 76.7162 81.9975Z" fill="white"/>
<path d="M83.033 86.5061C83.2465 86.4775 83.4428 86.6275 83.4713 86.841C83.6042 87.8332 83.9224 88.8281 84.4275 89.8268C84.5248 90.0191 84.4478 90.2537 84.2555 90.351C84.0633 90.4482 83.8286 90.3712 83.7314 90.1789C83.1878 89.1042 82.8429 88.0257 82.6981 86.9445C82.6696 86.731 82.8195 86.5347 83.033 86.5061Z" fill="white"/>
<path fill-rule="evenodd" clip-rule="evenodd" d="M128.474 110.33C128.411 110.489 128.273 110.71 128.113 110.918L128.251 111.061L128.411 111.232L128.447 111.266C128.462 111.28 128.474 111.288 128.483 111.29C128.535 111.298 128.571 111.345 128.564 111.398C128.557 111.449 128.509 111.485 128.457 111.478C128.411 111.477 128.24 111.41 128.037 111.246C128.001 111.216 127.964 111.181 127.927 111.144C127.81 111.274 127.692 111.386 127.59 111.456C127.439 111.56 127.309 111.568 127.247 111.526C127.186 111.485 127.127 111.348 127.227 111.07C127.242 111.02 127.296 110.993 127.345 111.009C127.395 111.025 127.422 111.078 127.407 111.128C127.392 111.179 127.39 111.226 127.389 111.264L127.447 111.225C127.467 111.21 127.488 111.194 127.507 111.174C127.577 111.106 127.655 111.022 127.733 110.932C127.609 110.788 127.483 110.619 127.381 110.424C127.331 110.329 127.292 110.228 127.254 110.122C127.228 110.063 127.255 109.993 127.314 109.967C127.374 109.941 127.443 109.968 127.469 110.027C127.583 110.265 127.728 110.471 127.871 110.646L127.919 110.704C128.05 110.533 128.162 110.36 128.213 110.228C128.241 110.157 128.322 110.121 128.394 110.148C128.467 110.177 128.502 110.258 128.474 110.33Z" fill="white"/>
<path fill-rule="evenodd" clip-rule="evenodd" d="M70.4364 61.1227L70.1987 61.0797C68.8711 60.8328 67.8531 60.5298 65.9516 59.8705C65.7335 59.7949 65.618 59.5569 65.6936 59.3388C65.7692 59.1207 66.0073 59.0052 66.2254 59.0808L66.6992 59.2439C68.3673 59.8132 69.3033 60.0742 70.5816 60.2996C74.8827 61.058 78.1032 58.8497 78.3667 54.6383C78.3811 54.4079 78.5795 54.2329 78.8099 54.2473C79.0402 54.2617 79.2153 54.4601 79.2008 54.6905C78.9045 59.4269 75.2051 61.9635 70.4364 61.1227Z" fill="#00160A"/>
<path fill-rule="evenodd" clip-rule="evenodd" d="M81.1837 65.6328L81.4237 66.1661L81.9708 66.3232C82.0003 66.3316 82.0174 66.3625 82.009 66.3921C82.0063 66.4012 82.0014 66.4095 81.9947 66.4162L81.5791 66.83L81.6023 67.4255C81.6036 67.4562 81.5796 67.4821 81.5488 67.4833C81.5384 67.4837 81.5281 67.4812 81.5191 67.4761L81.0485 67.2081C81.0338 67.1997 81.0161 67.1985 81.0004 67.2047L80.4971 67.4046C80.4685 67.416 80.4361 67.402 80.4248 67.3734C80.4209 67.3637 80.4199 67.3531 80.4217 67.3429L80.5277 66.7565L80.1737 66.2889C80.1551 66.2643 80.1599 66.2294 80.1844 66.2108C80.192 66.2051 80.2009 66.2014 80.2103 66.2001L80.7739 66.1207L81.0858 65.626C81.1022 65.6 81.1366 65.5922 81.1626 65.6086C81.1719 65.6144 81.1792 65.6229 81.1837 65.6328Z" fill="#00160A"/>
<path d="M136.157 52.2288C136.372 52.2135 136.559 52.3752 136.574 52.5901C136.589 52.805 136.427 52.9916 136.213 53.0069C134.673 53.1167 133.465 53.7132 132.928 55.1886C132.895 55.2774 132.868 55.3631 132.847 55.4446L132.832 55.5006L132.856 55.4515C133.532 54.0709 134.836 53.1116 136.347 52.8682L136.446 52.8533C136.659 52.8235 136.856 52.9724 136.886 53.1857C136.916 53.3991 136.767 53.5962 136.554 53.6259C135.15 53.8219 133.949 54.7549 133.425 56.0932L133.391 56.183C133.142 56.867 132.545 57.195 132.16 56.6096C131.925 56.2526 131.941 55.6185 132.195 54.9218C132.838 53.1546 134.314 52.3603 136.157 52.2288Z" fill="white"/>
<path d="M134.38 49.323C134.595 49.3076 134.782 49.4694 134.797 49.6843C134.813 49.8991 134.651 50.0857 134.436 50.1011C131.988 50.2757 129.841 51.8658 128.986 54.2128C128.733 54.9085 128.686 55.5034 128.777 55.8046L128.788 55.8382L128.805 55.8134C128.849 55.7473 128.898 55.6524 128.946 55.5294L128.966 55.4749C129.869 52.9959 132.056 51.2597 134.622 50.9015C134.836 50.8718 135.033 51.0206 135.062 51.2339C135.092 51.4473 134.943 51.6444 134.73 51.6741C132.485 51.9875 130.567 53.4855 129.74 55.632L129.699 55.7417C129.365 56.6611 128.641 57.0582 128.179 56.3543C127.862 55.8719 127.884 54.9613 128.253 53.946C129.214 51.3072 131.628 49.5193 134.38 49.323Z" fill="white"/>
<path d="M131.986 45.4484C132.201 45.4331 132.388 45.5948 132.403 45.8097C132.418 46.0246 132.257 46.2112 132.042 46.2265C128.55 46.4757 125.487 48.7435 124.269 52.091C123.854 53.2303 123.82 54.1958 124.046 54.5972L124.067 54.6311C124.1 54.6822 124.089 54.6837 124.098 54.6766L124.103 54.6732C124.218 54.6102 124.369 54.3957 124.508 54.0398L124.535 53.9668C125.78 50.5477 128.797 48.1534 132.336 47.6594C132.549 47.6296 132.746 47.7784 132.776 47.9918C132.806 48.2051 132.657 48.4022 132.443 48.432C129.23 48.8806 126.485 51.0316 125.314 54.1115L125.268 54.2336C124.835 55.423 123.967 55.8996 123.415 55.0595C123.003 54.4332 123.033 53.2052 123.536 51.8242C124.861 48.185 128.19 45.7192 131.986 45.4484Z" fill="white"/>
<path d="M127.712 41.8071C127.923 41.7657 128.128 41.9035 128.17 42.1149C128.211 42.3263 128.073 42.5312 127.862 42.5726C124.7 43.1918 122.158 45.6064 121.421 48.8003C121.171 49.8812 121.247 50.7601 121.492 51.0954L121.524 51.1375L121.527 51.1433L121.531 51.1398C121.619 51.0607 121.721 50.8585 121.801 50.5451L121.818 50.4762C122.576 47.1914 125.08 44.6487 128.279 43.7948C128.487 43.7393 128.701 43.8629 128.756 44.0711C128.812 44.2792 128.688 44.493 128.48 44.5485C125.598 45.3178 123.334 47.5868 122.607 50.5271L122.578 50.6517C122.31 51.8102 121.542 52.3633 120.92 51.6299C120.465 51.0935 120.353 49.9554 120.661 48.6248C121.468 45.1284 124.251 42.4848 127.712 41.8071Z" fill="white"/>
<path d="M84.474 89.9128L84.6992 89.8309C86.8273 89.0672 88.6229 88.7302 89.079 89.1943C89.479 89.6013 89.8355 90.3383 90.1734 91.4193C90.2376 91.6249 90.1231 91.8437 89.9175 91.9079C89.7119 91.9722 89.4931 91.8576 89.4288 91.652C89.1366 90.7171 88.8384 90.088 88.5564 89.7769L88.5447 89.7647L88.5347 89.7653C88.4813 89.7544 88.4013 89.7489 88.2993 89.7508C88.0745 89.7552 87.7673 89.7948 87.4003 89.8675C86.6455 90.0171 85.6914 90.2952 84.744 90.6447C83.1598 91.2291 81.8401 91.9157 81.1111 92.5359C80.8434 92.7636 80.3547 92.1293 80.825 91.766C81.6711 91.1122 82.9544 90.4734 84.474 89.9128Z" fill="white"/>
<path d="M83.4029 82.5442C83.4029 83.8452 84.7789 85.2539 85.0716 85.3341C85.2794 85.391 81.6996 87.7234 81.6996 87.7234C80.4062 87.8936 79.6466 86.8003 79.6466 85.1715C79.6466 84.9561 83.4029 82.3288 83.4029 82.5442Z" fill="white"/>
<path fill-rule="evenodd" clip-rule="evenodd" d="M79.1821 83.2279C79.6352 83.1398 79.943 82.7623 79.8696 82.3847C79.7962 82.0071 79.3694 81.7724 78.9162 81.8605C78.4631 81.9486 78.1553 82.3261 78.2287 82.7037C78.3021 83.0813 78.7289 83.316 79.1821 83.2279Z" fill="#FFB61D"/>
<path d="M125.352 39.6442C125.565 39.6072 125.767 39.7493 125.804 39.9615C125.841 40.1737 125.698 40.3757 125.486 40.4127C124.477 40.5885 123.459 41.1994 122.41 42.1712C121.047 43.433 120.147 45.1766 119.651 47.5013C119.251 49.3743 119.62 51.7146 120.665 53.772C121.854 56.1127 123.957 56.6912 126.41 57.1391C128.928 57.599 129.624 57.315 132.003 56.4692L132.222 56.3897C132.547 56.2665 134.067 55.6717 134.433 55.5611C135.202 55.3285 135.726 55.348 136.107 55.7534C136.254 55.9105 136.246 56.1573 136.089 56.3048C135.942 56.443 135.716 56.4447 135.567 56.315L135.538 56.2873C135.426 56.1676 135.194 56.1538 134.727 56.2877L134.658 56.3078C134.307 56.4142 132.658 57.0612 132.445 57.1391C129.875 58.0771 129.003 58.4058 126.27 57.9065C123.561 57.4117 121.263 56.671 119.969 54.1253C118.846 51.9128 118.449 49.3912 118.888 47.3384C119.417 44.8573 120.398 42.9705 121.88 41.5988C123.039 40.5251 124.194 39.8458 125.352 39.6442Z" fill="white"/>
<path d="M143.702 70.6805C141.478 70.5668 139.727 72.2842 139.709 74.5895C139.693 76.5318 140.787 78.1313 142.29 78.4411C142.898 78.5664 144.065 78.4157 144.93 77.9303C146.245 77.2255 147.249 75.7766 147.376 74.542C147.582 72.5307 145.954 70.7957 143.702 70.6805Z" fill="white"/>
<path d="M103.409 70.2744C104.119 71.7089 105.222 75.0223 104.745 75.0063C103.42 74.962 101.647 72.9256 100.407 70.1721L100.309 69.9506C99.2265 67.4507 98.5781 65.8801 99.331 65.5792C100.11 65.268 101.943 67.3137 103.409 70.2744Z" fill="white"/>
<path fill-rule="evenodd" clip-rule="evenodd" d="M99.331 65.548C100.11 65.2368 101.97 67.189 103.436 70.1497C104.146 71.5842 104.628 72.9603 104.754 73.9472C104.754 73.9472 102.355 68.893 100.892 67.0418C100.33 66.3307 99.331 65.548 99.331 65.548Z" fill="#E7EAEE"/>
<path d="M98.9225 78.2765C98.9796 78.0688 99.1943 77.9467 99.402 78.0038C99.6097 78.0609 99.7318 78.2756 99.6746 78.4833C99.6012 78.7505 98.568 79.4513 96.3137 80.841L94.8908 81.7118C92.0817 83.4218 90.2073 84.5161 89.9729 84.5161C88.422 84.5161 87.0244 83.0529 86.0041 80.7443C85.1132 78.7286 84.6506 76.3292 84.8595 74.7568C84.9247 74.266 86.5598 72.9956 89.0844 71.2936L89.446 71.0512C91.6795 69.5633 93.5886 68.4598 94.2793 68.3204C94.4905 68.2778 94.6962 68.4144 94.7388 68.6256C94.7655 68.7577 88.609 73.9471 88.0076 77.3914C87.6004 79.7235 89.1398 83.6984 89.9039 83.7343L89.9729 83.736C89.9109 83.736 89.9308 83.7215 89.9381 83.7174L90.0084 83.6811C90.0602 83.6539 90.1217 83.6208 90.1925 83.5819L90.5171 83.4003C90.6412 83.33 90.7796 83.2507 90.9309 83.1633L91.3181 82.9385C92.0572 82.507 92.9793 81.9576 93.9199 81.3885L94.8145 80.8446C95.9023 80.1799 96.8852 79.5671 97.6238 79.0912L98.0044 78.844C98.24 78.6894 98.4392 78.5556 98.5983 78.4447L98.6562 78.4042C98.744 78.3423 98.8169 78.2891 98.8739 78.2454C98.8739 78.2454 98.938 78.2199 98.9225 78.2765Z" fill="white"/>
<path fill-rule="evenodd" clip-rule="evenodd" d="M99.6957 70.4925C98.7532 68.3997 98.3368 66.4819 98.6524 65.3206C98.0821 65.5019 97.3691 65.8276 96.6614 66.2336C95.7207 66.7733 94.9741 67.3765 94.9567 67.5075C94.7749 68.8763 95.4728 71.5394 96.6325 73.9136C97.8731 76.4532 99.349 78.0844 100.491 78.0844C100.601 78.0844 100.914 78.0198 101.228 77.9102C101.674 77.7543 102.092 77.5271 102.435 77.2296C102.605 77.0816 102.781 76.9144 102.965 76.7277L103.187 76.4984C103.318 76.3601 103.453 76.211 103.664 75.975L103.957 75.6472L103.97 75.6333C102.5 75.0963 100.963 73.2032 99.8132 70.7483L99.6957 70.4925ZM94.1834 67.4047C94.3048 66.4916 97.7235 64.5177 99.2838 64.3901C99.3491 64.3492 99.4189 64.3137 99.4934 64.2839C100.845 63.744 102.903 66.0568 104.555 69.311L104.668 69.5369C105.414 71.0425 105.922 72.4952 106.061 73.5818C106.226 74.8803 105.85 75.7412 104.865 75.7853C104.838 75.8877 104.771 75.9732 104.683 76.0248L104.668 76.0325L104.629 76.071C104.591 76.1107 104.545 76.16 104.475 76.2381L103.99 76.7791C103.814 76.9729 103.69 77.1044 103.521 77.2756C103.323 77.4756 103.133 77.6564 102.946 77.8185C102.191 78.4744 101.075 78.8645 100.491 78.8645C100.182 78.8645 99.8693 78.7925 99.5559 78.6552C99.2212 79.0045 98.1907 79.684 96.3137 80.8411L94.8908 81.7119C92.0817 83.4219 90.2073 84.5161 89.9729 84.5161C89.4418 84.5161 88.9286 84.3445 88.4424 84.0261C88.4379 84.0293 88.4334 84.0323 88.4287 84.0353L88.2301 84.1631C87.5391 84.6111 86.434 85.3562 85.4091 86.0472L85.409 86.0473L85.4087 86.0475L85.4086 86.0476L85.345 86.0905C85.4776 87.0377 85.7793 87.9874 86.2512 88.9406C87.9264 88.4225 89.2534 88.2475 89.6364 88.6371C90.0363 89.0441 90.3928 89.7811 90.7308 90.8621C90.795 91.0678 90.6804 91.2865 90.4748 91.3508C90.2692 91.4151 90.0504 91.3005 89.9862 91.0949C89.6939 90.16 89.3958 89.5308 89.1137 89.2197L89.1021 89.2076L89.0921 89.2081C89.0387 89.1972 88.9586 89.1917 88.8566 89.1937C88.6319 89.198 88.3246 89.2376 87.9577 89.3104C87.2029 89.4599 86.2488 89.7381 85.3013 90.0876C83.1355 90.8865 81.464 91.8765 81.1205 92.6267C81.0199 92.8463 81.0328 93.1676 81.153 93.6597L81.1753 93.7483C81.1934 93.818 81.2122 93.8871 81.2368 93.9746L81.3778 94.473L81.3967 94.5452C81.4508 94.7537 81.3256 94.9667 81.1171 95.0208C80.9086 95.0749 80.6957 94.9498 80.6416 94.7412L80.5723 94.489L80.457 94.0818C80.4438 94.0337 80.4319 93.9892 80.4202 93.9441C80.2375 93.2394 80.2081 92.7455 80.4112 92.3019C80.7556 91.5499 81.8329 90.7708 83.333 90.0624L83.0067 89.2195L82.9261 89.0064C82.8025 88.674 82.6587 88.2235 82.5706 87.8947C81.3987 88.5263 80.5824 88.6319 79.7647 88.1865L79.7011 88.1508C79.5393 88.057 79.3835 87.9491 79.2263 87.8176L74.6548 90.5942C74.6973 90.6858 74.7402 90.7782 74.7836 90.8712C74.9887 91.3111 74.6269 91.6226 74.0721 91.8649L74.0122 91.8904C73.5353 92.088 73.1049 92.1332 72.8487 91.852C71.7856 90.6852 70.6603 87.8941 71.2657 87.2558C71.3819 87.1332 71.6888 86.9507 72.2692 86.6463L72.3157 86.6221C72.3275 86.6139 72.3398 86.6063 72.3527 86.5993L76.626 84.2841C76.6358 84.2788 76.6457 84.274 76.6558 84.2696C76.3919 83.8334 76.1028 83.3477 75.7831 82.806C75.7375 82.7326 75.7186 82.6476 75.7261 82.5647C75.7321 82.499 75.7547 82.4346 75.7937 82.3783C75.8102 82.3544 75.8295 82.3322 75.8515 82.3121C76.73 81.4788 77.9273 80.61 79.4291 79.6745L79.6111 79.5617C80.2611 79.1609 81.5793 78.4091 82.6992 77.7704L82.6992 77.7704C83.5678 77.275 84.3171 76.8476 84.5427 76.7049L84.5973 76.6686C84.679 76.6089 84.7761 76.5856 84.8693 76.5956C84.7951 75.919 84.7886 75.2903 84.8595 74.7569C84.9247 74.2661 86.5598 72.9957 89.0844 71.2936L89.446 71.0513C91.5621 69.6416 93.387 68.5769 94.1604 68.3504C94.1397 68.0011 94.1465 67.6829 94.1834 67.4047ZM94.2459 69.1413C93.4882 69.4183 91.5908 70.5447 89.5205 71.9405L89.1889 72.1653C88.2572 72.8011 87.3965 73.4209 86.7464 73.9261L86.5657 74.0678C86.2756 74.2977 86.0408 74.4958 85.8706 74.6546C85.7853 74.7343 85.7179 74.8025 85.6704 74.8568L85.6372 74.8959C85.63 74.9034 85.6281 74.9006 85.6308 74.876L85.6328 74.8596C85.632 74.8659 85.6313 74.8713 85.6308 74.876L85.6205 74.9597C85.2454 78.2514 87.6256 83.6272 89.9039 83.7344L89.9575 83.7357C89.962 83.7359 89.9671 83.736 89.9729 83.736L89.9575 83.7357C89.9145 83.7334 89.9315 83.7212 89.9381 83.7174L90.0084 83.6812C90.0602 83.654 90.1217 83.6208 90.1925 83.5819L90.5171 83.4004C90.6412 83.3301 90.7796 83.2508 90.9309 83.1634L91.3181 82.9385C92.0572 82.5071 92.9793 81.9577 93.9199 81.3886L94.8145 80.8447C95.9023 80.18 96.8852 79.5672 97.6238 79.0913L98.0044 78.8441C98.24 78.6895 98.4392 78.5557 98.5983 78.4448L98.6562 78.4043C98.7405 78.3448 98.8111 78.2934 98.867 78.2507C97.8623 77.5134 96.873 76.1517 95.9948 74.3843L95.9316 74.256C95.0852 72.5233 94.4731 70.6469 94.2459 69.1413ZM84.9769 77.3518C84.6955 77.5289 83.8657 78.0027 82.9422 78.5301L82.942 78.5302L82.9417 78.5304L82.9414 78.5305L82.9414 78.5305L82.9413 78.5306L82.9412 78.5306L82.9412 78.5307C81.8466 79.1557 80.6207 79.8557 80.0205 80.2257C78.6029 81.0997 77.4597 81.9098 76.611 82.6727L76.8921 83.1469C78.1222 85.2107 78.8345 86.2968 79.4074 86.9104C79.2171 86.4589 79.1185 85.8859 79.1185 85.1673C79.1185 85.1343 79.1226 85.1022 79.1303 85.0715C79.0924 84.9221 79.1457 84.7579 79.2776 84.6611L79.5433 84.4636C79.7026 84.3432 79.9648 84.1428 80.2629 83.915L80.2631 83.9148L80.2636 83.9145C80.9159 83.416 81.7397 82.7865 82.0337 82.5759C82.9587 81.9133 83.6405 81.5415 84.2613 81.4124C84.5578 81.3508 84.7882 81.5262 84.855 81.7979L84.8659 81.8474C84.8814 81.9282 84.8844 82.0077 84.884 82.1814L84.8838 82.2365C84.8805 82.8855 84.9449 83.2601 85.2197 83.6927C85.4079 83.9888 85.6843 84.259 86.0694 84.5009C86.1097 84.5262 86.1438 84.5577 86.1712 84.5934C86.7925 84.1762 87.3744 83.7881 87.8037 83.5098C87.1273 82.8549 86.5178 81.9069 86.0041 80.7444C85.5255 79.6617 85.1706 78.4683 84.9769 77.3518ZM105.287 73.6805C105.161 72.6937 104.679 71.3176 103.969 69.883C102.503 66.9224 100.562 64.6971 99.7828 65.0083C99.0299 65.3092 99.2264 67.4507 100.309 69.9507L100.407 70.1722C101.647 72.9256 103.42 74.9621 104.745 75.0064C105.222 75.0223 105.408 74.6327 105.287 73.6805ZM77.0588 84.9291C77.7354 86.0231 78.2298 86.7458 78.6605 87.2486L74.3267 89.8808C73.8828 88.9076 73.4857 88.0018 73.1004 87.0815L76.9976 84.97C77.0197 84.9581 77.0401 84.9444 77.0588 84.9291ZM85.5031 89.1866C85.0826 88.3169 84.792 87.4447 84.6324 86.5706C84.0723 86.9475 83.585 87.2738 83.2717 87.4774C83.3254 87.7465 83.5248 88.3852 83.6966 88.8393L84.0167 89.6633L84.0472 89.7438C84.3619 89.611 84.6907 89.4814 85.0314 89.3557L85.2566 89.2737C85.3393 89.2441 85.4215 89.215 85.5031 89.1866ZM85.489 85.0524C85.0896 84.7754 84.7832 84.4603 84.5613 84.1111C84.2021 83.5457 84.1078 83.063 84.1037 82.3336L84.1035 82.2683L84.0483 82.289C83.6528 82.4425 83.1809 82.7202 82.5879 83.139L82.4879 83.2101C82.2057 83.4123 81.4025 84.026 80.7545 84.5212L80.7543 84.5213L80.754 84.5216C80.3936 84.797 80.0813 85.0356 79.9333 85.1464L79.8986 85.1721C79.8994 86.4698 80.2233 87.0653 80.8257 87.3541L80.8739 87.3763C81.0175 87.4398 81.1199 87.4718 81.4127 87.5519C81.4185 87.5535 81.4243 87.5553 81.4299 87.5571C81.7338 87.455 82.0819 87.2844 82.4977 87.0405L82.6526 86.9475C82.996 86.7335 83.9177 86.1119 84.9316 85.4282L84.9317 85.4281L84.9318 85.428L85.489 85.0524ZM72.411 87.4546L72.4707 87.5969C72.885 88.5792 73.3155 89.5519 73.8041 90.6128L73.9941 91.0244C73.9318 91.0663 73.8499 91.1107 73.7598 91.15C73.6305 91.2065 73.4992 91.2462 73.4005 91.2594L73.3691 91.2626L73.3216 91.2057C72.9524 90.7511 72.5238 89.9787 72.2141 89.2106C72.0492 88.8016 71.9317 88.4263 71.8788 88.138C71.8572 88.0206 71.8472 87.9219 71.8481 87.847L71.8503 87.7977C71.8511 87.7857 71.8511 87.7795 71.8482 87.7786L71.8598 87.7707C71.9258 87.7252 72.0943 87.6267 72.3445 87.4907L72.411 87.4546ZM77.7915 86.5953C77.6406 86.4415 77.3936 86.4391 77.2399 86.59C76.9694 86.8553 76.5903 87.1024 75.9282 87.47L75.2545 87.8439C75.0765 87.9453 74.9307 88.0327 74.7987 88.1184C74.6884 88.1899 74.5898 88.259 74.5012 88.3274C74.3308 88.4591 74.2994 88.7041 74.4311 88.8746C74.5628 89.045 74.8078 89.0764 74.9782 88.9447C75.0486 88.8903 75.1299 88.8334 75.2232 88.7728C75.3094 88.7169 75.4041 88.659 75.5137 88.5949L75.7285 88.472L76.4129 88.0928C77.0705 87.7237 77.4667 87.4602 77.7861 87.1469C77.9399 86.996 77.9423 86.7491 77.7915 86.5953Z" fill="#00160A"/>
<path d="M69.0667 126.205C71.0172 137.08 78.3278 145.256 87.6565 147.183C89.3689 147.537 92.334 147.584 95.4045 147.186C99.3605 146.674 103.211 145.5 106.597 143.596C115.898 138.597 122.956 128.394 123.871 119.463C124.674 111.618 121.677 104.37 116.252 99.2C116.252 99.2 99.2075 107.571 90.8408 112.33C83.5603 116.47 69.0667 126.205 69.0667 126.205Z" fill="white"/>
<path d="M108.76 93.7754C105.264 92.0505 100.884 90.688 96.5887 90.4684C80.8361 89.663 68.4468 102.247 68.3177 118.479C68.3177 118.479 85.8993 107.28 95.0333 101.877C99.5776 99.1886 108.76 93.7754 108.76 93.7754Z" fill="white"/>
<path fill-rule="evenodd" clip-rule="evenodd" d="M141.161 85.5031C141.108 88.215 138.239 92.7287 133.626 97.8365C130.284 101.537 126.396 105.113 123.135 107.523L122.932 107.672L123.067 108.271C123.86 111.745 124.895 115.523 124.504 119.332C123.555 128.577 116.323 139.008 106.767 144.133C103.281 146.088 99.3195 147.294 95.2555 147.819L94.8681 147.867C91.8379 148.224 88.9382 148.165 87.1662 147.799C80.2881 146.381 74.4649 141.573 70.9443 134.615C70.9324 134.591 70.9232 134.567 70.9164 134.543C70.4529 134.807 69.8293 135.103 69.5446 135.2L68.7643 135.463C60.3556 138.291 52.0195 140.658 48.614 139.181C47.3176 138.619 46.8745 137.537 47.4166 136.085C47.9435 134.673 49.4045 132.854 51.8555 130.59L51.9902 130.466C54.3128 128.337 59.4706 124.447 67.4636 118.795L67.4657 118.691C67.8556 101.944 80.8642 89.1772 97.2157 90.2194C102.217 90.5382 106.2 92.3155 108.189 93.4068L109.064 92.9374C117.27 88.55 123.853 85.4659 128.877 83.62C137.138 80.5843 141.223 82.0036 141.161 85.5031ZM129.146 85.4189C119.908 88.8134 105.31 96.4477 84.9841 108.728L84.3664 109.102C68.5394 118.683 58.0591 125.962 52.5174 131.041L52.2443 131.294L51.9853 131.537C47.8253 135.467 47.0879 137.669 48.9244 138.465C52.0681 139.829 60.5105 137.53 68.7781 134.818L69.5446 134.566C70.2819 134.321 70.7708 134.181 71.0735 134.116C71.0866 134.107 71.1011 134.098 71.1162 134.091C71.2197 134.038 71.3354 134.036 71.4354 134.076C71.457 134.08 71.4711 134.087 71.4785 134.096C71.5459 134.132 71.6032 134.189 71.6404 134.263C75.0581 141.018 80.6898 145.134 87.3237 146.502C89.0457 146.857 91.951 146.909 94.9741 146.535L95.1556 146.512C99.126 145.999 102.993 145.356 106.392 143.449C115.73 138.441 122.806 128.235 123.728 119.252C124.122 115.413 123.619 111.645 122.282 108.137C122.172 108.214 122.062 108.29 121.954 108.364C121.748 108.504 121.825 108.277 122.183 107.684C122.202 107.606 122.245 107.536 122.307 107.483L122.417 107.308C122.456 107.247 122.496 107.184 122.539 107.118L123.001 106.728C127.358 103.042 130.707 99.9044 133.047 97.3137L133.314 97.0164C137.643 92.1717 140.334 87.8924 140.378 85.4887C140.427 82.8519 136.948 82.5516 129.146 85.4189ZM89.9779 134.747C91.0245 137.946 89.4413 140.003 86.6542 140.109C84.0791 140.208 81.7341 138.585 81.8536 136.279C81.9569 134.286 83.3215 132.156 85.0014 131.373C87.0331 130.427 88.94 131.575 89.9779 134.747ZM85.4131 132.257C84.0687 132.883 82.9125 134.688 82.8274 136.329C82.7427 137.964 84.5492 139.214 86.6171 139.135C88.779 139.052 89.8888 137.61 89.0512 135.05C88.1791 132.385 86.853 131.587 85.4131 132.257ZM111.256 128.229C112.592 130.752 112.242 133.231 110.189 134.342L110.131 134.373L110.101 134.402C107.348 137.129 103.908 137.46 101.665 135.483L101.588 135.414C99.0041 133.047 99.6197 128.981 103.731 125.793C106.377 123.741 109.609 125.117 111.256 128.229ZM104.243 126.453C100.511 129.347 99.9861 132.813 102.153 134.798C103.706 136.221 106.002 136.3 108.147 134.919L108.189 134.891L108.173 134.888C108.024 134.848 107.905 134.728 107.871 134.572L107.865 134.533C107.838 134.303 108.001 134.096 108.231 134.068C108.755 134.006 109.21 133.88 109.596 133.699L109.648 133.673L109.712 133.607C109.964 133.342 110.21 133.054 110.448 132.742L110.527 132.637C110.616 132.518 110.757 132.46 110.896 132.471L110.907 132.472L110.912 132.461C111.413 131.472 111.294 130.131 110.561 128.704L110.518 128.62C109.085 125.914 106.409 124.775 104.243 126.453ZM129.099 96.4599C128.885 97.223 128.231 98.2703 127.229 99.5104C125.482 101.672 122.858 104.189 120.564 105.909L121.073 105.35C121.067 105.345 121.063 105.339 121.06 105.332L120.884 105.01C119.736 102.915 118.457 100.848 116.391 99.1631C111.041 101.369 104.907 104.384 99.3185 107.536L97.4867 108.572C83.9973 116.213 76.9002 120.788 69.311 126.412C69.5974 127.702 69.9583 128.961 70.3906 130.18C70.4585 130.372 69.5722 131.088 69.4099 131C67.8959 132.014 65.5252 132.751 64.1754 132.789C62.86 132.826 62.1001 132.294 62.4916 131.232C62.8191 130.344 64.0528 129.077 66.273 127.38L66.5262 127.187L67.0379 126.803C75.3939 120.547 83.6661 115.47 98.9352 106.857L99.5742 106.498C110.047 100.653 122.174 95.3861 127.729 94.9002C128.871 94.8003 129.388 95.4321 129.099 96.4599ZM68.2949 127.168L66.5441 128.49C64.9823 129.674 63.8563 130.55 63.2481 131.112L63.2035 131.153C62.4611 131.849 63.3014 132.033 64.1534 132.009C65.4439 131.973 67.4208 130.994 69.0942 130.103C68.785 129.145 68.5181 128.166 68.2949 127.168ZM95.6799 122.933C95.8887 122.986 96.015 123.199 95.962 123.407C95.909 123.616 95.6967 123.742 95.4879 123.689C94.439 123.423 93.8194 123.525 93.6184 123.808C93.4851 123.995 93.5589 124.315 93.8083 124.519C94.0032 124.678 94.2627 124.754 94.4412 124.715C94.5964 124.682 94.6834 124.562 94.6834 124.262C94.6834 124.047 94.858 123.872 95.0735 123.872C95.2889 123.872 95.4635 124.047 95.4635 124.262C95.4635 124.914 95.1376 125.362 94.6071 125.478C94.1806 125.57 93.6837 125.425 93.3144 125.122C92.7691 124.676 92.591 123.906 92.9828 123.355C93.4124 122.752 94.3537 122.597 95.6799 122.933ZM78.5461 121.501C79.1477 121.682 79.4067 122.143 79.4885 122.836L79.4965 122.912L79.5064 123.026C79.5079 123.045 79.5092 123.064 79.5105 123.085L79.531 123.481L79.5371 123.57C79.5403 123.609 79.5437 123.641 79.5478 123.67L79.5582 123.729L79.5645 123.756L79.5754 123.765C79.6958 123.883 79.7278 124.068 79.6499 124.221L79.63 124.255C79.5132 124.436 79.2718 124.488 79.0908 124.372C78.8417 124.211 78.7851 124.046 78.7549 123.571L78.7301 123.107C78.7272 123.065 78.7242 123.028 78.7201 122.987C78.6758 122.533 78.565 122.321 78.3222 122.249C77.6409 122.044 77.2499 122.253 77.1261 122.708C77.0157 123.114 77.1754 123.541 77.4549 123.659L77.5257 123.685C77.7084 123.763 77.8052 123.969 77.7436 124.162C77.6782 124.368 77.4588 124.481 77.2535 124.415C76.5107 124.179 76.1578 123.296 76.3733 122.504C76.6138 121.619 77.4503 121.173 78.5461 121.501ZM106.687 115.529C107.767 117.047 107.566 118.979 105.833 119.854C105.641 119.951 105.406 119.874 105.309 119.681C105.212 119.489 105.289 119.254 105.482 119.157C106.737 118.524 106.88 117.146 106.051 115.981C105.246 114.849 104.126 114.725 103.356 115.948C102.539 117.244 102.599 118.005 103.186 118.348C103.653 118.62 104.404 118.563 104.611 118.34L104.631 118.316C104.756 118.14 104.999 118.099 105.175 118.224C105.35 118.349 105.391 118.593 105.266 118.768C104.833 119.377 103.595 119.489 102.794 119.022C101.767 118.423 101.669 117.163 102.696 115.532C103.795 113.786 105.589 113.985 106.687 115.529ZM90.5153 113.292C90.718 113.292 90.8847 113.447 90.9036 113.645L90.9053 113.682C90.9053 113.751 90.9692 113.828 91.1981 113.996L91.4146 114.151C91.6508 114.323 91.7646 114.43 91.8722 114.6C92.1181 114.989 92.2575 115.385 92.2575 115.85C92.2575 117.042 90.4667 118.664 88.512 119.385C86.1687 120.25 84.2489 119.609 83.7264 117.204C83.6807 116.994 83.8143 116.786 84.0248 116.74C84.2353 116.695 84.443 116.828 84.4887 117.039C84.8942 118.905 86.294 119.372 88.2419 118.653C89.9239 118.033 91.4774 116.626 91.4774 115.85C91.4774 115.55 91.3861 115.291 91.2129 115.017L91.1894 114.984C91.1496 114.934 91.0876 114.88 90.9758 114.797L90.7185 114.611C90.2909 114.296 90.1253 114.083 90.1253 113.682C90.1253 113.467 90.2999 113.292 90.5153 113.292ZM92.3462 91.6729L92.0998 91.7006C78.7899 93.3013 68.8049 103.947 68.2603 118.233L69.6885 117.228C73.7875 114.35 78.5455 111.064 83.9624 107.368L85.0179 106.73C88.169 104.829 91.1819 103.039 94.0581 101.361C94.0056 101.269 93.9909 101.156 94.0265 101.047C94.2276 100.434 94.4134 100.021 94.7539 99.608C95.8196 98.3151 97.2797 97.6837 98.3142 98.4954C98.416 98.5754 98.4673 98.6958 98.4632 98.816L99.3821 98.2917C102.276 96.6446 105.014 95.1233 107.598 93.7258L106.588 93.4386C105.092 93.0173 103.229 92.5177 101.375 92.133C101.392 93.3673 100.468 94.3529 98.9326 95.0309C97.6277 95.6072 95.9273 95.9173 94.7183 95.8452C92.4564 95.7104 91.1833 93.7265 92.3462 91.6729ZM115.694 108.612C116.649 111.22 115.861 113.591 113.478 113.576C110.082 113.554 106.766 110.589 107.302 107.932C107.541 106.747 108.432 105.699 109.981 105.176C112.455 104.341 114.723 105.957 115.694 108.612ZM110.231 105.915C108.951 106.348 108.252 107.17 108.067 108.087C107.641 110.195 110.528 112.776 113.483 112.796C115.175 112.807 115.757 111.054 114.962 108.88C114.12 106.58 112.237 105.238 110.231 105.915ZM81.5494 96.6814L81.5772 96.7216L81.7649 97.0201C81.8569 97.1717 81.9393 97.3204 82.0177 97.4807C82.8815 99.247 82.8592 101.562 81.3973 104.777C80.735 106.233 79.0478 108.189 77.5744 109.357C75.6931 110.848 74.2885 111.187 72.6119 111.003L72.1144 110.944L72.0537 110.939C72.0205 110.936 71.9992 110.936 71.9759 110.937L71.9417 110.938C71.9158 110.94 71.9068 110.938 71.9053 110.935L71.9052 110.932L71.8927 110.952C71.7796 111.115 71.5598 111.168 71.3834 111.07C71.1951 110.965 71.1274 110.728 71.2321 110.539C71.3723 110.287 71.6066 110.173 71.9048 110.159C71.9838 110.155 72.0673 110.158 72.1668 110.166L72.2831 110.178L72.6049 110.217C74.132 110.402 75.3471 110.127 77.0899 108.746C78.4738 107.649 80.0823 105.783 80.6872 104.454C82.0553 101.446 82.0752 99.374 81.3169 97.8234C81.2664 97.7202 81.2137 97.6221 81.1566 97.5236L81.075 97.3871L80.9114 97.1285C80.797 96.946 80.8521 96.7053 81.0346 96.5909C81.2057 96.4836 81.428 96.5254 81.5494 96.6814ZM127.797 95.6773C125.303 95.8955 121.394 97.1272 116.888 98.9594L117.02 99.0759C118.274 100.201 120.804 102.869 121.596 104.772L122.385 103.898C124.332 101.733 125.744 100.107 126.622 99.0201L126.8 98.7973C127.639 97.7323 128.181 96.8423 128.348 96.2486L128.372 96.1585C128.476 95.7298 128.356 95.6284 127.797 95.6773ZM90.4484 96.9444C91.4191 97.4137 91.8132 98.4586 91.1745 99.4059C91.0541 99.5846 90.8117 99.6317 90.633 99.5113C90.4544 99.3909 90.4072 99.1485 90.5277 98.9699C90.879 98.4488 90.6808 97.9232 90.1088 97.6467C89.5065 97.3555 88.8466 97.523 88.506 98.1587C88.1922 98.7444 88.1706 99.5375 88.4212 100.057C88.6411 100.513 88.9613 100.6 89.4498 100.232C89.6219 100.103 89.8665 100.137 89.996 100.31C90.1256 100.482 90.0911 100.726 89.919 100.856C89.0288 101.526 88.1477 101.285 87.7186 100.396C87.3588 99.6502 87.3876 98.5943 87.8184 97.7903C88.3679 96.7645 89.4883 96.4802 90.4484 96.9444ZM95.3559 100.104C95.174 100.325 95.044 100.558 94.9236 100.856C95.9288 100.273 96.9168 99.702 97.8879 99.1451L97.8597 99.1286L97.8325 99.1091C97.237 98.6418 96.1871 99.0958 95.3559 100.104ZM93.6926 91.5536L93.3515 91.5775L93.3287 91.6064C91.9803 93.3103 92.4996 94.6934 94.341 94.8898C95.6635 95.0309 99.1743 94.0497 99.5861 93.7054C99.9871 93.37 100.494 92.5986 100.573 91.9737C99.3811 91.7497 98.2156 91.585 97.1759 91.5318C96.1135 91.4775 95.0658 91.4788 94.0354 91.5334L93.6926 91.5536Z" fill="#00160A"/>
<path d="M128.909 85.5156C137.17 82.4799 136.981 83.3805 129.178 86.2478C119.941 89.6423 85.0721 110.912 85.0721 110.912C69.2451 120.493 68.0611 119.014 83.4017 109.691L84.3473 109.117C84.5255 109.009 101.991 97.9861 114.471 92.0887C115.876 91.4251 127.968 85.8612 128.909 85.5156Z" fill="white"/>
<path fill-rule="evenodd" clip-rule="evenodd" d="M143.173 70.4027C140.613 70.2718 138.615 72.2611 138.594 74.8638C138.577 77.0444 139.828 78.896 141.621 79.2655C142.093 79.3629 143.455 79.3629 144.636 78.7001L144.734 78.6462C146.224 77.8026 147.237 76.1978 147.373 74.8776C147.613 72.5371 145.733 70.5336 143.173 70.4027ZM139.152 74.8682L139.152 74.8179C139.168 74.8128 139.184 74.8061 139.199 74.7979C141.206 73.7168 142.445 72.8929 142.94 72.298C143.266 71.9052 143.426 71.4622 143.413 70.9808C143.75 71.018 144.071 71.092 144.372 71.1979C144.37 71.2123 144.37 71.2271 144.37 71.2421C144.394 71.9348 144.21 72.4886 143.817 72.9198C143.366 73.4153 142.819 73.8869 142.198 74.3316C141.534 74.807 140.82 75.2268 140.107 75.5862C139.94 75.67 139.782 75.7465 139.633 75.8154L139.418 75.9131C139.387 75.9268 139.358 75.9393 139.332 75.9507L139.268 75.9777C139.189 75.6263 139.148 75.254 139.152 74.8682ZM139.425 76.5163C139.601 77.0056 139.857 77.4392 140.173 77.7924L140.34 77.6966C142.959 76.1803 144.585 74.9891 145.2 74.1488C145.822 73.2992 146.044 72.6469 145.905 72.2033C145.901 72.1928 145.899 72.1823 145.897 72.1718C145.623 71.884 145.296 71.6366 144.929 71.4414C144.913 72.1778 144.68 72.7998 144.229 73.2949C143.75 73.8218 143.174 74.3185 142.522 74.7847C141.833 75.2783 141.095 75.7123 140.358 76.0838C140.142 76.1922 139.94 76.2888 139.754 76.3732L139.536 76.4695L139.425 76.5163ZM141.511 78.6637C141.182 78.5654 140.875 78.4039 140.599 78.1902C143.295 76.6308 144.973 75.402 145.649 74.4781C146.069 73.9048 146.338 73.3894 146.447 72.9293C146.582 73.1826 146.685 73.4527 146.751 73.7349C146.737 73.7636 146.727 73.7952 146.724 73.8289C146.656 74.4802 146.32 75.1267 145.706 75.7706C145.117 76.3885 143.846 77.2801 141.903 78.4328L141.511 78.6637ZM142.453 78.7539C143.051 78.7159 143.782 78.5405 144.373 78.209C145.472 77.6195 146.355 76.5093 146.688 75.4395C146.527 75.6811 146.334 75.9196 146.11 76.1551C145.505 76.7897 144.289 77.6523 142.453 78.7539ZM139.314 74.1013L139.214 74.1552C139.531 72.3141 141.002 70.9929 142.854 70.9547C142.874 71.3164 142.761 71.641 142.511 71.9417C142.107 72.4278 141.035 73.1553 139.314 74.1013Z" fill="#00160A"/>
<path fill-rule="evenodd" clip-rule="evenodd" d="M163.287 65.0639C163.339 65.0699 163.375 65.1169 163.369 65.1685C163.369 65.2445 163.32 65.2856 163.254 65.3124C163.195 65.3361 163.1 65.327 163.045 65.3345C162.442 65.3811 161.967 64.9371 161.759 64.3649C161.558 63.8152 161.612 63.1579 161.976 62.7525C162.017 62.7047 162.09 62.6999 162.138 62.7418C162.186 62.7836 162.457 62.8564 162.415 62.9042C162.115 63.2544 161.912 63.4669 162.195 64.2981C162.478 65.1292 163.248 65.0594 163.287 65.0639Z" fill="#E7EAEE"/>
<path fill-rule="evenodd" clip-rule="evenodd" d="M67.2186 71.0149C67.06 70.9061 66.8432 70.9463 66.7343 71.1049C66.6255 71.2635 66.6658 71.4803 66.8243 71.5891C66.9985 71.7087 67.1525 71.8192 67.2883 71.9218C67.142 72.0382 66.9959 72.1716 66.844 72.3234L66.536 72.6362C66.4006 72.7728 66.4016 72.9933 66.5382 73.1287C66.6748 73.2641 66.8953 73.2631 67.0307 73.1265L67.4002 72.753C67.5506 72.6066 67.6915 72.4841 67.8333 72.3823C68.1482 72.6945 68.244 72.9234 68.2492 73.1509L68.2492 73.2093L68.251 73.2449C68.2688 73.4205 68.4171 73.5576 68.5975 73.5576C68.7898 73.5576 68.9457 73.4016 68.9457 73.2093L68.9457 73.1408C68.9392 72.7861 68.814 72.4486 68.4769 72.063C68.6996 71.9967 68.9504 71.9596 69.2547 71.9437C69.4468 71.9336 69.5944 71.7698 69.5843 71.5777C69.5743 71.3856 69.4105 71.2381 69.2184 71.2481C68.6902 71.2757 68.2797 71.3637 67.914 71.531C67.7613 71.4062 67.5884 71.2752 67.3929 71.1365L67.2186 71.0149Z" fill="#00160A"/>
<path fill-rule="evenodd" clip-rule="evenodd" d="M119.402 147.327L119.643 147.328C120.994 147.34 122.049 147.462 124.036 147.781C124.264 147.818 124.419 148.032 124.382 148.26C124.346 148.488 124.131 148.643 123.903 148.606L123.252 148.504C121.608 148.251 120.66 148.163 119.402 148.163C115.034 148.163 112.246 150.897 112.718 155.09C112.744 155.319 112.579 155.526 112.349 155.552C112.12 155.578 111.913 155.413 111.887 155.183C111.357 150.467 114.56 147.327 119.402 147.327ZM122.784 149.014L122.743 148.978C122.704 148.945 122.644 148.949 122.61 148.989C122.576 149.028 122.581 149.088 122.621 149.122L122.663 149.158C122.702 149.191 122.761 149.187 122.796 149.147C122.829 149.108 122.825 149.048 122.784 149.014ZM115.211 149.888C115.061 149.768 114.842 149.792 114.722 149.942C114.235 150.547 113.881 151.137 113.659 151.713C113.444 152.273 113.371 153.214 113.427 154.559L113.44 154.843C113.45 155.035 113.614 155.183 113.806 155.173C113.998 155.163 114.146 154.999 114.136 154.807C114.062 153.401 114.125 152.443 114.31 151.962C114.503 151.459 114.821 150.93 115.265 150.378C115.385 150.228 115.361 150.009 115.211 149.888ZM119.012 148.736C119.183 148.648 119.393 148.714 119.481 148.885C119.57 149.056 119.503 149.266 119.332 149.354C118.625 149.721 118.085 150.335 117.708 151.211C117.304 152.151 116.973 152.99 116.716 153.727C116.653 153.908 116.454 154.004 116.273 153.941C116.091 153.877 115.995 153.679 116.059 153.497C116.322 152.744 116.658 151.89 117.068 150.936C117.506 149.918 118.155 149.18 119.012 148.736ZM121.037 148.718C120.91 148.573 120.69 148.559 120.545 148.685C119.964 149.195 119.517 149.658 119.205 150.078C118.894 150.495 118.531 151.119 118.11 151.953C118.024 152.125 118.093 152.334 118.264 152.421C118.436 152.508 118.646 152.438 118.732 152.267C119.136 151.465 119.481 150.873 119.763 150.494C120.043 150.118 120.457 149.689 121.004 149.209C121.149 149.082 121.163 148.862 121.037 148.718ZM119.765 152.651C119.62 152.777 119.4 152.763 119.274 152.618C119.147 152.474 119.161 152.253 119.306 152.127C119.853 151.647 120.267 151.218 120.547 150.842C120.829 150.463 121.174 149.871 121.578 149.069C121.665 148.897 121.874 148.828 122.046 148.915C122.218 149.001 122.287 149.211 122.2 149.383C121.779 150.217 121.416 150.841 121.106 151.258C120.793 151.678 120.346 152.141 119.765 152.651ZM117.128 149.02C116.97 148.911 116.753 148.95 116.644 149.109C115.865 150.236 115.368 151.079 115.148 151.651C114.928 152.225 114.775 152.999 114.687 153.978C114.67 154.169 114.811 154.339 115.002 154.356C115.194 154.373 115.363 154.232 115.381 154.041C115.464 153.121 115.604 152.406 115.799 151.901C115.98 151.43 116.401 150.703 117.061 149.733L117.217 149.504C117.326 149.346 117.287 149.129 117.128 149.02Z" fill="#00160A"/>
<path fill-rule="evenodd" clip-rule="evenodd" d="M110.517 146.966L110.757 147.499L111.304 147.656C111.334 147.665 111.351 147.696 111.342 147.725C111.34 147.735 111.335 147.743 111.328 147.75L110.912 148.163L110.936 148.759C110.937 148.79 110.913 148.815 110.882 148.817C110.872 148.817 110.861 148.815 110.852 148.809L110.382 148.541C110.367 148.533 110.349 148.532 110.334 148.538L109.83 148.738C109.802 148.749 109.769 148.735 109.758 148.707C109.754 148.697 109.753 148.686 109.755 148.676L109.861 148.09L109.507 147.622C109.488 147.598 109.493 147.563 109.518 147.544C109.525 147.538 109.534 147.535 109.544 147.533L110.107 147.454L110.419 146.959C110.436 146.933 110.47 146.925 110.496 146.942C110.505 146.948 110.513 146.956 110.517 146.966Z" fill="#00160A"/>
<path fill-rule="evenodd" clip-rule="evenodd" d="M129.896 72.3033C130.024 72.4169 130.184 72.6219 130.325 72.8438L130.507 72.763L130.722 72.6709C130.765 72.6512 130.793 72.6357 130.802 72.6232C130.826 72.5771 130.883 72.5595 130.93 72.584C130.975 72.6084 130.994 72.6656 130.969 72.7116C130.952 72.7554 130.831 72.8926 130.607 73.0268C130.567 73.0511 130.522 73.0738 130.473 73.0958C130.556 73.2504 130.621 73.3999 130.652 73.5197C130.698 73.6963 130.661 73.8215 130.6 73.8655C130.541 73.909 130.392 73.9171 130.165 73.7287C130.123 73.6969 130.116 73.6375 130.148 73.5962C130.18 73.555 130.239 73.5474 130.281 73.5792C130.324 73.6111 130.367 73.6291 130.403 73.6422L130.385 73.5745C130.379 73.5504 130.37 73.5252 130.359 73.5006C130.318 73.4116 130.267 73.31 130.208 73.2057C130.031 73.2728 129.829 73.3335 129.611 73.3628C129.505 73.3771 129.396 73.3799 129.284 73.379C129.219 73.3832 129.163 73.3341 129.158 73.2692C129.154 73.2045 129.203 73.1484 129.268 73.1441C129.531 73.1188 129.773 73.0526 129.987 72.978L130.058 72.9527C129.942 72.7716 129.818 72.6071 129.711 72.5142C129.654 72.4632 129.648 72.3745 129.698 72.3163C129.75 72.258 129.838 72.2521 129.896 72.3033Z" fill="#00160A"/>
<path fill-rule="evenodd" clip-rule="evenodd" d="M53.2144 119.451C52.8502 119.475 52.2726 119.568 51.8004 119.755C51.3965 119.915 51.3965 124.276 52.7773 124.623C54.1501 125.081 55.6512 124.475 55.472 122.142C55.4688 122.093 55.4293 121.96 55.384 121.808C55.3177 121.585 55.239 121.321 55.2437 121.217C55.2623 120.851 55.1661 120.542 54.912 120.348C54.6383 119.768 54.1018 119.394 53.2144 119.451ZM53.0168 123.562C52.341 123.057 52.3648 120.7 53.136 120.543C53.616 120.912 54.0541 121.445 54.2019 122.471C54.0365 123.036 53.6874 123.363 53.3821 123.649C53.3495 123.68 53.3173 123.71 53.2859 123.74C53.1988 123.69 53.109 123.63 53.0168 123.562Z" fill="white"/>
<path fill-rule="evenodd" clip-rule="evenodd" d="M52.1962 122.188C52.1349 121.821 52.1767 121.411 52.361 120.973C52.4446 120.775 52.6643 120.613 52.9392 120.504C53.2606 120.378 53.6537 120.315 53.9016 120.298C54.5055 120.259 54.8705 120.512 55.0566 120.905C55.2295 121.036 55.2949 121.245 55.2821 121.492C55.2766 121.61 55.4319 122.036 55.4372 122.117C55.5585 123.696 54.5368 124.106 53.6027 123.797C53.2478 123.977 52.9055 124.007 52.6478 123.815C52.4167 123.644 52.2393 123.284 52.1987 122.648C52.1879 122.484 52.187 122.33 52.1962 122.188ZM53.853 121.149C53.3171 121.254 53.2947 122.801 53.7627 123.131C53.8265 123.176 53.8887 123.215 53.9491 123.247C54.1753 123.043 54.3441 122.879 54.4398 122.541C54.5355 122.204 54.1854 121.39 53.853 121.149Z" fill="#FFB61D"/>
<path fill-rule="evenodd" clip-rule="evenodd" d="M88.7725 160.831C88.614 160.722 88.3972 160.762 88.2883 160.921C88.1794 161.079 88.2197 161.296 88.3783 161.405C88.5525 161.524 88.7064 161.635 88.8423 161.737C88.696 161.854 88.5498 161.987 88.398 162.139L88.09 162.452C87.9546 162.588 87.9556 162.809 88.0922 162.944C88.2288 163.08 88.4493 163.079 88.5847 162.942L88.9542 162.569C89.1046 162.422 89.2455 162.3 89.3872 162.198C89.7021 162.51 89.798 162.739 89.8031 162.967L89.8031 163.025L89.8049 163.061C89.8228 163.236 89.9711 163.373 90.1514 163.373C90.3437 163.373 90.4997 163.217 90.4997 163.025L90.4996 162.956C90.4931 162.602 90.3679 162.264 90.0309 161.879C90.2535 161.812 90.5044 161.775 90.8087 161.759C91.0008 161.749 91.1483 161.585 91.1383 161.393C91.1283 161.201 90.9644 161.054 90.7724 161.064C90.2441 161.091 89.8336 161.179 89.4679 161.347C89.3153 161.222 89.1423 161.091 88.9468 160.952L88.7725 160.831Z" fill="#00160A"/>
<path fill-rule="evenodd" clip-rule="evenodd" d="M88.7725 160.831C88.614 160.722 88.3972 160.762 88.2883 160.921C88.1794 161.079 88.2197 161.296 88.3783 161.405C88.5525 161.524 88.7064 161.635 88.8423 161.737C88.696 161.854 88.5498 161.987 88.398 162.139L88.09 162.452C87.9546 162.588 87.9556 162.809 88.0922 162.944C88.2288 163.08 88.4493 163.079 88.5847 162.942L88.9542 162.569C89.1046 162.422 89.2455 162.3 89.3872 162.198C89.7021 162.51 89.798 162.739 89.8031 162.967L89.8031 163.025L89.8049 163.061C89.8228 163.236 89.9711 163.373 90.1514 163.373C90.3437 163.373 90.4997 163.217 90.4997 163.025L90.4996 162.956C90.4931 162.602 90.3679 162.264 90.0309 161.879C90.2535 161.812 90.5044 161.775 90.8087 161.759C91.0008 161.749 91.1483 161.585 91.1383 161.393C91.1283 161.201 90.9644 161.054 90.7724 161.064C90.2441 161.091 89.8336 161.179 89.4679 161.347C89.3153 161.222 89.1423 161.091 88.9468 160.952L88.7725 160.831Z" fill="#00160A"/>
<path fill-rule="evenodd" clip-rule="evenodd" d="M100.675 151.29L100.915 151.823L101.462 151.98C101.492 151.988 101.509 152.019 101.5 152.049C101.498 152.058 101.493 152.066 101.486 152.073L101.07 152.487L101.094 153.082C101.095 153.113 101.071 153.139 101.04 153.14C101.03 153.14 101.019 153.138 101.01 153.133L100.54 152.865C100.525 152.856 100.507 152.855 100.492 152.861L99.9884 153.061C99.9598 153.073 99.9274 153.059 99.9161 153.03C99.9122 153.02 99.9112 153.01 99.913 153L100.019 152.413L99.6649 151.946C99.6463 151.921 99.6512 151.886 99.6757 151.868C99.6833 151.862 99.6922 151.858 99.7016 151.857L100.265 151.777L100.577 151.283C100.593 151.257 100.628 151.249 100.654 151.265C100.663 151.271 100.671 151.28 100.675 151.29Z" fill="#00160A"/>
<path fill-rule="evenodd" clip-rule="evenodd" d="M70.4831 147.625L70.891 148.044L71.4588 148.005C71.4895 148.003 71.5161 148.026 71.5182 148.056C71.5189 148.066 71.5171 148.075 71.5131 148.084L71.264 148.615L71.4896 149.167C71.5012 149.195 71.4876 149.228 71.4591 149.239C71.4495 149.243 71.4389 149.244 71.4287 149.243L70.8948 149.152C70.8781 149.149 70.8611 149.154 70.8484 149.165L70.4439 149.525C70.4209 149.545 70.3857 149.543 70.3652 149.52C70.3583 149.513 70.3537 149.503 70.3519 149.493L70.2509 148.905L69.7583 148.587C69.7324 148.57 69.725 148.536 69.7417 148.51C69.7469 148.502 69.754 148.496 69.7624 148.491L70.2648 148.224L70.3887 147.652C70.3952 147.622 70.4249 147.603 70.4549 147.61C70.4657 147.612 70.4754 147.617 70.4831 147.625Z" fill="#00160A"/>
<path fill-rule="evenodd" clip-rule="evenodd" d="M64.113 109.434L64.353 109.968L64.9001 110.125C64.9297 110.133 64.9468 110.164 64.9383 110.194C64.9357 110.203 64.9308 110.211 64.924 110.218L64.5084 110.632L64.5317 111.227C64.5329 111.258 64.5089 111.284 64.4782 111.285C64.4678 111.285 64.4575 111.283 64.4484 111.278L63.9779 111.01C63.9632 111.001 63.9455 111 63.9297 111.006L63.4265 111.206C63.3979 111.217 63.3655 111.204 63.3541 111.175C63.3503 111.165 63.3492 111.155 63.3511 111.144L63.457 110.558L63.103 110.09C63.0844 110.066 63.0892 110.031 63.1138 110.012C63.1213 110.007 63.1302 110.003 63.1396 110.002L63.7032 109.922L64.0151 109.428C64.0315 109.401 64.0659 109.394 64.0919 109.41C64.1012 109.416 64.1086 109.424 64.113 109.434Z" fill="#00160A"/>
<path fill-rule="evenodd" clip-rule="evenodd" d="M64.0574 109.966L64.1593 110.192L64.3917 110.259C64.4043 110.262 64.4115 110.275 64.4079 110.288C64.4068 110.292 64.4047 110.295 64.4019 110.298L64.2253 110.474L64.2352 110.727C64.2357 110.74 64.2256 110.751 64.2125 110.752C64.2081 110.752 64.2037 110.751 64.1999 110.748L64 110.635C63.9937 110.631 63.9862 110.631 63.9795 110.633L63.7658 110.718C63.7536 110.723 63.7399 110.717 63.735 110.705C63.7334 110.701 63.733 110.696 63.7337 110.692L63.7787 110.443L63.6284 110.244C63.6205 110.234 63.6225 110.219 63.6329 110.211C63.6362 110.209 63.6399 110.207 63.6439 110.206L63.8833 110.173L64.0158 109.963C64.0228 109.952 64.0374 109.948 64.0484 109.955C64.0524 109.958 64.0555 109.961 64.0574 109.966Z" fill="#E7EAEE"/>
<path fill-rule="evenodd" clip-rule="evenodd" d="M35.5837 132.833L35.8237 133.366L36.3708 133.523C36.4004 133.532 36.4175 133.563 36.409 133.592C36.4064 133.601 36.4015 133.61 36.3947 133.616L35.9791 134.03L36.0024 134.625C36.0036 134.656 35.9796 134.682 35.9489 134.683C35.9385 134.684 35.9282 134.681 35.9191 134.676L35.4486 134.408C35.4338 134.4 35.4161 134.398 35.4004 134.405L34.8971 134.605C34.8685 134.616 34.8361 134.602 34.8248 134.573C34.8209 134.564 34.8199 134.553 34.8217 134.543L34.9277 133.956L34.5736 133.489C34.5551 133.464 34.5599 133.429 34.5844 133.411C34.592 133.405 34.6009 133.401 34.6103 133.4L35.1739 133.321L35.4858 132.826C35.5022 132.8 35.5366 132.792 35.5626 132.809C35.5719 132.814 35.5792 132.823 35.5837 132.833Z" fill="#00160A"/>
<path fill-rule="evenodd" clip-rule="evenodd" d="M59.6962 84.9453L59.8705 85.067C60.0661 85.2057 60.7964 85.894 60.9492 86.019C61.3144 85.8514 61.7249 85.7633 62.2531 85.7357C62.4452 85.7257 62.609 85.8732 62.6191 86.0653C62.6291 86.2574 62.4815 86.4212 62.2895 86.4313C61.9851 86.4472 61.7342 86.4843 61.5115 86.5507C61.8488 86.9365 61.974 87.2738 61.9805 87.6284L61.9805 87.6969C61.9805 87.8892 61.8246 88.0452 61.6323 88.0452C61.4519 88.0452 61.3036 87.9081 61.2858 87.7325L61.284 87.6969L61.284 87.6385C61.2788 87.411 61.183 87.1821 60.8681 86.87C60.7263 86.9717 60.5854 87.0942 60.435 87.2407L60.0654 87.6142C59.93 87.7508 59.7095 87.7517 59.5729 87.6163C59.4363 87.4809 59.4354 87.2604 59.5708 87.1238L59.8788 86.811C60.0306 86.6592 60.1767 86.5258 60.3231 86.4094C60.0661 85.8228 59.1031 85.1939 59.2119 85.0353C59.3208 84.8768 59.5376 84.8365 59.6962 84.9453Z" fill="#00160A"/>
<path fill-rule="evenodd" clip-rule="evenodd" d="M126.889 125.11L127.364 125.451L127.916 125.314C127.946 125.307 127.976 125.325 127.984 125.355C127.986 125.364 127.986 125.373 127.984 125.383L127.83 125.949L128.148 126.453C128.165 126.479 128.157 126.513 128.131 126.53C128.122 126.535 128.112 126.538 128.102 126.538L127.56 126.541C127.543 126.542 127.527 126.549 127.517 126.563L127.181 126.987C127.162 127.011 127.127 127.016 127.102 126.996C127.094 126.99 127.088 126.981 127.085 126.972L126.883 126.411L126.343 126.183C126.314 126.171 126.301 126.138 126.313 126.11C126.317 126.101 126.323 126.093 126.33 126.088L126.778 125.737L126.801 125.153C126.802 125.122 126.828 125.098 126.859 125.099C126.87 125.1 126.881 125.103 126.889 125.11Z" fill="#00160A"/>
<path fill-rule="evenodd" clip-rule="evenodd" d="M132.34 103.283L132.484 103.85L132.995 104.099C133.023 104.113 133.034 104.146 133.021 104.174C133.017 104.182 133.01 104.19 133.003 104.195L132.521 104.53L132.441 105.121C132.437 105.151 132.409 105.173 132.378 105.169C132.368 105.167 132.358 105.163 132.35 105.156L131.933 104.811C131.92 104.8 131.903 104.796 131.886 104.799L131.356 104.908C131.326 104.915 131.296 104.895 131.29 104.865C131.288 104.855 131.289 104.844 131.292 104.835L131.499 104.276L131.231 103.754C131.217 103.726 131.228 103.693 131.255 103.679C131.264 103.674 131.273 103.672 131.283 103.672L131.852 103.692L132.245 103.259C132.265 103.236 132.301 103.235 132.323 103.255C132.331 103.263 132.337 103.272 132.34 103.283Z" fill="#00160A"/>
<path fill-rule="evenodd" clip-rule="evenodd" d="M119.928 80.4684L120.072 81.0353L120.583 81.2849C120.611 81.2984 120.622 81.3318 120.609 81.3594C120.605 81.368 120.598 81.3753 120.591 81.3807L120.109 81.716L120.029 82.3065C120.025 82.337 119.997 82.3584 119.966 82.3542C119.956 82.3528 119.946 82.3485 119.938 82.3419L119.521 81.9963C119.508 81.9855 119.491 81.9812 119.474 81.9846L118.944 82.094C118.914 82.1003 118.885 82.0809 118.878 82.0507C118.876 82.0405 118.877 82.03 118.881 82.0202L119.087 81.4611L118.819 80.9391C118.805 80.9117 118.816 80.8781 118.843 80.8641C118.852 80.8598 118.861 80.8577 118.871 80.858L119.44 80.8777L119.833 80.4447C119.853 80.4219 119.889 80.4202 119.911 80.4409C119.92 80.4482 119.925 80.4578 119.928 80.4684Z" fill="#00160A"/>
<path fill-rule="evenodd" clip-rule="evenodd" d="M156.596 86.0228L156.808 86.004C157.047 85.9845 157.264 85.9737 157.461 85.9712C157.633 85.6081 157.891 85.2767 158.278 84.916C158.419 84.7849 158.639 84.7926 158.77 84.9333C158.901 85.074 158.894 85.2944 158.753 85.4255C158.53 85.6333 158.362 85.8231 158.234 86.0171C158.74 86.0957 159.053 86.2737 159.286 86.5412L159.33 86.5936C159.453 86.741 159.434 86.9606 159.287 87.0843C159.149 87.2002 158.947 87.1905 158.821 87.0675L158.796 87.0414L158.759 86.9966C158.609 86.8257 158.388 86.7119 157.946 86.6752C157.903 86.8443 157.874 87.0287 157.853 87.2376L157.81 87.7612C157.794 87.9529 157.625 88.0954 157.434 88.0795C157.242 88.0636 157.1 87.8953 157.115 87.7036L157.15 87.266C157.169 87.0521 157.195 86.856 157.233 86.6727C157.063 86.6814 156.874 86.6958 156.663 86.7161C156.472 86.7346 156.302 86.5945 156.283 86.403C156.265 86.2116 156.405 86.0414 156.596 86.0228Z" fill="#00160A"/>
<path fill-rule="evenodd" clip-rule="evenodd" d="M128.474 110.063C128.411 110.222 128.273 110.443 128.113 110.651L128.251 110.795L128.411 110.965L128.447 110.999C128.462 111.013 128.474 111.021 128.483 111.024C128.535 111.031 128.571 111.079 128.564 111.131C128.557 111.182 128.509 111.219 128.457 111.211C128.411 111.21 128.24 111.144 128.037 110.979C128.001 110.949 127.964 110.915 127.927 110.877C127.81 111.007 127.692 111.12 127.59 111.189C127.439 111.293 127.309 111.301 127.247 111.259C127.186 111.218 127.127 111.081 127.227 110.803C127.242 110.753 127.296 110.727 127.345 110.742C127.395 110.758 127.422 110.811 127.407 110.861C127.392 110.913 127.39 110.96 127.389 110.997L127.447 110.958C127.467 110.943 127.488 110.927 127.507 110.908C127.577 110.839 127.655 110.756 127.733 110.666C127.609 110.522 127.483 110.353 127.381 110.158C127.331 110.063 127.292 109.962 127.254 109.856C127.228 109.796 127.255 109.727 127.314 109.701C127.374 109.674 127.443 109.702 127.469 109.761C127.583 109.999 127.728 110.204 127.871 110.38L127.919 110.437C128.05 110.266 128.162 110.093 128.213 109.962C128.241 109.89 128.322 109.854 128.394 109.882C128.467 109.91 128.502 109.991 128.474 110.063Z" fill="#E7EAEE"/>
<path fill-rule="evenodd" clip-rule="evenodd" d="M125.074 39.0869C125.286 39.0499 125.488 39.192 125.525 39.4042C125.562 39.6165 125.42 39.8185 125.208 39.8554C124.198 40.0312 122.984 40.6346 121.934 41.6063C120.571 42.8682 119.566 44.6491 119.07 46.9738C118.67 48.8468 119.038 51.3128 120.083 53.3702C121.272 55.7108 123.183 57.3023 125.636 57.7502C128.153 58.2101 130.283 57.9245 132.662 57.0787L132.882 56.9992C132.951 56.9729 133.075 56.9249 133.231 56.8648C133.804 56.6438 134.805 56.2576 135.092 56.1707C135.862 55.938 136.386 55.9575 136.767 56.3629C136.914 56.52 136.906 56.7669 136.749 56.9143C136.602 57.0525 136.376 57.0542 136.227 56.9245L136.198 56.8968C136.086 56.7772 135.854 56.7633 135.387 56.8972L135.318 56.9174C135.065 56.994 134.138 57.3515 133.56 57.5744L133.559 57.5746L133.558 57.5752C133.335 57.6612 133.164 57.727 133.105 57.7486C130.535 58.6866 128.229 59.017 125.495 58.5177C122.786 58.0229 120.68 56.2692 119.387 53.7235C118.263 51.511 117.869 48.8637 118.307 46.811C118.837 44.3298 119.923 42.4056 121.404 41.0339C122.564 39.9602 123.916 39.2886 125.074 39.0869ZM127.712 40.9713C127.923 40.9299 128.128 41.0677 128.17 41.2791C128.211 41.4905 128.073 41.6954 127.862 41.7368C124.7 42.3559 122.158 44.7706 121.421 47.9645C121.171 49.0454 121.247 49.9243 121.492 50.2596L121.524 50.3017L121.527 50.3075L121.531 50.304C121.619 50.2248 121.721 50.0227 121.801 49.7093L121.817 49.6404C122.576 46.3556 125.08 43.8129 128.279 42.959C128.487 42.9035 128.701 43.0271 128.756 43.2353C128.812 43.4434 128.688 43.6572 128.48 43.7127C125.598 44.482 123.334 46.751 122.607 49.6913L122.578 49.8159C122.31 50.9744 121.542 51.5275 120.92 50.7941C120.465 50.2577 120.353 49.1196 120.661 47.789C121.468 44.2926 124.251 41.649 127.712 40.9713ZM132.403 45.2525C132.388 45.0376 132.201 44.8759 131.986 44.8912C128.19 45.162 124.861 47.6278 123.536 51.267C123.033 52.648 123.003 53.876 123.415 54.5023C123.967 55.3424 124.835 54.8658 125.268 53.6764L125.314 53.5543C126.485 50.4744 129.23 48.3234 132.443 47.8748C132.657 47.845 132.806 47.6479 132.776 47.4346C132.746 47.2212 132.549 47.0724 132.336 47.1022C128.797 47.5962 125.78 49.9905 124.535 53.4096L124.508 53.4826C124.369 53.8385 124.218 54.053 124.103 54.116L124.098 54.1194L124.096 54.1212C124.095 54.1216 124.095 54.1219 124.095 54.1221C124.094 54.1224 124.094 54.1225 124.094 54.1224C124.093 54.1224 124.093 54.1213 124.092 54.1187C124.089 54.1129 124.084 54.0998 124.067 54.0739L124.046 54.04C123.82 53.6386 123.854 52.6731 124.269 51.5338C125.487 48.1863 128.55 45.9184 132.042 45.6693C132.257 45.654 132.418 45.4674 132.403 45.2525ZM134.102 49.0443C134.317 49.029 134.503 49.1908 134.519 49.4056C134.534 49.6205 134.372 49.8071 134.157 49.8224C131.709 49.9971 129.562 51.5872 128.708 53.9342C128.454 54.6299 128.407 55.2247 128.498 55.526L128.509 55.5596L128.526 55.5347C128.57 55.4687 128.619 55.3738 128.667 55.2508L128.688 55.1963C129.59 52.7172 131.778 50.9811 134.344 50.6229C134.557 50.5931 134.754 50.7419 134.784 50.9553C134.814 51.1686 134.665 51.3657 134.451 51.3955C132.207 51.7088 130.288 53.2069 129.462 55.3534L129.421 55.4631C129.086 56.3824 128.362 56.7796 127.9 56.0756C127.583 55.5933 127.605 54.6826 127.975 53.6674C128.935 51.0286 131.349 49.2407 134.102 49.0443ZM136.158 52.187C136.142 51.9721 135.956 51.8104 135.741 51.8257C133.897 51.9572 132.281 53.1546 131.637 54.9218C131.384 55.6185 131.368 56.2526 131.603 56.6096C131.988 57.195 132.585 56.867 132.834 56.183L132.868 56.0932C133.392 54.7549 134.593 53.8219 135.997 53.6259C136.21 53.5962 136.359 53.3991 136.329 53.1857C136.299 52.9724 136.102 52.8236 135.889 52.8533L135.79 52.8682C134.279 53.1116 132.975 54.0709 132.299 55.4515L132.275 55.5006L132.29 55.4446C132.311 55.3632 132.338 55.2774 132.37 55.1886C132.907 53.7132 134.257 52.7136 135.796 52.6038C136.011 52.5885 136.173 52.4019 136.158 52.187Z" fill="#00160A"/>
<path fill-rule="evenodd" clip-rule="evenodd" d="M134.102 49.0444C134.317 49.0291 134.503 49.1908 134.519 49.4057C134.534 49.6206 134.372 49.8072 134.157 49.8225C131.709 49.9972 129.562 51.5872 128.708 53.9342C128.454 54.63 128.407 55.2248 128.498 55.5261L128.509 55.5597L128.526 55.5348C128.57 55.4687 128.619 55.3739 128.667 55.2508L128.688 55.1964C129.59 52.7173 131.778 50.9811 134.344 50.623C134.557 50.5932 134.754 50.742 134.784 50.9554C134.814 51.1687 134.665 51.3658 134.451 51.3956C132.207 51.7089 130.288 53.207 129.462 55.3535L129.421 55.4632C129.086 56.3825 128.362 56.7796 127.9 56.0757C127.583 55.5933 127.605 54.6827 127.975 53.6674C128.935 51.0286 131.349 49.2408 134.102 49.0444Z" fill="#00160A"/>
<path d="M109.81 99.828C117.987 96.0031 124.824 93.9827 129.081 93.6117C130.384 93.4981 130.975 94.2168 130.645 95.3857C130.4 96.2537 129.654 97.4448 128.51 98.8553C126.515 101.314 123.885 103.418 121.266 105.375C125.456 101.508 126.525 99.8907 127.817 98.2977L128.02 98.0442C128.978 96.8329 129.597 95.8207 129.788 95.1454L129.815 95.0429C129.934 94.5554 129.796 94.44 129.158 94.4956C124.998 94.8582 118.187 96.8826 110.04 100.702C101.879 104.528 101.646 103.647 109.81 99.828Z" fill="white"/>
<path d="M72.411 87.4545L72.4708 87.5968C72.885 88.5791 73.3155 89.5518 73.8041 90.6128L73.9941 91.0244C73.9318 91.0662 73.8499 91.1106 73.7598 91.15C73.6305 91.2065 73.4992 91.2461 73.4005 91.2594L73.3691 91.2625L73.3216 91.2056C72.9524 90.751 72.5238 89.9786 72.2141 89.2106C72.0492 88.8015 71.9317 88.4262 71.8788 88.1379C71.8572 88.0205 71.8472 87.9218 71.8481 87.847L71.8503 87.7976C71.8511 87.7857 71.8511 87.7795 71.8482 87.7785L71.8599 87.7707C71.9258 87.7252 72.0943 87.6266 72.3445 87.4906L72.411 87.4545Z" fill="white"/>
<path fill-rule="evenodd" clip-rule="evenodd" d="M82.7481 83.8963C83.0041 83.583 83.336 83.6297 83.7563 83.8847L83.8643 83.9528L84.1665 84.1531C84.251 84.2073 84.2876 84.226 84.3369 84.2456C84.4513 84.2912 84.5071 84.4208 84.4616 84.5351C84.416 84.6495 84.2864 84.7053 84.172 84.6598L84.1313 84.643C84.054 84.6099 83.9957 84.5755 83.8391 84.4716L83.6223 84.3272C83.5865 84.3038 83.5556 84.2843 83.5252 84.2658C83.2737 84.1133 83.1596 84.0972 83.0933 84.1783C83.0516 84.2294 83.0619 84.3383 83.1447 84.5616L83.2357 84.7959C83.4165 85.2758 83.4175 85.4903 83.0955 85.6734C82.8183 85.8311 82.6761 85.7574 82.278 85.3673L82.1814 85.2717C81.9264 85.017 81.7928 84.9284 81.7067 84.9466C81.6781 84.9527 81.6447 84.9729 81.604 85.0164C81.5562 85.0673 81.5427 85.2301 81.572 85.519L81.6169 85.8962C81.6693 86.3574 81.6482 86.4769 81.4578 86.6043C81.1956 86.7798 80.8468 86.5814 80.2002 86.0008C80.1086 85.9185 80.1011 85.7776 80.1833 85.686C80.2656 85.5945 80.4065 85.5869 80.4981 85.6691C80.7745 85.9174 80.9832 86.079 81.129 86.1619L81.1616 86.1797L81.1889 86.1933L81.1896 86.1654L81.1878 86.0986C81.1849 86.0439 81.1781 85.9778 81.1645 85.8654L81.1361 85.6339C81.0819 85.1644 81.0988 84.9033 81.2789 84.7114C81.3789 84.6048 81.4911 84.5366 81.6144 84.5105C81.9008 84.4499 82.1041 84.5723 82.4419 84.9024L82.6124 85.0701C82.7962 85.2469 82.8644 85.2921 82.8751 85.286C82.9169 85.2622 82.9105 85.1884 82.7977 84.8984L82.7482 84.7729C82.5907 84.3681 82.5607 84.1257 82.7481 83.8963Z" fill="#00160A"/>
<path fill-rule="evenodd" clip-rule="evenodd" d="M107.081 47.6178L106.869 47.6367C106.678 47.6553 106.538 47.8255 106.556 48.0169C106.567 48.1326 106.634 48.2296 106.727 48.2842L106.69 48.3103C106.533 48.4213 106.496 48.6387 106.607 48.7957C106.718 48.9528 106.935 48.9901 107.092 48.8791L107.45 48.6257C107.44 48.7076 107.431 48.7923 107.423 48.8799L107.388 49.3175C107.373 49.5092 107.515 49.6775 107.707 49.6934C107.898 49.7093 108.067 49.5668 108.083 49.3751L108.126 48.8515C108.137 48.7394 108.151 48.6344 108.167 48.535C108.29 48.767 108.314 48.9457 108.288 49.1147L108.278 49.1722L108.274 49.2076C108.261 49.3836 108.383 49.5443 108.561 49.5756C108.75 49.609 108.931 49.4826 108.964 49.2931L108.976 49.2257C109.013 48.9907 108.996 48.7541 108.901 48.4914C108.951 48.5272 108.993 48.567 109.032 48.6105L109.069 48.6552L109.094 48.6814C109.22 48.8044 109.422 48.8141 109.56 48.6982C109.707 48.5745 109.726 48.3549 109.603 48.2075L109.559 48.1551C109.543 48.1371 109.527 48.1196 109.511 48.1024C109.693 48.113 109.854 47.9806 109.876 47.7972C109.9 47.6063 109.764 47.4325 109.573 47.4091C109.245 47.3687 108.958 47.3596 108.694 47.3833C108.788 47.2718 108.898 47.1586 109.026 47.0394C109.167 46.9083 109.174 46.6879 109.043 46.5472C108.912 46.4065 108.692 46.3988 108.551 46.5299C108.315 46.7499 108.127 46.959 107.977 47.1711C107.919 47.1097 107.859 47.0468 107.795 46.9823L107.644 46.8322C107.507 46.6975 107.286 46.6995 107.152 46.8367C107.017 46.974 107.019 47.1945 107.156 47.3292C107.252 47.4228 107.34 47.5113 107.421 47.5952C107.313 47.6007 107.199 47.6082 107.081 47.6178Z" fill="#00160A"/>
<path fill-rule="evenodd" clip-rule="evenodd" d="M93.6595 50.0309C93.5759 49.9452 93.4405 49.9476 93.3571 50.0362C93.2737 50.1249 93.2739 50.2662 93.3575 50.352C93.4367 50.4332 93.5076 50.5086 93.5709 50.5787C93.4369 50.6355 93.3025 50.709 93.1585 50.7998L92.9401 50.9399C92.8442 51.001 92.8233 51.1232 92.8934 51.2128C92.9635 51.3025 93.098 51.3257 93.1939 51.2646L93.4557 51.0975C93.5925 51.0137 93.7158 50.9503 93.8398 50.9058C94.0281 51.1676 94.0675 51.3355 94.0435 51.4911L94.037 51.528L94.0341 51.5507C94.0253 51.6636 94.0996 51.766 94.2084 51.7852C94.3245 51.8057 94.436 51.7237 94.4575 51.6021L94.4651 51.5588C94.5008 51.3331 94.4625 51.1058 94.3008 50.8249C94.4105 50.8233 94.53 50.8314 94.6656 50.8487C94.7837 50.8638 94.8897 50.789 94.9023 50.6815C94.9149 50.5741 94.8294 50.4748 94.7113 50.4597C94.4524 50.4266 94.2354 50.4228 94.0368 50.4496C93.9551 50.3491 93.8603 50.2418 93.7511 50.1263L93.6595 50.0309Z" fill="#E7EAEE"/>
<path fill-rule="evenodd" clip-rule="evenodd" d="M48.7791 108.09L49.0191 108.623L49.5662 108.78C49.5958 108.788 49.6129 108.819 49.6044 108.849C49.6017 108.858 49.5968 108.866 49.5901 108.873L49.1745 109.287L49.1978 109.882C49.199 109.913 49.175 109.939 49.1443 109.94C49.1339 109.941 49.1235 109.938 49.1145 109.933L48.6439 109.665C48.6292 109.656 48.6115 109.655 48.5958 109.662L48.0925 109.861C48.0639 109.873 48.0315 109.859 48.0202 109.83C48.0163 109.821 48.0153 109.81 48.0171 109.8L48.1231 109.213L47.7691 108.746C47.7505 108.721 47.7553 108.686 47.7798 108.668C47.7874 108.662 47.7963 108.658 47.8057 108.657L48.3693 108.577L48.6812 108.083C48.6976 108.057 48.732 108.049 48.758 108.065C48.7673 108.071 48.7746 108.08 48.7791 108.09Z" fill="#00160A"/>
<path fill-rule="evenodd" clip-rule="evenodd" d="M51.9791 78.4896L52.2191 79.023L52.7662 79.18C52.7958 79.1885 52.8129 79.2193 52.8044 79.2489C52.8018 79.258 52.7969 79.2663 52.7901 79.273L52.3745 79.6868L52.3978 80.2823C52.399 80.313 52.375 80.3389 52.3443 80.3401C52.3339 80.3406 52.3236 80.338 52.3145 80.3329L51.844 80.0649C51.8293 80.0565 51.8115 80.0553 51.7958 80.0615L51.2925 80.2614C51.2639 80.2728 51.2316 80.2588 51.2202 80.2302C51.2163 80.2205 51.2153 80.21 51.2171 80.1997L51.3231 79.6133L50.9691 79.1457C50.9505 79.1211 50.9553 79.0862 50.9799 79.0676C50.9874 79.0619 50.9963 79.0582 51.0057 79.0569L51.5693 78.9775L51.8812 78.4828C51.8976 78.4568 51.932 78.449 51.958 78.4654C51.9673 78.4712 51.9746 78.4797 51.9791 78.4896Z" fill="#00160A"/>
<path d="M59.2278 125.616C59.4066 125.486 59.6567 125.526 59.7865 125.705C59.9163 125.884 54.2573 130.493 52.062 132.605L51.8068 132.853C50.5529 134.08 49.6284 135.142 49.1073 135.982C48.5551 136.872 48.5197 137.355 48.8762 137.553C50.2288 138.302 52.1735 138.668 54.9587 138.206L55.2449 138.157C56.3051 137.972 64.2801 136.232 64.1539 136.279L64.1048 136.293C63.8534 136.36 60.6061 137.483 59.4853 137.768L59.3498 137.803C57.6364 138.234 56.2956 138.529 55.0894 138.729C52.1421 139.217 50.0363 139.11 48.4884 138.253C47.5952 137.758 47.6664 136.787 48.4275 135.56C49.0262 134.595 50.0793 133.403 51.5073 132.029C53.7319 129.888 56.861 127.335 59.2278 125.616Z" fill="white"/>
<path fill-rule="evenodd" clip-rule="evenodd" d="M100.896 70.1684C100.993 70.1035 101.124 70.1312 101.188 70.2303L102.632 72.4678C102.696 72.5669 102.669 72.6999 102.571 72.7648C102.474 72.8298 102.343 72.8021 102.279 72.703L100.835 70.4655C100.771 70.3664 100.798 70.2334 100.896 70.1684Z" fill="#00160A"/>
<path fill-rule="evenodd" clip-rule="evenodd" d="M100.966 68.5154C101.078 68.4496 101.226 68.4827 101.296 68.5894L102.29 70.0945C102.36 70.2012 102.327 70.3411 102.215 70.4069C102.103 70.4728 101.955 70.4397 101.885 70.333L100.891 68.8279C100.821 68.7212 100.854 68.5813 100.966 68.5154Z" fill="#00160A"/>
</svg>
