<svg width="200" height="200" viewBox="0 0 200 200" fill="none" xmlns="http://www.w3.org/2000/svg">
<path fill-rule="evenodd" clip-rule="evenodd" d="M106.927 126.594C109.349 126.073 109.23 124.008 117.03 124.008C118.422 124.008 121.191 125.031 122.879 125.406C126.106 126.124 132.085 128.838 132.085 128.838C132.085 128.838 134.749 130.449 139.009 130.531C143.27 130.612 145.587 129.453 150.087 129.453C153.368 129.453 156.217 130.531 159.028 130.531C161.839 130.531 165.724 130.172 165.856 128.009C167.642 98.8625 158.046 86.7819 151.461 76.5195C141.018 60.2467 143.898 35.5693 130.7 47.5924C127.352 50.6422 126.951 53.1577 121.028 56.4182C116.314 59.0135 112.641 59.5289 110.141 61.1159C103.22 65.5092 99.5854 71.6301 94.7705 74.5587C86.3624 79.6728 83.6046 77.6001 76.9576 81.0994C76.0802 81.5614 75.1073 82.213 74.0246 82.6504C71.8713 83.5203 69.4176 84.2244 67.3561 85.6775C65.6899 86.852 63.1279 90.2357 63.1279 90.2357L47.3361 95.7362C47.3361 95.7362 43.8283 97.3657 45.2956 103.18C46.7629 108.995 51.3797 121.861 51.3797 121.861C51.3797 121.861 55.7765 121.798 59.463 124.008C63.1495 126.218 64.3577 131.049 64.3577 131.049C64.3577 131.049 73.2008 128.379 76.9576 127.07C77.9892 126.711 80.3229 125.804 83.8901 125.634C87.8005 125.448 90.7487 127.385 96.4335 127.667C99.6279 127.826 104.505 127.115 106.927 126.594Z" fill="#FFA600"/>
<path fill-rule="evenodd" clip-rule="evenodd" d="M168.868 108.621C168.734 108.288 168.168 108.442 168.06 108.784C167.957 109.112 168.112 109.456 168.255 109.772L168.273 109.813C169.767 113.135 168.578 117.442 165.59 119.527C165.23 119.306 164.972 118.961 164.714 118.616C164.427 118.232 164.141 117.849 163.717 117.645C163.347 117.466 162.921 117.451 162.51 117.44L158.842 117.34C158.395 117.328 157.858 117.364 157.642 117.755C157.17 118.605 155.907 118.944 155.143 118.343C154.378 117.741 154.509 116.303 155.415 115.948C155.482 115.922 155.552 115.901 155.622 115.88C155.774 115.834 155.927 115.788 156.048 115.687C156.206 115.555 156.283 115.352 156.353 115.158L157.776 111.216C157.865 110.969 157.956 110.714 157.95 110.451C157.937 109.914 157.532 109.473 157.116 109.134C157.05 109.08 156.983 109.027 156.915 108.974C156.557 108.691 156.194 108.403 155.997 107.997C155.763 107.515 155.9 106.801 156.414 106.646C159.108 105.833 162.137 105.317 164.646 106.593C164.716 106.629 164.786 106.666 164.856 106.703L164.856 106.703C165.217 106.894 165.582 107.088 165.985 107.099C166.467 107.113 166.999 106.719 166.911 106.245C166.855 105.942 166.583 105.719 166.322 105.505C166.009 105.248 165.712 105.005 165.825 104.653C165.87 104.514 165.978 104.405 166.082 104.302L169.275 101.147C169.385 100.55 168.517 100.224 167.958 100.461C167.682 100.578 167.443 100.765 167.205 100.951C166.962 101.141 166.719 101.332 166.436 101.448C165.301 101.914 164.085 101.052 163.186 100.217C159.97 97.226 157.117 93.8446 154.711 90.1703C154.601 90.0016 154.487 89.8163 154.501 89.6153C154.52 89.3571 154.74 89.166 154.943 89.0056L160.252 84.8136C160.679 84.476 161.348 84.1537 161.7 84.5693L171.476 96.1142C171.631 96.2977 171.792 96.4919 171.84 96.7275C171.939 97.2117 171.535 97.6496 171.126 97.9271C171.063 97.9703 170.997 98.0129 170.932 98.0556C170.575 98.2875 170.209 98.5259 170.051 98.9121C169.863 99.3695 170.272 100.044 170.729 99.8564C173.071 98.1745 175.518 96.4465 178.358 95.9474C178.895 95.8529 179.479 95.8115 179.957 96.0741C181.021 96.6584 180.871 98.2253 180.467 99.3699C179.729 101.458 178.635 103.42 177.246 105.146C176.97 105.489 176.663 105.903 176.779 106.328C176.944 106.929 177.78 107.003 178.377 106.825C178.472 106.797 178.568 106.766 178.665 106.734L178.665 106.734C179.18 106.566 179.718 106.391 180.186 106.628C180.432 106.753 180.612 106.975 180.784 107.191L189.51 118.116C187.5 119.697 185.455 121.231 183.375 122.718C183.17 122.865 182.941 123.018 182.689 122.997C182.391 122.973 182.173 122.716 181.99 122.479L173.622 111.654C173.265 111.192 173.601 110.502 174.06 110.142C174.227 110.012 174.409 109.901 174.591 109.79C174.912 109.594 175.232 109.399 175.458 109.103C175.813 108.639 175.718 107.775 175.142 107.687C174.814 107.637 174.512 107.866 174.275 108.098C174.09 108.279 173.914 108.474 173.737 108.668L173.737 108.668C173.283 109.168 172.83 109.668 172.224 109.949C171.003 110.515 169.371 109.869 168.868 108.621ZM157.144 115.346C157.128 115.388 157.112 115.431 157.112 115.476C157.115 115.604 157.261 115.689 157.388 115.676C157.515 115.663 157.624 115.582 157.725 115.504L160.428 113.428C160.569 113.319 160.723 113.185 160.722 113.008C160.722 112.869 160.625 112.752 160.533 112.648L159.345 111.302C159.283 111.232 159.217 111.159 159.127 111.131C158.883 111.056 158.694 111.346 158.602 111.584L157.144 115.346ZM161.504 114.052C161.582 114.083 161.639 114.149 161.693 114.212L163.307 116.103C163.347 116.255 163.129 116.331 162.971 116.334L158.664 116.418C158.453 116.422 158.231 116.423 158.046 116.321C158.858 115.318 159.944 114.538 161.154 114.089C161.266 114.047 161.392 114.008 161.504 114.052Z" fill="white"/>
<path fill-rule="evenodd" clip-rule="evenodd" d="M75.4074 108.27C75.4927 107.024 76.4088 105.876 77.6055 105.516C78.3246 105.299 78.8253 104.609 79.0038 103.88C79.1822 103.15 79.0886 102.383 78.9506 101.645C78.5098 99.2885 77.4909 96.8563 75.4402 95.6144C73.2167 94.2679 70.3506 94.654 67.9001 95.5212C66.8321 95.8992 65.7219 96.4211 65.1609 97.4054C64.8159 98.0109 64.7211 98.7224 64.6329 99.4137C64.4525 100.827 64.2718 102.254 64.4021 103.674C64.5324 105.093 65.0014 106.523 65.9697 107.568C66.644 108.297 67.6774 108.828 68.6209 108.52C69.3604 108.279 70.0387 108.966 70.7389 109.305C71.6947 109.767 72.823 109.576 73.8655 109.375C74.536 109.245 75.3609 108.952 75.4074 108.27Z" fill="white"/>
<path fill-rule="evenodd" clip-rule="evenodd" d="M100.4 127.128C102.822 126.879 105.243 126.631 107.665 126.382C107.233 127.043 106.363 127.23 105.581 127.349C100.987 128.048 96.2164 128.358 91.755 127.056C87.0799 125.693 82.0027 125.741 77.3543 127.193C77.3911 126.612 78.0419 126.301 78.5996 126.134C82.3575 125.01 86.4242 124.938 90.2192 125.93C91.8984 126.368 93.5318 127.011 95.2512 127.246C96.9562 127.48 98.6877 127.304 100.4 127.128Z" fill="#00160A"/>
<path fill-rule="evenodd" clip-rule="evenodd" d="M81.3961 78.7541C83.7703 78.1528 86.2877 78.1338 88.5826 77.2784C88.7045 77.3721 88.8264 77.4657 88.9483 77.5594C87.874 78.6013 86.209 78.6126 84.7178 78.738C81.883 78.9765 79.1051 79.8671 76.66 81.3212C75.4869 82.0189 74.3569 82.8582 73.0285 83.1715C69.8625 83.9182 66.9487 85.6969 64.8375 88.1715C64.695 87.9234 64.4561 87.7323 64.1827 87.6478C65.8612 86.1654 67.7102 84.8764 69.6816 83.8144C70.874 83.172 72.1093 82.6132 73.3434 82.0549C74.381 81.5856 75.4186 81.1162 76.4561 80.6468C78.065 79.9191 79.6843 79.1876 81.3961 78.7541Z" fill="#00160A"/>
<path fill-rule="evenodd" clip-rule="evenodd" d="M127.739 50.9793C127.325 51.5449 126.937 52.1328 126.465 52.6514C125.841 53.3375 125.084 53.887 124.328 54.4234C122.04 56.0449 119.679 57.607 117.069 58.6304C115.853 59.1072 114.592 59.4633 113.379 59.9477C109.579 61.4658 106.371 64.1996 103.667 67.2716C103.456 67.5105 103.232 67.763 102.927 67.8543C102.622 67.9456 102.221 67.7912 102.176 67.4762C105.355 64.4568 108.624 61.3777 112.645 59.6296C114.437 58.8509 116.342 58.3543 118.125 57.557C119.899 56.7639 121.529 55.6843 123.124 54.5754C124.186 53.8377 125.245 53.078 126.128 52.1347C127.52 50.6498 128.474 48.7187 130.168 47.592C130.374 47.4553 130.735 47.3848 130.796 47.624C129.661 48.6292 128.635 49.7562 127.739 50.9793Z" fill="#00160A"/>
<path fill-rule="evenodd" clip-rule="evenodd" d="M47.8486 63.0743C48.2861 63.9297 49.0743 64.5991 49.9893 64.8922C49.9853 64.9989 49.9814 65.1056 49.9774 65.2123C49.1899 65.6886 48.7661 66.6973 48.9771 67.5931C49.0421 67.8688 48.6478 68.0634 48.3919 67.942C48.1359 67.8207 48.007 67.5378 47.8864 67.2815C47.735 66.9597 47.5605 66.64 47.2979 66.4002C47.0354 66.1605 46.6689 66.0104 46.321 66.0837C46.066 66.1374 45.8327 65.866 45.837 65.6055C45.8413 65.3451 46.0103 65.1166 46.1964 64.9344C46.3825 64.7521 46.5963 64.5917 46.7347 64.371C46.8966 64.1128 46.9385 63.7984 46.9556 63.4942C46.9662 63.3045 46.9704 63.1073 47.056 62.9377C47.1416 62.7681 47.3377 62.6363 47.519 62.6929C47.6841 62.7444 47.7699 62.9203 47.8486 63.0743L47.8486 63.0743Z" fill="#00160A"/>
<path fill-rule="evenodd" clip-rule="evenodd" d="M143.364 130.752C139.967 131.212 136.461 130.857 133.225 129.724C132.668 129.53 132.011 129.142 132.091 128.558C135.258 129.942 138.788 130.485 142.225 130.118C144.514 129.874 146.758 129.235 149.058 129.148C151.663 129.049 154.235 129.659 156.817 130.013C159.4 130.367 162.135 130.444 164.501 129.35C164.722 129.248 164.96 129.133 165.199 129.183C165.437 129.233 165.622 129.545 165.46 129.727C165.41 129.782 165.34 129.813 165.272 129.842C163.372 130.651 161.3 131.052 159.235 131.01C155.921 130.942 152.686 129.752 149.372 129.862C147.347 129.929 145.372 130.481 143.364 130.752Z" fill="#00160A"/>
<path fill-rule="evenodd" clip-rule="evenodd" d="M154.383 71.8894C154.42 72.2031 154.497 72.6422 154.193 72.7291C153.91 72.8101 153.73 72.4461 153.611 72.1765C153.292 71.4512 152.533 70.9416 151.741 70.9206C151.427 70.9123 151.374 70.4168 151.595 70.1935C151.815 69.9701 152.15 69.9169 152.429 69.7733C152.864 69.5495 153.151 69.1043 153.292 68.6363C153.434 68.1683 153.447 67.6727 153.46 67.1839C153.463 67.0603 153.604 66.9754 153.727 66.9915C153.849 67.0076 153.95 67.095 154.031 67.1889C154.584 67.8321 154.512 68.881 155.145 69.4457C155.439 69.7081 155.855 69.8318 156.083 70.1535C155.905 70.3659 155.591 70.377 155.325 70.4565C154.731 70.6347 154.311 71.2727 154.383 71.8894H154.383Z" fill="#00160A"/>
<path fill-rule="evenodd" clip-rule="evenodd" d="M63.8438 69.7435C64.2846 70.0692 64.515 70.602 64.8726 71.0172C65.2515 71.4572 65.7825 71.7637 66.3531 71.8716C65.5454 72.3164 65.0157 73.2251 65.0266 74.1471C65.0292 74.3648 64.9966 74.6632 64.7797 74.6822C64.7238 74.6871 64.6686 74.6685 64.6169 74.6468C63.7672 74.289 63.419 73.0592 62.5033 72.9523C62.1803 72.9147 62.1232 72.4328 62.3104 72.167C62.4976 71.9012 62.8128 71.7522 63.0183 71.5002C63.4328 70.9918 63.3348 70.1572 63.8438 69.7435Z" fill="#00160A"/>
<path fill-rule="evenodd" clip-rule="evenodd" d="M84.7043 58.4593C84.5023 58.5798 84.2342 58.4525 84.087 58.2692C83.9398 58.0858 83.864 57.8543 83.7231 57.666C83.3602 57.181 82.6334 57.0606 82.3132 56.5464C82.2115 56.383 82.17 56.1481 82.3065 56.0125C82.3609 55.9585 82.4346 55.9298 82.5031 55.8953C82.9915 55.6496 83.2369 55.0924 83.3578 54.5592C83.4787 54.026 83.517 53.4641 83.7611 52.9749C83.8218 52.8532 83.9032 52.7301 84.0299 52.6803C84.1565 52.6305 84.3327 52.6943 84.3522 52.829C84.423 53.3193 84.4938 53.8096 84.5645 54.3C84.6055 54.5837 84.6501 54.8775 84.8064 55.1178C84.9627 55.3582 85.2643 55.5294 85.5377 55.4432C85.7278 55.3832 85.8799 55.6516 85.8116 55.8388C85.7432 56.0261 85.5613 56.1419 85.4121 56.2741C85.0402 56.6036 84.8341 57.1116 84.8712 57.6071C84.8942 57.9134 84.968 58.3019 84.7043 58.4593Z" fill="#00160A"/>
<path fill-rule="evenodd" clip-rule="evenodd" d="M51.9762 94.818C52.1982 94.6895 52.4171 95.0782 52.2694 95.2879C52.1216 95.4976 51.8334 95.5364 51.5802 95.5775C49.973 95.8385 48.5872 96.9153 47.6232 98.2276C47.1182 98.9151 46.6959 99.7408 46.8085 100.586C46.8696 101.046 47.0473 101.613 46.6809 101.897C46.254 101.442 46.0071 100.822 46.0043 100.199C45.9993 99.0979 46.7063 98.1317 47.4344 97.3064C48.271 96.3582 49.2825 95.423 50.5396 95.2878C51.0442 95.2335 51.537 95.0724 51.9762 94.818Z" fill="#00160A"/>
<path fill-rule="evenodd" clip-rule="evenodd" d="M132.186 137.645C132.757 137.176 133.142 136.487 133.243 135.754C133.282 135.478 133.726 135.466 133.895 135.688C134.063 135.91 134.04 136.216 134.032 136.495C134.02 136.858 134.051 137.237 134.236 137.549C134.421 137.862 134.795 138.085 135.147 137.996C135.286 137.961 135.415 138.115 135.405 138.257C135.395 138.4 135.291 138.518 135.181 138.608C134.751 138.961 134.106 139.118 133.903 139.636C133.831 139.818 133.829 140.02 133.792 140.213C133.756 140.405 133.668 140.607 133.493 140.695C133.317 140.782 133.051 140.674 133.05 140.478C133.048 139.794 132.707 139.12 132.157 138.713C131.998 138.595 131.807 138.476 131.772 138.281C131.724 138.019 131.98 137.815 132.186 137.645L132.186 137.645Z" fill="#00160A"/>
<path fill-rule="evenodd" clip-rule="evenodd" d="M52.8832 100.821C53.5814 101.345 54.4355 101.658 55.3069 101.71C55.5057 101.722 55.4917 102.021 55.4132 102.205C55.1892 102.727 54.9652 103.25 54.7411 103.773C54.8665 103.955 54.998 104.166 54.9491 104.382C54.9002 104.598 54.5555 104.714 54.4605 104.514C54.0929 103.741 53.1655 103.279 52.3269 103.452C52.3691 103.156 52.5319 102.894 52.6536 102.621C52.9038 102.061 52.9847 101.426 52.8832 100.821Z" fill="#00160A"/>
<path fill-rule="evenodd" clip-rule="evenodd" d="M96.1784 121.965C95.8839 121.243 95.1347 120.73 94.3549 120.718C94.1417 119.959 95.059 119.332 95.1408 118.548C95.1578 118.385 95.1377 118.218 95.1796 118.06C95.2215 117.901 95.3541 117.748 95.5174 117.759C95.7447 118.313 96.154 118.79 96.6666 119.1C96.7998 119.18 96.9447 119.254 97.0341 119.382C97.1235 119.509 97.1304 119.711 97.0024 119.8C96.344 120.255 96.2311 121.166 96.1784 121.965Z" fill="#00160A"/>
<path fill-rule="evenodd" clip-rule="evenodd" d="M67.6139 116.565C67.7216 116.513 67.8465 116.496 67.964 116.52C68.0559 117.316 68.6562 118.03 69.4247 118.258C69.0804 118.951 68.8883 119.719 68.8657 120.493C68.7888 120.555 68.6777 120.487 68.6036 120.422C68.0138 119.9 67.4239 119.379 66.8341 118.857C67.4041 118.251 67.696 117.393 67.6139 116.565Z" fill="#00160A"/>
<path fill-rule="evenodd" clip-rule="evenodd" d="M146.368 109.619C146.271 109.563 146.164 109.509 146.053 109.518C145.952 109.525 145.86 109.583 145.759 109.585C145.658 109.587 145.546 109.48 145.602 109.396C146.569 108.883 146.962 107.724 147.269 106.674C147.32 106.58 147.474 106.606 147.535 106.694C147.595 106.781 147.592 106.896 147.592 107.002C147.595 107.464 147.73 107.933 148.023 108.289C148.317 108.645 148.778 108.873 149.237 108.833C148.54 109.313 147.78 109.893 147.675 110.733C147.313 110.286 146.867 109.906 146.368 109.619H146.368Z" fill="#00160A"/>
<path fill-rule="evenodd" clip-rule="evenodd" d="M70.225 126.89C71.5344 126.362 72.8947 125.799 73.8237 124.737C73.9361 124.608 74.0527 124.465 74.218 124.422C74.3833 124.38 74.5982 124.507 74.5647 124.675C74.4014 125.491 73.5813 125.976 72.8422 126.357C72.3926 126.59 71.9431 126.822 71.4936 127.054C71.2713 127.169 71.0383 127.287 70.788 127.289C70.5377 127.29 70.2672 127.137 70.225 126.89L70.225 126.89Z" fill="#00160A"/>
<path fill-rule="evenodd" clip-rule="evenodd" d="M121.604 125.451C121.777 125.191 122.151 125.187 122.462 125.219C123.921 125.37 125.361 125.705 126.737 126.213C127.841 126.621 128.907 127.141 129.871 127.815C128.878 127.886 127.945 127.396 127.025 127.015C125.765 126.493 124.436 126.16 123.113 125.829C122.61 125.703 122.107 125.577 121.604 125.451Z" fill="#00160A"/>
<path fill-rule="evenodd" clip-rule="evenodd" d="M49.7314 113.1C49.4017 112.297 49.0968 111.484 48.8173 110.662C48.7485 110.46 48.6813 110.257 48.6141 110.055C48.0538 108.366 47.4934 106.677 46.9968 104.968C46.9389 104.769 46.999 104.443 47.1964 104.507C47.2775 104.533 47.3176 104.622 47.3484 104.702C47.9977 106.377 48.6469 108.052 49.2961 109.727C49.733 110.854 50.1773 112.027 50.098 113.233C50.0921 113.324 49.9651 113.362 49.8856 113.318C49.8061 113.274 49.7659 113.184 49.7314 113.1Z" fill="#00160A"/>
<path fill-rule="evenodd" clip-rule="evenodd" d="M74.6061 120.614C74.6741 120.903 74.605 121.351 74.3132 121.298C73.4327 118.12 72.5966 114.93 71.805 111.729C71.7784 111.621 71.7522 111.506 71.7908 111.402C71.8294 111.298 71.9619 111.222 72.0548 111.283C72.1014 111.313 72.1253 111.367 72.1464 111.419C72.836 113.101 73.2555 114.879 73.6723 116.649C73.9836 117.971 74.2949 119.292 74.6061 120.614Z" fill="#00160A"/>
<path fill-rule="evenodd" clip-rule="evenodd" d="M46.4574 88.1766C46.3297 88.2741 46.202 88.3716 46.0743 88.4691C43.2648 86.4035 39.8667 85.148 36.3891 84.8906C36.3406 84.7329 36.3265 84.5649 36.3481 84.4014C39.4917 84.4254 42.6226 85.3775 45.2474 87.1076C45.6994 87.4056 46.1451 87.7343 46.4574 88.1766Z" fill="#00160A"/>
<path fill-rule="evenodd" clip-rule="evenodd" d="M55.7057 148.155C59.6902 146.032 63.1548 142.942 65.7169 139.224C66.2295 138.481 66.7062 137.713 67.1827 136.946C67.3778 136.632 67.5728 136.318 67.7679 136.003C68.0935 136.998 67.4306 138.02 66.8027 138.857C63.9862 142.612 60.9279 146.553 56.5267 148.185C56.2543 148.286 55.9085 148.363 55.7057 148.155V148.155Z" fill="#00160A"/>
<path fill-rule="evenodd" clip-rule="evenodd" d="M74.6333 98.9684C74.9169 98.856 75.2362 98.9832 75.5019 99.1332C76.0769 99.4578 76.6031 99.9233 76.8403 100.54C77.0775 101.156 76.9599 101.936 76.4432 102.347C76.1743 102.561 75.7665 102.51 75.4797 102.321C75.1929 102.132 74.9993 101.834 74.814 101.545C74.433 100.95 74.0354 100.272 74.1825 99.5817C74.2376 99.3231 74.3875 99.0658 74.6333 98.9684H74.6333Z" fill="#FFB61D"/>
<path fill-rule="evenodd" clip-rule="evenodd" d="M22.382 104.624C21.8708 104.508 21.4267 104.129 21.2317 103.643C21.0368 103.156 21.0965 102.576 21.3863 102.139C21.7441 101.6 22.3866 101.324 23.0153 101.172C23.655 101.017 24.3186 100.962 24.975 101.008C25.2253 101.026 25.4854 101.062 25.6923 101.204C25.8521 101.313 25.9669 101.478 26.0525 101.652C26.3412 102.238 26.3115 102.97 25.9762 103.531C25.6409 104.093 25.0105 104.466 24.3572 104.489C23.6941 104.513 23.0291 104.77 22.382 104.624ZM23.2233 103.183C23.7136 103.158 24.2022 103.101 24.6854 103.015C24.8817 102.98 25.0922 102.931 25.2226 102.78C25.3531 102.629 25.337 102.344 25.1492 102.277C24.4307 102.02 23.5941 102.119 22.9558 102.538C22.8082 102.634 22.6552 102.79 22.7008 102.961C22.754 103.159 23.0179 103.194 23.2233 103.183V103.183Z" fill="#00160A"/>
<path fill-rule="evenodd" clip-rule="evenodd" d="M57.3764 89.399C57.4595 89.4043 57.4936 89.5214 57.4521 89.5935C57.4166 89.6553 57.3503 89.69 57.2833 89.7177L52.5088 91.5838C52.3181 91.6583 51.9889 91.6186 52.0476 91.4225C52.0712 91.3436 52.1566 91.3035 52.233 91.273C53.9277 90.5957 55.6433 89.9706 57.3764 89.399Z" fill="#00160A"/>
<path fill-rule="evenodd" clip-rule="evenodd" d="M72.8221 95.8224C72.2463 95.8511 71.6804 96.0292 71.1834 96.3215C70.786 96.5553 70.2836 96.4372 69.8396 96.3128C69.4106 96.1925 68.9816 96.0723 68.5526 95.952C68.5257 95.8219 68.681 95.7357 68.8078 95.6962C70.0633 95.3056 71.379 95.0322 72.6885 95.1502C73.9981 95.2682 75.3089 95.8164 76.1392 96.836C75.0955 96.307 73.9908 95.7641 72.8221 95.8224Z" fill="#00160A"/>
<path fill-rule="evenodd" clip-rule="evenodd" d="M67.7227 99.0815C67.7742 100.094 67.3519 101.122 66.6028 101.805C66.4071 101.984 66.1587 102.149 65.897 102.107C65.6323 102.065 65.4384 101.812 65.3902 101.549C65.3419 101.285 65.4117 101.014 65.5038 100.763C65.7896 99.9813 66.3006 99.2837 66.9595 98.7757C67.1265 98.647 67.3561 98.5272 67.5361 98.6368C67.6793 98.724 67.7142 98.9142 67.7227 99.0815Z" fill="#FFB61D"/>
<path fill-rule="evenodd" clip-rule="evenodd" d="M100.303 141.732C99.2269 141.415 98.0505 140.64 98.1157 139.52C98.1609 138.744 98.7986 138.146 99.4222 137.682C100.279 137.044 101.198 136.491 102.163 136.033C102.818 135.721 103.584 135.345 103.711 134.631C104.451 130.456 107.627 126.814 111.651 125.478C115.676 124.143 120.381 125.154 123.524 128C124.147 128.564 124.916 129.247 125.711 128.974C127.309 128.424 129.096 128.052 130.661 128.688C131.239 128.923 131.823 129.403 131.794 130.026C131.78 130.321 131.628 130.591 131.469 130.84C130.482 132.389 129.055 133.655 127.4 134.451C126.58 134.844 126.043 135.664 125.716 136.513C125.39 137.361 125.236 138.266 124.942 139.127C123.777 142.545 120.383 144.958 116.797 145.386C113.211 145.815 109.546 144.429 106.8 142.083C106.486 141.815 106.097 141.515 105.705 141.645C103.969 142.218 102.057 142.249 100.303 141.732ZM105.77 138.573C105.949 138.659 106.156 138.662 106.355 138.66C110.662 138.609 114.788 137.04 118.807 135.492C120.55 134.82 122.293 134.149 124.037 133.478C124.393 133.34 124.787 133.166 124.921 132.81C125.01 132.575 124.962 132.313 124.901 132.07C124.368 129.946 122.841 128.138 120.935 127.058C119.03 125.978 116.778 125.593 114.593 125.747C111.61 125.957 108.635 127.217 106.708 129.505C104.781 131.793 104.06 135.153 105.243 137.9C105.359 138.167 105.508 138.446 105.77 138.573ZM124.361 136.146C119.337 138.528 113.974 140.192 108.484 141.071C108.102 141.133 107.937 141.642 108.087 141.999C108.237 142.357 108.586 142.584 108.921 142.779C110.945 143.955 113.235 144.737 115.576 144.77C117.917 144.804 120.307 144.046 122.035 142.468C123.764 140.889 124.749 138.455 124.361 136.146ZM99.0149 139.958C99.148 140.363 99.5622 140.602 99.9603 140.755C101.521 141.354 103.259 141.2 104.915 140.975C111.6 140.068 118.146 138.142 124.258 135.286C126.707 134.142 129.193 132.753 130.643 130.472C130.769 130.275 130.89 130.053 130.866 129.82C130.816 129.329 130.205 129.136 129.712 129.113C128.491 129.056 127.282 129.328 126.09 129.598C125.674 129.692 125.155 129.918 125.194 130.343C125.236 130.808 125.89 130.896 126.342 130.776C126.794 130.655 127.353 130.49 127.667 130.837C128.097 131.311 127.505 132.014 126.962 132.352C122.859 134.909 118.217 136.446 113.625 137.96C112.541 138.317 111.455 138.675 110.338 138.904C109.379 139.101 108.403 139.202 107.429 139.303C106.517 139.397 105.606 139.491 104.695 139.585C104.233 139.633 103.753 139.678 103.317 139.52C102.88 139.362 102.504 138.935 102.564 138.474C102.631 137.965 103.152 137.67 103.54 137.334C103.929 136.998 104.194 136.319 103.775 136.021C102.35 136.601 101.012 137.394 99.8208 138.367C99.3299 138.768 98.8171 139.356 99.0149 139.958ZM125.84 132.34C126.219 132.101 126.598 131.862 126.977 131.622C127.092 131.549 127.225 131.43 127.177 131.302C127.134 131.19 126.986 131.17 126.866 131.169C126.52 131.166 126.136 131.178 125.886 131.417C125.641 131.652 125.619 132.082 125.84 132.34ZM103.382 138.398C103.354 138.428 103.325 138.46 103.313 138.499C103.26 138.668 103.523 138.758 103.691 138.702C103.859 138.646 104.049 138.538 104.196 138.635C104.409 138.776 104.708 138.484 104.63 138.241C104.552 137.998 104.243 137.894 103.996 137.959C103.749 138.023 103.555 138.21 103.382 138.398Z" fill="#00160A"/>
<path fill-rule="evenodd" clip-rule="evenodd" d="M73.5071 106.129C73.2212 106.206 72.8702 106.176 72.6941 105.938C72.557 105.753 72.567 105.495 72.6338 105.274C72.7321 104.95 72.9535 104.651 73.2655 104.518C73.5776 104.386 73.9795 104.451 74.193 104.714C74.3889 104.956 74.392 105.321 74.2411 105.593C74.0903 105.866 73.8079 106.049 73.5071 106.129L73.5071 106.129Z" fill="#FFB61D"/>
<path fill-rule="evenodd" clip-rule="evenodd" d="M72.3743 103.939C72.311 104.099 72.185 104.247 72.0161 104.279C71.7357 104.332 71.5037 104.055 71.3994 103.789C71.2996 103.535 71.2514 103.26 71.2586 102.987C71.2608 102.906 71.2827 102.807 71.3611 102.787C71.6669 102.709 72.0121 102.816 72.2204 103.053C72.4287 103.29 72.4906 103.646 72.3743 103.939H72.3743Z" fill="#FFB61D"/>
<path fill-rule="evenodd" clip-rule="evenodd" d="M119.873 143.419C119.689 143.502 119.407 143.527 119.349 143.334C120.003 142.943 120.656 142.551 121.31 142.16C120.969 142.709 120.462 143.153 119.873 143.419Z" fill="#E7EAEE"/>
<path fill-rule="evenodd" clip-rule="evenodd" d="M68.4979 105.265C68.6837 105.48 68.847 105.732 68.871 106.014C68.895 106.297 68.7407 106.61 68.468 106.688C68.2019 106.765 67.9282 106.607 67.7092 106.437C67.4601 106.245 67.2211 106.016 67.118 105.718C67.015 105.42 67.0884 105.042 67.3567 104.877C67.73 104.648 68.211 104.934 68.4979 105.265H68.4979Z" fill="#FFB61D"/>
<path fill-rule="evenodd" clip-rule="evenodd" d="M108.916 141.736C109.196 142.04 109.476 142.344 109.756 142.647C109.8 142.696 109.769 142.79 109.704 142.802C109.155 142.549 108.683 142.134 108.362 141.623C108.461 141.422 108.764 141.572 108.916 141.736L108.916 141.736Z" fill="#E7EAEE"/>
<path fill-rule="evenodd" clip-rule="evenodd" d="M28.4793 130.521C28.2154 130.218 27.9671 129.868 27.9437 129.468C27.9286 129.209 28.01 128.953 28.1216 128.719C28.5653 127.789 29.4976 127.141 30.5041 126.92C31.5106 126.699 32.5779 126.875 33.5229 127.286C33.8662 127.436 34.2082 127.626 34.4267 127.93C34.7685 128.405 34.7321 129.075 34.4763 129.601C34.2205 130.128 33.7795 130.538 33.332 130.916C32.9198 131.263 32.4735 131.604 31.9467 131.719C31.6633 131.781 31.3699 131.775 31.0798 131.768C30.789 131.761 30.496 131.754 30.2123 131.69C29.5208 131.534 28.9454 131.055 28.4793 130.521ZM30.395 128.741C30.155 128.511 29.7743 128.273 29.527 128.496C29.3152 128.686 29.1512 128.929 29.054 129.197C29.5364 129.214 30.023 129.048 30.395 128.741ZM31.0948 127.616C30.8018 127.686 30.4972 127.762 30.2671 127.957C30.4293 128.122 30.6166 128.278 30.8428 128.326C31.069 128.375 31.3395 128.283 31.4279 128.069C31.5162 127.855 31.3197 127.562 31.0948 127.616M31.8961 129.617C31.8739 129.793 31.8524 129.976 31.9102 130.144C31.9681 130.312 32.1309 130.458 32.3068 130.434C32.559 130.4 32.6695 130.07 32.9109 129.99C32.6015 129.801 32.2545 129.673 31.8961 129.617ZM33.0355 128.18C33.2311 128.239 33.4603 128.07 33.4611 127.866C32.9757 127.695 32.3794 127.961 32.1825 128.437C32.4804 128.498 32.8065 128.396 33.0167 128.176M31.3392 130.259C31.3154 130.2 31.2802 130.138 31.2202 130.116C31.0255 130.046 30.9756 130.408 30.7934 130.506C30.6216 130.599 30.6462 130.891 30.8169 130.986C30.9876 131.081 31.2203 130.991 31.3217 130.824C31.4231 130.657 31.412 130.441 31.3392 130.259M29.9068 129.811C29.7312 129.961 29.4109 129.892 29.2891 130.089C29.1827 130.26 29.3564 130.5 29.5577 130.517C29.759 130.533 29.9424 130.394 30.0625 130.231C30.1284 130.142 30.1841 130.033 30.1591 129.925C30.134 129.817 29.991 129.739 29.9068 129.811M33.5458 129.171C33.6106 129.106 33.6754 129.04 33.7403 128.975C33.5721 128.812 33.3007 128.85 33.0717 128.899C33.001 128.915 32.9254 128.932 32.8767 128.986C32.7637 129.11 32.8991 129.327 33.0656 129.351C33.232 129.374 33.3892 129.277 33.5296 129.185L33.5458 129.171Z" fill="#00160A"/>
<path fill-rule="evenodd" clip-rule="evenodd" d="M118.784 92.7049C118.11 92.0939 117.436 91.4829 116.762 90.872C116.542 90.6729 116.357 90.2476 116.638 90.1525C116.929 90.7011 117.579 90.9634 118.195 91.0349C118.812 91.1065 119.44 91.0318 120.055 91.1172C120.638 91.1982 121.19 91.4199 121.744 91.6197C124.796 92.7219 128.043 93.1969 131.112 94.2507C131.292 94.3126 131.498 94.4053 131.536 94.5917C131.579 94.8001 131.383 94.9773 131.197 95.0799C130.24 95.6062 128.947 95.4271 128.169 94.6605C127.794 94.291 127.179 94.5483 126.673 94.6906C125.739 94.9527 124.745 94.7281 123.802 94.5031C122.803 94.2649 121.805 94.0268 120.806 93.7886C120.458 93.7056 120.106 93.6213 119.786 93.4608C119.411 93.2724 119.095 92.9869 118.784 92.7049ZM130.039 94.856C130.198 94.7843 130.017 94.557 129.853 94.4985C128.24 93.9229 126.602 93.3601 124.898 93.1966C124.013 93.1118 123.14 92.911 122.308 92.6011C121.192 92.1856 120.059 91.5623 118.886 91.7623C118.987 92.4003 119.603 92.8406 120.225 93.0128C120.848 93.1851 121.508 93.1635 122.142 93.2858C122.938 93.4392 123.672 93.8141 124.445 94.0579C125.219 94.3016 126.096 94.4036 126.813 94.0252C127.321 93.7571 127.949 93.9254 128.464 94.1798C128.979 94.4341 129.47 94.7749 130.039 94.856Z" fill="#00160A"/>
<path fill-rule="evenodd" clip-rule="evenodd" d="M171.136 101.85C171.645 101.447 172.153 101.043 172.661 100.64C172.807 100.525 172.965 100.404 173.15 100.388C173.422 100.364 173.656 100.568 173.85 100.761C174.518 101.427 175.152 102.127 175.749 102.857C175.894 103.035 175.711 103.288 175.54 103.441C174.976 103.944 174.412 104.448 173.848 104.951C173.706 105.078 173.553 105.211 173.364 105.245C173.072 105.297 172.8 105.098 172.569 104.911C172.08 104.516 171.591 104.12 171.103 103.724C170.809 103.487 170.491 103.201 170.48 102.824C170.468 102.417 170.817 102.102 171.136 101.85ZM173.693 101.912C173.547 101.749 173.377 101.574 173.158 101.564C172.988 101.556 172.832 101.651 172.688 101.743C172.432 101.907 172.176 102.072 171.92 102.236C171.82 102.3 171.715 102.369 171.658 102.475C171.514 102.743 171.751 103.051 171.97 103.262C172.291 103.573 172.612 103.884 172.934 104.195C173.032 104.29 173.149 104.392 173.286 104.379C173.382 104.37 173.463 104.303 173.534 104.239C173.809 103.991 174.061 103.719 174.286 103.425C174.445 103.218 174.588 102.911 174.414 102.716C174.174 102.448 173.934 102.18 173.693 101.912V101.912Z" fill="#FFB61D"/>
<path fill-rule="evenodd" clip-rule="evenodd" d="M138.466 74.7091C140.469 78.5762 139.868 83.2189 139.215 87.525C142.995 89.4438 146.255 92.3742 148.565 95.9286C149.283 97.0337 149.931 98.3733 149.519 99.625C149.019 101.144 147.238 101.775 145.666 102.066C141.729 102.796 137.64 102.69 133.747 101.757C132.277 101.405 130.6 100.97 129.357 101.831C123.878 105.628 116.287 105.958 110.338 102.948C104.39 99.9378 100.216 93.8155 99.2429 87.2201C99.0571 85.9608 97.9336 85.0903 96.9335 84.3027C93.5105 81.6069 90.5602 78.3125 88.2569 74.614C87.2944 73.0684 86.4221 71.1755 87.106 69.488C87.896 67.5384 90.3283 66.8963 92.4301 66.8093C97.1002 66.6159 101.821 67.9182 105.731 70.4786C108.421 67.132 112.315 64.7743 116.527 63.9414C120.739 63.1085 125.237 63.8069 128.998 65.8778C130.866 66.9064 132.542 68.2509 134.141 69.662C135.812 71.1366 137.441 72.7301 138.466 74.7091ZM141.787 97.0086C140.954 98.2873 139.231 98.5985 137.706 98.6393C133.073 98.7631 128.529 97.4897 124.069 96.2275C120.959 95.3472 117.834 94.4617 114.897 93.1124C113.114 92.2932 111.412 91.3085 109.732 90.2943C103.727 86.669 97.5994 82.1826 95.3802 75.5281C94.9467 74.2283 95.8208 72.7532 97.0574 72.1632C98.2941 71.5732 99.7631 71.7047 101.071 72.1119C101.751 72.3233 102.434 72.6085 103.144 72.5579C103.853 72.5073 104.596 71.9732 104.574 71.2622C104.551 70.5139 103.765 70.0542 103.075 69.7641C99.1708 68.1227 94.8755 67.1881 90.681 67.7751C89.793 67.8994 88.8497 68.127 88.2571 68.7999C87.1839 70.0185 87.81 71.9227 88.5889 73.3474C91.8674 79.3445 96.9685 84.2032 102.672 87.9689C108.376 91.7346 114.692 94.4713 121.064 96.9423C128.78 99.9344 137.009 102.606 145.196 101.402C146.015 101.281 146.85 101.114 147.551 100.674C148.252 100.235 148.801 99.4665 148.764 98.6396C148.739 98.0813 148.46 97.5692 148.171 97.0909C145.947 93.4108 142.711 90.3489 138.914 88.3308C138.73 89.0329 138.545 89.735 138.36 90.4371C139.516 91.1921 140.702 91.9764 141.481 93.1158C142.26 94.2553 142.54 95.8517 141.787 97.0086ZM138.027 87.7033C138.242 87.4999 138.328 87.1981 138.398 86.9106C139.158 83.8197 139.21 80.5569 138.549 77.4434C137.333 77.7372 136.118 78.0311 134.902 78.3249C134.324 78.4647 133.739 78.6053 133.144 78.6039C132.422 78.6022 131.718 78.3917 131.005 78.278C129.41 78.0239 127.782 78.2558 126.183 78.4877C125.565 78.5773 124.954 78.3118 124.407 78.0103C120.565 75.8913 118.064 71.7846 114.099 69.9055C113.677 69.7051 113.234 69.5278 112.877 69.2247C112.153 68.6086 111.888 67.5606 111.122 66.9971C111.715 69.4156 113.606 71.2961 115.602 72.7857C117.597 74.2752 119.8 75.5321 121.484 77.367C122.346 78.307 123.656 78.6935 124.92 78.8653C126.184 79.0371 127.48 79.038 128.705 79.3935C129.638 79.664 130.545 80.141 131.515 80.0912C132.416 80.045 133.224 79.55 134.082 79.2717C135.337 78.8644 136.69 78.9252 138.008 78.9903C138.274 79.0035 138.614 79.0787 138.653 79.3424C138.699 79.6586 138.271 79.8035 137.951 79.8075C136.401 79.8269 134.681 79.4659 133.426 80.3756C132.455 81.079 131.125 81.0275 129.964 80.7292C128.803 80.4308 127.692 79.9171 126.5 79.7832C125.654 79.6882 124.792 79.7884 123.952 79.6511C121.605 79.2677 119.984 77.1967 118.151 75.682C116.744 74.5182 115.121 73.6392 113.691 72.502C112.262 71.3648 110.987 69.8747 110.671 68.0755C110.589 67.6097 109.883 67.7418 109.482 67.9929C108.5 68.6081 107.507 69.2325 106.708 70.0723C105.91 70.9122 105.314 72.0048 105.306 73.1637C105.295 74.7751 106.558 76.3024 108.143 76.5932C109.485 76.8395 109.466 79.3556 110.829 79.4152C111.706 79.4534 112.162 80.4354 112.554 81.2197C112.946 82.0041 113.842 82.8242 114.581 82.3528C115.063 82.046 115.675 82.3894 116.176 82.6626C116.677 82.9359 117.44 83.0697 117.702 82.5629C116.67 82.3866 116.112 80.9554 116.752 80.1269C117.235 79.5027 118.107 79.3479 118.895 79.3278C119.82 79.3041 120.785 79.4144 121.567 79.9094C122.348 80.4043 122.891 81.3632 122.67 82.2612C122.412 83.3036 122.608 84.4496 123.197 85.3473C123.673 85.0415 124.149 84.7357 124.624 84.4299C125.263 84.0196 125.925 83.6 126.674 83.4777C127.423 83.3554 128.288 83.6098 128.655 84.2742C129.022 84.9396 128.794 85.7622 128.558 86.4847C129.816 86.014 131.308 86.231 132.381 87.0404C133.792 88.1063 135.707 88.472 137.412 88.0013C137.634 87.9401 137.86 87.8613 138.027 87.7033ZM131.119 68.3948C130.879 68.2579 130.577 68.1264 130.341 68.2706C129.501 68.7847 128.423 68.6793 127.473 68.4154C126.524 68.1516 125.598 67.7447 124.614 67.7035C123.873 67.6725 123.138 67.8517 122.396 67.8519C120.635 67.8525 119.045 66.8623 117.566 65.9062C117.376 65.7835 117.177 65.6501 117.082 65.4449C116.987 65.2396 117.053 64.9438 117.268 64.8751C118.776 66.5037 121.082 67.3552 123.287 67.0973C123.892 67.0265 124.495 66.8772 125.103 66.92C125.97 66.981 126.756 67.4229 127.582 67.691C128.409 67.959 129.416 68.0159 130.048 67.4204C125.038 63.5947 117.673 63.1792 112.264 66.417C112.181 66.4672 112.085 66.5511 112.119 66.6426C112.669 68.1215 114.215 68.9241 115.546 69.7728C118.559 71.6954 120.955 74.4334 123.755 76.6557C124.609 77.3337 125.663 77.9979 126.719 77.7268C128.23 77.3388 129.828 77.2929 131.359 77.5933C132.032 77.7254 132.701 77.9243 133.387 77.9125C134.799 77.8882 136.106 76.9769 137.514 77.0726C137.924 77.1004 138.252 76.678 138.273 76.2677C138.293 75.8575 138.093 75.4714 137.887 75.1161C136.275 72.333 133.913 69.9883 131.119 68.3948ZM108.856 97.1194C110.112 97.8805 111.784 97.3388 113.159 97.8569C113.826 98.1082 114.417 98.6069 115.128 98.6549C115.753 98.6971 116.362 98.3774 116.987 98.4252C117.58 98.4706 118.092 98.8366 118.599 99.1485C120.615 100.388 123.053 100.924 125.402 100.645C126.02 100.572 126.585 100.963 127.177 101.153C127.769 101.344 128.616 101.177 128.698 100.56C125.321 99.5996 122.066 98.2597 118.82 96.9227C112.1 94.155 105.277 91.3281 99.6065 86.7819C99.9426 87.8837 100.279 88.9855 100.615 90.0873C101.033 91.4597 101.454 92.8377 102.067 94.1348C104.494 99.2689 109.772 102.632 115.297 103.942C117.738 104.521 120.344 104.743 122.728 103.96C121.14 103.828 119.979 102.419 118.501 101.825C116.976 101.212 115.099 101.46 113.82 100.428C112.265 99.1728 109.548 99.5999 108.544 97.8724C108.356 97.5494 108.536 96.9258 108.856 97.1194M105.449 80.3456C105.464 81.1468 105.917 81.9264 106.605 82.3362C106.934 82.5316 107.317 82.6533 107.578 82.9328C107.887 83.2641 107.955 83.7966 107.739 84.1949C107.377 84.8645 106.459 84.9687 105.705 84.8673C105.29 84.8116 104.872 84.7161 104.511 84.5038C104.032 84.222 103.692 83.7604 103.314 83.353C102.498 82.4738 101.451 81.8115 100.307 81.4514C100.395 82.3243 101.103 82.9893 101.778 83.5498C104.715 85.9892 107.917 88.0908 111.19 90.0565C112.259 90.6984 113.337 91.3268 114.449 91.8904C118.525 93.9563 122.987 95.1185 127.41 96.266C129.009 96.6808 130.608 97.0956 132.207 97.5104C132.428 97.5677 132.663 97.6247 132.88 97.5539C133.114 97.4774 133.276 97.2689 133.422 97.0707C134.467 95.6528 135.462 94.1983 136.404 92.7106C136.45 92.6389 136.497 92.5583 136.482 92.4748C136.462 92.3628 136.344 92.3012 136.24 92.2563C134.521 91.5172 132.803 90.7782 131.085 90.0391C130.777 89.9063 130.455 89.771 130.119 89.7824C129.719 89.7959 129.359 90.0147 128.981 90.1478C126.627 90.9765 124.201 88.4438 121.747 88.8974C120.938 89.0469 120.226 89.5105 119.447 89.775C118.668 90.0394 117.693 90.0525 117.145 89.4402C116.827 89.0856 116.72 88.5966 116.533 88.1584C116.347 87.7203 116 87.2776 115.524 87.2582C115.291 87.2487 115.068 87.3445 114.838 87.3886C113.934 87.5625 113.071 86.9215 112.497 86.2022C111.922 85.4829 111.478 84.6316 110.73 84.0944C109.879 83.483 108.734 83.3565 107.942 82.6697C107.14 81.9735 106.839 80.8167 106.003 80.1607C105.858 80.047 105.627 79.9591 105.509 80.1002C105.453 80.1661 105.448 80.2595 105.449 80.3456ZM127.61 86.7678C127.441 86.2256 128.074 85.7178 128.022 85.1522C127.959 84.4555 126.993 84.2862 126.319 84.474C125.672 84.6543 125.067 84.9838 124.564 85.4296C123.985 85.9434 123.2 86.6567 122.581 86.1919C122.418 86.0697 122.316 85.8848 122.227 85.7015C121.667 84.5383 121.483 83.1973 121.71 81.9264C121.823 81.295 121.336 80.6803 120.747 80.4273C120.158 80.1742 119.492 80.1967 118.851 80.2235C118.444 80.2405 118.003 80.2706 117.697 80.5381C117.39 80.8055 117.361 81.4009 117.736 81.5586C118.281 81.788 118.586 82.4722 118.391 83.0308C117.758 83.6584 116.732 83.5688 115.851 83.4354C115.168 83.3321 114.485 83.2288 113.803 83.1254C113.305 83.05 112.777 82.9617 112.397 82.6316C111.653 81.9862 111.663 80.5935 110.728 80.2833C110.477 80.2 110.201 80.22 109.948 80.1416C108.684 79.7493 108.888 77.3942 107.584 77.1696C105.517 76.8136 104.043 74.4554 104.629 72.441C102.713 74.9226 101.214 77.7259 100.215 80.6977C101.549 80.9634 102.799 81.6414 103.748 82.6154C104.224 83.1033 104.649 83.6796 105.271 83.9572C105.893 84.2349 106.799 84.036 106.969 83.3763C106.184 83.2937 105.538 82.7049 105.108 82.0433C104.813 81.5894 104.585 81.0664 104.607 80.5253C104.628 79.9842 104.949 79.4306 105.463 79.262C106.148 79.0376 106.867 79.545 107.276 80.1377C107.686 80.7305 107.935 81.4394 108.443 81.9502C108.956 82.4666 109.67 82.7168 110.32 83.0451C111.305 83.5421 112.183 84.2489 112.879 85.1046C113.363 85.7002 113.843 86.4212 114.6 86.5497C115.293 86.6675 116.064 86.2419 116.676 86.5874C117.586 87.1011 117.288 88.8374 118.29 89.1366C118.73 89.2682 119.182 89.0183 119.595 88.8169C121.523 87.878 123.892 87.9032 125.799 88.883C126.303 89.1422 126.797 89.4705 127.362 89.524C128.273 89.6104 129.098 88.9648 130.009 88.872C131.059 88.7648 132.022 89.3939 132.947 89.9033C133.976 90.4697 135.071 90.9156 136.203 91.229C136.402 91.284 136.616 91.3345 136.81 91.2658C137.049 91.1813 137.193 90.9409 137.3 90.711C137.593 90.0811 137.762 89.3938 137.795 88.6999C135.842 89.0144 133.595 89.2504 132.114 87.938C131.393 87.2985 130.381 87.0004 129.428 87.1466C128.754 87.2499 127.814 87.4183 127.61 86.7678M97.233 77.3255C97.8442 78.3202 98.4554 79.3148 99.0667 80.3095C99.1414 80.4311 99.2685 80.571 99.3991 80.5137C99.4761 80.4799 99.5096 80.3912 99.5359 80.3114C100.307 77.9668 101.395 75.7267 102.761 73.6712C102.857 73.5266 102.661 73.3671 102.5 73.3029C102.021 73.1123 101.542 72.9213 101.045 72.7823C100.075 72.5106 99.0487 72.4426 98.0513 72.584C97.3545 72.6829 96.5908 72.9493 96.2968 73.5886C96.1615 73.8826 96.1468 74.2177 96.1685 74.5406C96.2007 75.0194 96.3083 75.493 96.4862 75.9386C96.6811 76.4269 96.9577 76.8776 97.233 77.3255ZM140.785 97.1513C141.499 96.75 141.727 95.7781 141.506 94.9888C141.286 94.1996 140.72 93.5582 140.146 92.9735C139.516 92.3316 138.854 91.7208 138.163 91.1442C137.017 93.3505 135.71 95.4735 134.257 97.4909C134.164 97.6195 134.245 97.8135 134.381 97.8952C134.517 97.9769 134.685 97.9773 134.843 97.974C136.571 97.938 138.295 97.7473 139.988 97.4049C140.263 97.3495 140.541 97.2883 140.785 97.1513ZM111.71 98.6143C112.732 98.6993 113.534 99.4916 114.456 99.94C116.179 100.778 118.369 100.424 119.937 101.526C120.419 101.865 120.813 102.326 121.325 102.619C121.879 102.936 122.53 103.032 123.165 103.094C124.452 103.219 125.93 103.155 126.781 102.182C126.83 102.127 126.876 102.068 126.897 101.997C127.002 101.642 126.466 101.484 126.096 101.505C123.157 101.671 120.057 101.219 117.679 99.4832C117.057 99.0284 116.199 99.4792 115.428 99.4959C114.633 99.5132 113.92 99.0521 113.188 98.7407C112.169 98.3068 111.032 98.1513 109.933 98.2954C110.358 98.7463 111.092 98.5629 111.71 98.6143Z" fill="#00160A"/>
<path fill-rule="evenodd" clip-rule="evenodd" d="M67.581 93.2327C67.1915 92.9201 67.0416 92.4065 66.8118 91.963C66.0388 90.4711 64.257 89.7255 62.5768 89.7143C60.8965 89.7032 59.2781 90.2958 57.7028 90.8805C55.1921 91.8124 52.6814 92.7443 50.1706 93.6762C47.8306 94.5447 45.2605 95.6205 44.2392 97.898C43.2679 100.064 44.0377 102.573 44.8144 104.816C46.6854 110.219 48.5563 115.622 50.4272 121.025C50.6654 121.713 51.1038 122.54 51.8291 122.477C57.3371 122.002 62.8607 126.176 63.9085 131.604C67.3795 130.844 70.7326 129.549 73.8123 127.777C74.6582 127.29 75.5121 126.74 76.0329 125.914C76.9845 124.406 76.5792 122.449 76.1422 120.721C75.3392 117.544 74.5363 114.368 73.7333 111.192C71.552 111.116 69.3105 110.839 67.4053 109.774C63.9753 107.856 62.2883 103.323 63.5897 99.6151C64.8911 95.9072 69.0038 93.4274 72.8967 93.9644C76.7895 94.5014 80.0648 97.9676 80.4242 101.881C80.7836 105.794 78.2242 109.779 74.5307 111.12C75.199 113.623 75.8672 116.125 76.5355 118.628C77.0121 120.412 77.4925 122.229 77.4277 124.075C77.3256 126.985 75.8885 129.663 74.4154 132.175C69.9949 139.712 64.4305 147.264 56.2573 150.353C53.2604 151.486 50.0545 151.954 46.8627 152.231C45.1967 152.375 43.5061 152.468 41.8625 152.16C39.9942 151.809 38.2602 150.953 36.6102 150.009C23.7446 142.65 14.6379 129.063 12.7191 114.366C12.517 112.818 12.3878 111.249 11.9386 109.753C11.53 108.393 10.8634 107.118 10.4842 105.749C9.67423 102.825 10.2885 99.5412 12.1006 97.1075C13.0666 95.8103 13.2576 94.115 13.7866 92.5866C14.293 91.1239 15.1333 89.778 16.2251 88.6809C17.422 87.4782 18.8958 86.5894 20.4006 85.8056C28.1262 81.7813 37.1335 80.2654 45.7508 81.539C54.3681 82.8127 62.5517 86.8695 68.7829 92.9565C68.7147 93.4512 67.9705 93.5453 67.581 93.2327ZM56.0202 128.401C55.4281 127.688 54.8475 126.938 54.5539 126.058C54.2604 125.179 54.2995 124.138 54.8721 123.41C54.575 123.088 54.0489 123.009 53.6703 123.229C53.2918 123.448 53.0992 123.944 53.2304 124.362C53.4737 125.136 52.9579 126.061 52.1715 126.261C52.6449 125.327 52.7995 124.236 52.604 123.207C52.59 123.133 52.57 123.053 52.5092 123.01C52.3803 122.917 52.2128 123.06 52.1311 123.196C51.6443 124.009 51.6689 125.049 51.9741 125.946C52.2792 126.843 52.8348 127.63 53.383 128.403C54.7603 127.954 56.4214 128.88 56.7649 130.287C57.0625 131.506 58.2799 132.345 59.5246 132.506C60.7692 132.667 62.0227 132.266 63.1495 131.713C61.1345 131.441 59.0101 131.125 57.4234 129.854C56.897 129.432 56.4512 128.92 56.0202 128.401ZM14.7299 104.557C13.6996 102.178 13.1652 99.6105 12.8629 97.0358C11.209 99.4065 10.5579 102.454 11.0985 105.293C11.6391 108.133 13.3644 110.728 15.7737 112.325C16.531 112.827 16.6664 113.856 16.8359 114.749C17.2472 116.915 18.2551 118.915 19.2516 120.882C21.1771 124.682 23.1262 128.52 25.8545 131.792C27.5366 133.81 29.8499 135.719 32.465 135.471C35.2895 135.203 37.3279 132.392 37.6959 129.579C38.0639 126.766 37.1631 123.958 36.2742 121.264C35.3014 118.316 34.3286 115.367 33.3558 112.418C33.2398 112.067 33.1402 111.632 33.3965 111.365C34.9796 109.714 35.4068 107.214 35.0483 104.955C34.6899 102.696 33.6475 100.611 32.6078 98.5738C32.2419 98.6962 32.2573 99.2095 32.3134 99.5912C32.7327 102.447 31.2371 105.389 28.9125 107.1C26.588 108.812 23.562 109.391 20.6877 109.122C19.5984 109.021 18.4951 108.796 17.5581 108.231C16.2127 107.419 15.3543 105.998 14.7299 104.557ZM45.2585 140.337C44.0383 139.478 43.0767 138.305 42.1912 137.104C40.7678 135.174 39.4984 133.13 38.3989 130.999C37.8432 132.573 36.8482 133.989 35.556 135.046C34.0755 136.257 31.8976 136.325 30.1137 135.636C28.3298 134.946 26.8747 133.611 25.5827 132.201C20.958 127.153 17.8871 120.818 16.0536 114.223C15.8664 113.549 15.6586 112.821 15.1026 112.397C14.5466 111.973 13.5355 112.121 13.3932 112.806C13.3628 112.952 13.3753 113.104 13.3879 113.253C13.6057 115.829 13.827 118.425 14.5446 120.909C14.8899 122.105 15.3476 123.264 15.8148 124.417C17.5288 128.648 19.406 132.865 22.1466 136.515C25.7726 141.345 30.7391 144.966 35.6281 148.512C37.4537 149.836 39.6366 151.231 41.8035 150.606C42.6848 150.352 43.4398 149.784 44.1289 149.178C46.4974 147.098 48.3483 144.433 49.4703 141.487C47.9963 141.717 46.4786 141.195 45.2585 140.337ZM34.0811 89.6465C31.9898 88.0665 29.7017 86.6734 27.1646 86.0153C24.6275 85.3573 21.8034 85.4992 19.5485 86.8353C18.7725 87.2952 18.0789 87.8844 17.4471 88.5282C15.3031 90.713 13.8337 93.649 13.7877 96.7096C13.7634 98.327 14.1274 99.9239 14.5432 101.487C14.944 102.993 15.4076 104.514 16.2858 105.801C17.1639 107.089 18.5254 108.13 20.0778 108.271C22.5137 108.491 25.0499 108.188 27.2033 107.029C29.3567 105.869 31.0758 103.774 31.4254 101.354C31.6808 99.5852 31.2149 97.7948 31.2216 96.0079C31.2249 95.1401 31.3405 94.2729 31.5646 93.4346C31.768 92.6737 32.0745 91.915 32.6284 91.3551C33.1823 90.7951 34.0259 90.4707 34.7787 90.7021C34.8174 90.2623 34.4333 89.9126 34.0811 89.6465ZM67.237 131.318C64.5953 132.136 61.9536 132.954 59.3119 133.772C57.4961 134.334 55.6526 134.901 53.7525 134.955C51.8524 135.008 49.8551 134.484 48.5151 133.136C49.2413 134.896 50.4945 136.435 52.0712 137.504C52.4718 137.775 52.3149 138.391 52.115 138.832C50.9808 141.332 49.8373 143.848 48.2609 146.095C46.6846 148.342 44.6316 150.329 42.1052 151.402C42.7029 151.652 43.3396 151.809 43.9852 151.865C44.9034 151.944 45.8256 151.82 46.7388 151.696C50.7439 151.153 54.8405 150.583 58.4268 148.719C61.5914 147.074 64.1713 144.519 66.6972 142.001C68.7718 139.933 70.9339 137.712 71.6193 134.864C72.2903 132.075 75.4332 130.274 75.7316 127.422C73.313 129.419 70.233 130.391 67.237 131.318ZM35.4726 102.663C36.175 104.73 36.3733 107.044 35.5755 109.076C35.1195 110.238 34.3415 111.326 34.3233 112.574C34.3149 113.158 34.477 113.729 34.6505 114.286C36.1387 119.065 38.5989 123.677 38.6615 128.682C38.6762 129.864 39.2474 130.961 39.845 131.981C40.9895 133.935 42.2846 135.8 43.7148 137.556C44.8782 138.983 46.2437 140.407 48.0355 140.833C48.4947 140.942 48.9928 140.978 49.4265 140.792C50.2104 140.455 50.5341 139.538 50.7738 138.719C50.8941 138.308 50.9919 137.803 50.685 137.504C48.4507 135.334 46.7959 132.572 45.9358 129.578C45.7046 128.773 45.5255 127.941 45.1205 127.208C44.8792 126.772 44.5634 126.381 44.2987 125.958C43.6328 124.895 43.3077 123.66 42.9724 122.45C41.7023 117.871 40.1574 113.367 38.3489 108.971C37.8141 107.672 37.6464 106.255 37.4839 104.859C37.4295 104.391 37.3751 103.924 37.3207 103.456C37.0969 101.533 36.8855 99.5117 37.6243 97.7221C38.2773 96.1402 37.6308 94.3169 36.7196 92.8683C36.2129 92.0629 35.4646 91.2303 34.5145 91.2818C33.5203 91.3357 32.8606 92.3255 32.4895 93.2495C32.0207 94.4165 31.7655 95.8155 32.4352 96.88C33.5975 98.7276 34.7702 100.597 35.4726 102.663ZM34.7113 89.2604C36.3947 90.666 37.8638 92.4265 38.4989 94.5256C38.6389 94.9882 39.0522 95.5957 39.4416 95.3094C41.5111 93.7879 43.9387 92.8447 46.3346 91.9186C47.3593 91.5225 48.3839 91.1265 49.4086 90.7304C52.7863 89.4248 56.2112 88.1075 59.8108 87.7123C57.6499 85.8903 55.0406 84.6699 52.3634 83.7636C45.4691 81.4296 37.9119 81.091 30.8365 82.7991C30.1615 82.9621 29.4897 83.1435 28.8378 83.3828C27.417 83.9043 26.0834 84.7019 24.5936 84.9688C28.2894 85.3643 31.8582 86.8781 34.7113 89.2604ZM41.3022 110.352C42.2701 110.784 43.6769 109.504 44.3089 110.354C43.1625 110.841 41.9739 111.228 40.7608 111.509C40.5122 111.567 40.5125 111.919 40.5752 112.167C41.0534 114.055 41.7431 115.889 42.6273 117.625C43.5563 117.079 44.8054 117.396 45.6113 118.112C46.4172 118.828 46.8667 119.857 47.2274 120.872C47.5378 121.746 47.8007 122.637 48.0147 123.54C48.3509 124.958 48.4161 126.765 47.1794 127.536C46.7282 127.817 46.9301 128.507 47.1829 128.975C47.7768 130.074 48.3845 131.185 49.2504 132.085C51.549 134.474 55.634 134.861 58.3399 132.946C56.1491 132.431 54.1631 131.09 52.868 129.249C51.9741 127.979 51.4145 126.509 50.8711 125.055C48.5023 118.712 46.2702 112.318 44.1769 105.88C43.6701 104.321 43.1678 102.741 43.0514 101.106C42.9351 99.4712 43.2399 97.7516 44.2161 96.435C45.437 94.7882 47.4815 94.0149 49.4115 93.3239C53.7305 91.7778 58.0496 90.2316 62.3686 88.6854C60.0433 87.7416 57.4155 88.5522 55.0414 89.3655C50.4996 90.9214 45.9446 92.4827 41.6255 94.5789C40.8534 94.9537 40.0773 95.3538 39.4577 95.9477C37.582 97.7458 37.6394 100.751 38.1985 103.289C38.2279 103.422 38.2693 103.571 38.3887 103.638C38.4881 103.693 38.6108 103.674 38.7227 103.652C39.6508 103.476 40.579 103.299 41.5071 103.123C42.4178 102.95 43.1249 103.899 43.4825 104.754C43.9894 105.966 44.3065 107.258 44.4187 108.567C44.4427 108.847 44.4454 109.163 44.252 109.366C44.0587 109.57 43.613 109.488 43.6189 109.207C43.6362 108.379 43.5597 107.548 43.3915 106.736C43.197 105.798 42.8441 104.834 42.0932 104.239C41.3423 103.645 40.1047 103.59 39.5085 104.339C41.0547 105.877 41.7532 108.219 41.3022 110.352ZM75.4074 108.27C75.4927 107.024 76.4088 105.876 77.6055 105.516C78.3246 105.299 78.8253 104.609 79.0037 103.88C79.1822 103.15 79.0886 102.383 78.9506 101.645C78.5098 99.2885 77.4909 96.8563 75.4402 95.6144C73.2167 94.2679 70.3506 94.654 67.9001 95.5212C66.8321 95.8992 65.7219 96.4211 65.1609 97.4054C64.8159 98.0109 64.7211 98.7224 64.6329 99.4137C64.4525 100.827 64.2718 102.254 64.4021 103.674C64.5324 105.093 65.0014 106.523 65.9697 107.568C66.644 108.297 67.6774 108.828 68.6209 108.52C69.3604 108.279 70.0387 108.966 70.7389 109.305C71.6947 109.767 72.823 109.576 73.8655 109.375C74.536 109.245 75.3608 108.952 75.4074 108.27ZM46.9898 123.36C46.8153 122.794 46.6408 122.228 46.4663 121.661C46.0968 120.462 45.6876 119.199 44.7472 118.368C44.3718 118.037 43.8036 117.789 43.3851 118.064C42.96 118.344 42.9703 118.961 43.0467 119.464C43.3486 121.454 43.9338 123.4 44.7791 125.226C45.0632 125.839 45.3872 126.454 45.8893 126.907C46.0139 127.019 46.1558 127.124 46.3214 127.151C46.6744 127.21 46.9839 126.9 47.1425 126.58C47.6311 125.592 47.3143 124.414 46.9898 123.36ZM62.0199 129.317C60.3868 129.111 58.8585 128.18 57.927 126.823C57.5781 126.315 57.3071 125.74 57.233 125.128C57.1892 124.766 57.2116 124.386 57.0574 124.056C56.9032 123.726 56.4753 123.482 56.1706 123.681C56.1646 124.674 56.1758 125.73 56.7116 126.565C56.8962 126.853 57.1356 127.101 57.3736 127.347C58.1199 128.117 58.8754 128.89 59.7616 129.493C60.6477 130.097 61.6839 130.528 62.7562 130.532C62.7022 130.021 62.5291 129.381 62.0199 129.317ZM55.4559 123.399C55.1052 123.707 55.0413 124.226 55.0606 124.692C55.1259 126.27 55.8856 127.782 57.0211 128.878C58.1567 129.975 59.646 130.671 61.1946 130.978C61.5743 131.053 61.9838 131.103 62.3357 130.942C61.2888 130.801 60.2764 130.41 59.4066 129.81C59.0764 129.583 58.7673 129.326 58.4599 129.069C57.6476 128.389 56.8313 127.684 56.2641 126.79C55.6306 125.79 55.3414 124.577 55.4559 123.399ZM40.4891 109.299C40.4425 107.76 39.8797 106.242 38.9124 105.044C38.3959 105.523 38.5051 106.353 38.6551 107.042C38.8698 108.027 39.1162 109.071 39.8363 109.777C39.9124 109.852 40.0007 109.925 40.1068 109.935C40.3871 109.962 40.4977 109.58 40.4891 109.299ZM58.5431 126.859C59.3406 127.857 60.4939 128.565 61.7452 128.825C61.8215 128.841 61.9123 128.851 61.9669 128.795C62.0095 128.752 62.0128 128.684 62.0061 128.623C61.9614 128.223 61.5991 127.928 61.2228 127.786C60.8465 127.644 60.4369 127.608 60.0582 127.472C59.1407 127.143 58.4927 126.178 58.5344 125.204C58.5526 124.779 58.2261 124.365 57.8082 124.284C57.5645 125.178 57.9647 126.135 58.5431 126.859ZM55.3116 129.107C54.8594 128.904 54.3382 128.917 53.8713 128.751C53.6931 128.688 53.5224 128.929 53.5903 129.105C53.6581 129.282 53.8642 129.367 54.0532 129.375C54.2423 129.383 54.4295 129.334 54.6187 129.333C55.2958 129.329 55.868 130.068 55.6957 130.723C55.6296 130.974 55.9096 131.243 56.1582 131.167C56.4538 130.403 56.0587 129.442 55.3116 129.107ZM60.366 126.296C59.9683 125.904 59.5672 125.509 59.1002 125.202C58.9785 126.265 59.9812 127.308 61.0479 127.229C61.1459 127.126 61.0415 126.962 60.9405 126.863C60.749 126.674 60.5575 126.485 60.366 126.296ZM54.8154 130.217C54.9188 130.373 55.2368 130.288 55.2001 130.104C54.9712 129.844 54.631 129.684 54.2843 129.675C54.3309 129.934 54.5383 130.156 54.793 130.221M51.5079 123.333C51.4973 123.202 51.3445 123.104 51.2211 123.149C51.1604 123.339 51.2088 123.559 51.3432 123.706C51.5159 123.707 51.631 123.465 51.5204 123.332M47.5114 131.459C47.5112 131.654 47.6201 131.845 47.7877 131.945C47.8888 131.751 47.724 131.476 47.5047 131.474" fill="#00160A"/>
<path fill-rule="evenodd" clip-rule="evenodd" d="M169.135 108.087C169.001 107.755 168.434 107.909 168.327 108.251C168.219 108.593 168.393 108.952 168.54 109.28C170.034 112.602 168.845 116.909 165.857 118.993C165.095 118.528 164.788 117.499 163.984 117.111C163.613 116.933 163.188 116.918 162.776 116.907C161.554 116.874 160.331 116.84 159.108 116.807C158.662 116.794 158.125 116.831 157.908 117.221C157.436 118.072 156.174 118.411 155.409 117.81C154.645 117.208 154.776 115.77 155.681 115.415C155.895 115.331 156.138 115.301 156.314 115.154C156.473 115.022 156.549 114.819 156.619 114.625C157.094 113.311 157.568 111.997 158.043 110.683C158.132 110.435 158.223 110.181 158.216 109.917C158.203 109.381 157.798 108.94 157.383 108.601C156.967 108.262 156.498 107.947 156.264 107.464C156.029 106.982 156.167 106.267 156.68 106.112C159.375 105.3 162.404 104.784 164.913 106.06C165.342 106.278 165.77 106.552 166.252 106.566C166.733 106.579 167.266 106.185 167.178 105.712C167.054 105.045 165.884 104.764 166.092 104.119C166.137 103.98 166.245 103.872 166.349 103.769C167.413 102.717 168.477 101.666 169.541 100.614C169.652 100.017 168.784 99.6911 168.225 99.9275C167.666 100.164 167.264 100.684 166.702 100.915C165.567 101.381 164.352 100.519 163.453 99.6832C160.236 96.6927 157.384 93.3112 154.978 89.6369C154.867 89.4683 154.753 89.283 154.768 89.0819C154.787 88.8237 155.007 88.6327 155.21 88.4722C156.979 87.0749 158.749 85.6776 160.518 84.2802C160.946 83.9427 161.615 83.6203 161.967 84.036C165.225 87.8843 168.484 91.7326 171.742 95.5809C171.898 95.7644 172.058 95.9586 172.107 96.1942C172.206 96.6784 171.802 97.1162 171.393 97.3938C170.984 97.6713 170.505 97.9214 170.317 98.3788C170.13 98.8362 170.538 99.5105 170.996 99.3231C173.337 97.6411 175.785 95.9132 178.624 95.4141C179.162 95.3196 179.746 95.2782 180.224 95.5408C181.288 96.1251 181.138 97.692 180.734 98.8366C179.996 100.925 178.902 102.887 177.513 104.612C177.237 104.956 176.929 105.369 177.046 105.795C177.211 106.396 178.046 106.47 178.644 106.292C179.242 106.114 179.897 105.813 180.453 106.095C180.699 106.22 180.879 106.442 181.051 106.657C183.959 110.299 186.868 113.941 189.776 117.583C187.767 119.163 185.721 120.698 183.642 122.185C183.436 122.331 183.207 122.485 182.956 122.464C182.657 122.439 182.439 122.183 182.256 121.946C179.467 118.338 176.678 114.729 173.888 111.12C173.532 110.659 173.868 109.969 174.327 109.609C174.787 109.249 175.37 109.033 175.725 108.57C176.079 108.106 175.985 107.242 175.408 107.154C175.08 107.104 174.779 107.332 174.542 107.564C173.88 108.213 173.332 109.025 172.491 109.415C171.27 109.981 169.638 109.335 169.135 108.087ZM166.337 117.831C168.038 115.869 169.106 113.134 168.362 110.645C167.74 108.561 165.905 106.966 163.828 106.321C161.751 105.676 159.474 105.899 157.421 106.614C157.236 106.678 157.02 106.788 157.013 106.984C157.008 107.104 157.089 107.209 157.166 107.302C160.045 110.808 162.924 114.313 165.803 117.819C165.874 117.905 165.96 117.999 166.072 117.999C166.18 118 166.266 117.913 166.337 117.831ZM179.67 98.4832C178.58 98.3842 177.712 97.2251 177.924 96.1512C173.737 98.028 169.976 100.845 166.996 104.334C168.155 105.888 169.456 107.337 170.876 108.657C171.023 108.793 171.185 108.935 171.384 108.954C171.6 108.976 171.8 108.848 171.978 108.724C175.39 106.334 178.132 102.997 179.814 99.1864C179.927 98.9288 179.95 98.5086 179.67 98.4832ZM164.351 95.3283C164.585 95.1356 164.841 94.8945 164.821 94.592C164.806 94.3688 164.642 94.1881 164.487 94.027C163.795 93.3086 163.103 92.5902 162.411 91.8718C162.215 91.6676 161.89 91.6344 161.618 91.7161C161.347 91.7978 161.116 91.9746 160.891 92.1479C160.718 92.282 160.538 92.5497 160.711 92.6844C161.646 93.4122 162.485 94.2627 163.201 95.2072C163.331 95.3793 163.477 95.5678 163.69 95.6074C163.933 95.6528 164.16 95.4856 164.351 95.3283M166.853 99.6004C167.13 99.6571 167.391 99.4701 167.611 99.2939C167.799 99.1435 168.006 98.9559 167.996 98.7152C167.989 98.5522 167.883 98.4126 167.781 98.2851C167.084 97.4108 166.386 96.5364 165.688 95.662C165.64 95.6015 165.586 95.537 165.51 95.5211C165.434 95.5052 165.358 95.5425 165.29 95.5803C165.01 95.7366 164.746 95.9217 164.504 96.1318C164.405 96.2172 164.305 96.3157 164.281 96.4439C164.252 96.5932 164.334 96.739 164.416 96.8675C164.981 97.7628 165.655 98.5889 166.419 99.3216C166.545 99.4423 166.682 99.5654 166.853 99.6004ZM157.144 115.08C157.128 115.121 157.112 115.164 157.112 115.209C157.115 115.337 157.261 115.423 157.388 115.41C157.515 115.396 157.624 115.316 157.725 115.238C158.626 114.545 159.527 113.853 160.428 113.161C160.569 113.053 160.723 112.918 160.722 112.741C160.722 112.602 160.625 112.485 160.533 112.382C160.137 111.933 159.741 111.484 159.345 111.036C159.283 110.966 159.217 110.892 159.127 110.865C158.883 110.789 158.694 111.079 158.602 111.317C158.116 112.571 157.63 113.826 157.144 115.08ZM161.693 113.945C161.639 113.882 161.582 113.816 161.504 113.785C161.392 113.741 161.266 113.78 161.154 113.822C159.944 114.272 158.858 115.051 158.046 116.055C158.231 116.157 158.453 116.155 158.664 116.151C160.1 116.123 161.536 116.095 162.971 116.068C163.129 116.064 163.347 115.988 163.307 115.836C162.769 115.206 162.231 114.576 161.693 113.945ZM157.861 87.6213C157.763 87.7186 157.659 87.8306 157.657 87.9683C157.656 88.0611 157.702 88.1471 157.747 88.2283C158.25 89.1332 158.753 90.0382 159.256 90.9431C159.365 91.1385 159.478 91.3395 159.656 91.4755C159.833 91.6114 160.093 91.6657 160.281 91.5441C160.542 91.3749 160.803 91.2057 161.063 91.0366C161.256 90.9117 161.46 90.63 161.274 90.4959C160.196 89.72 159.317 88.669 158.745 87.4702C158.669 87.3109 158.454 87.2611 158.286 87.3144C158.117 87.3677 157.985 87.4966 157.861 87.6213ZM162.61 96.7572C162.826 96.5429 162.836 96.1842 162.717 95.9044C162.597 95.6246 162.372 95.4052 162.153 95.1938C161.555 94.6161 160.957 94.0384 160.359 93.4607C160.193 93.2997 160.02 93.1347 159.804 93.05C159.588 92.9652 159.316 92.9799 159.156 93.1473C158.858 93.4585 159.136 93.9628 159.414 94.2924C159.952 94.9311 160.49 95.5698 161.028 96.2086C161.231 96.45 161.443 96.6982 161.726 96.8377C162.009 96.9773 162.386 96.9794 162.61 96.7572ZM163.699 89.1347C164.115 89.1278 164.383 88.6323 164.313 88.2214C164.243 87.8106 163.948 87.4793 163.666 87.1724C163.087 86.5415 162.507 85.9106 161.927 85.2797C161.738 85.0736 161.487 84.8479 161.217 84.9209C160.979 84.9851 160.858 85.2693 160.891 85.5135C160.924 85.7577 161.07 85.9694 161.212 86.1707C161.769 86.9582 162.325 87.7458 162.881 88.5333C163.085 88.8215 163.346 89.1405 163.699 89.1347ZM174.75 110.738C174.734 110.834 174.79 110.926 174.844 111.007C175.394 111.835 175.943 112.663 176.492 113.492C176.656 113.739 176.975 113.873 177.266 113.817C177.557 113.761 177.804 113.519 177.865 113.229C177.953 112.811 177.684 112.409 177.428 112.065C176.97 111.449 176.511 110.832 176.053 110.215C175.91 110.023 175.619 109.998 175.399 110.093C175.179 110.188 175.015 110.374 174.858 110.555C174.811 110.609 174.762 110.667 174.75 110.738ZM179.306 112.523C179.465 112.414 179.633 112.295 179.703 112.115C179.822 111.811 179.616 111.485 179.42 111.224C178.958 110.61 178.492 109.999 178.021 109.391C177.829 109.142 177.609 108.877 177.301 108.815C177.029 108.761 176.729 108.899 176.594 109.141C176.458 109.383 176.497 109.71 176.685 109.914C177.407 110.696 178.008 111.59 178.457 112.555C178.594 112.849 179.038 112.707 179.306 112.523ZM155.766 89.4185C155.819 89.6666 155.988 89.8712 156.152 90.0649C156.814 90.8463 157.475 91.6278 158.136 92.4093C158.188 92.4701 158.24 92.5317 158.306 92.5761C158.465 92.6829 158.697 92.6655 158.838 92.5361C158.979 92.4066 159.016 92.1777 158.924 92.01C158.349 90.968 157.774 89.9259 157.199 88.8838C157.022 88.5626 156.596 88.4048 156.252 88.533C155.908 88.6613 155.689 89.0597 155.766 89.4185ZM182.481 117.372C182.384 117.479 182.282 117.601 182.285 117.746C182.288 117.869 182.368 117.975 182.445 118.072C182.982 118.749 183.522 119.425 184.065 120.098C184.155 120.21 184.25 120.326 184.38 120.385C184.697 120.53 185.049 120.293 185.316 120.07C185.434 119.971 185.563 119.847 185.549 119.694C185.54 119.604 185.482 119.527 185.426 119.456C184.8 118.662 184.175 117.867 183.549 117.073C183.418 116.906 183.162 116.886 182.967 116.969C182.772 117.052 182.623 117.214 182.481 117.372ZM159.666 87.2893C160.07 88.3877 160.813 89.4126 161.878 89.8978C162.14 90.0172 162.52 90.0653 162.653 89.8102C162.788 89.5526 162.533 89.2734 162.32 89.0748C161.476 88.2854 160.973 87.2072 160.49 86.1572C160.339 85.8286 159.79 85.9202 159.619 86.2387C159.447 86.5571 159.541 86.9498 159.666 87.2893ZM180.873 113.803C180.701 113.567 180.519 113.323 180.261 113.187C180.002 113.051 179.643 113.057 179.456 113.282C179.158 113.638 179.484 114.16 179.785 114.514C180.369 115.197 180.9 115.925 181.372 116.69C181.556 116.986 182.012 116.787 182.28 116.565C182.421 116.449 182.576 116.293 182.535 116.115C182.519 116.051 182.48 115.996 182.44 115.942C181.918 115.229 181.396 114.516 180.873 113.803ZM179.45 107.211C179.428 107.474 179.578 107.716 179.723 107.936C180.324 108.855 180.929 109.778 181.678 110.581C182.126 110.552 182.383 110.004 182.291 109.565C182.2 109.126 181.88 108.776 181.593 108.431C181.21 107.97 180.864 107.476 180.562 106.958C180.435 106.74 180.159 106.621 179.913 106.677C179.667 106.732 179.47 106.96 179.45 107.211ZM180.158 117.848C180.354 117.983 180.644 117.959 180.815 117.793C181 117.613 181.025 117.315 180.945 117.07C180.864 116.825 180.696 116.62 180.532 116.421C180.057 115.845 179.582 115.269 179.106 114.694C178.929 114.479 178.74 114.256 178.48 114.155C178.221 114.054 177.871 114.128 177.76 114.383C177.643 114.652 177.835 114.949 178.017 115.18C178.658 115.994 179.3 116.809 179.942 117.624C180.007 117.706 180.072 117.789 180.158 117.848ZM185.749 113.833C185.715 113.699 185.621 113.59 185.53 113.486C184.858 112.719 184.186 111.952 183.515 111.185C183.46 111.123 183.402 111.058 183.323 111.035C183.245 111.012 183.162 111.034 183.084 111.056C182.894 111.109 182.695 111.167 182.558 111.309C182.421 111.45 182.379 111.704 182.524 111.837C183.07 112.344 183.558 112.912 183.975 113.528C184.219 113.887 184.468 114.287 184.876 114.432C185.284 114.577 185.857 114.252 185.749 113.833M166.55 94.6414C166.371 94.8813 166.489 95.2226 166.635 95.4839C167.071 96.2664 167.702 96.9198 168.325 97.5635C168.485 97.7288 168.652 97.8991 168.868 97.9788C169.084 98.0585 169.362 98.0184 169.489 97.826C169.662 97.5614 169.464 97.2177 169.272 96.9662C168.788 96.3323 168.303 95.6983 167.819 95.0644C167.661 94.8575 167.495 94.6434 167.261 94.5287C167.027 94.414 166.706 94.4327 166.55 94.6414ZM187.262 117.707C187.475 117.969 187.797 118.261 188.104 118.118C188.371 117.995 188.478 117.582 188.773 117.58C188.256 116.915 187.74 116.25 187.223 115.585C187.015 115.317 186.792 115.037 186.475 114.914C186.159 114.792 185.726 114.901 185.621 115.224C185.523 115.521 185.733 115.824 185.93 116.067C186.374 116.614 186.818 117.16 187.262 117.707ZM167.915 92.6194C167.395 91.8069 166.81 91.0368 166.166 90.3193C165.997 90.1305 165.823 89.9454 165.65 89.7603C165.508 89.609 165.356 89.4511 165.156 89.3954C164.916 89.3285 164.638 89.4407 164.512 89.6554C164.385 89.8701 164.422 90.1677 164.598 90.3448C165.281 91.0367 165.965 91.7286 166.648 92.4205C166.828 92.6021 167.018 92.7903 167.262 92.8649C167.506 92.9396 167.819 92.8563 167.915 92.6194ZM171.097 96.4794C171.16 96.4294 171.228 96.3707 171.236 96.2906C171.245 96.2061 171.184 96.1321 171.127 96.0692C170.385 95.2517 169.642 94.4343 168.899 93.6168C168.752 93.4547 168.562 93.2773 168.347 93.3209C168.139 93.3632 168.026 93.6091 168.054 93.8196C168.082 94.0301 168.212 94.2109 168.338 94.3819C168.646 94.7995 168.954 95.2171 169.261 95.6347C169.623 96.1251 170 96.6304 170.534 96.925C170.721 96.7765 170.909 96.6279 171.097 96.4794ZM182.088 112.505C181.908 112.307 181.668 112.089 181.409 112.157C181.175 112.218 181.057 112.5 181.095 112.738C181.132 112.977 181.282 113.181 181.427 113.374C181.845 113.929 182.263 114.484 182.681 115.039C182.899 115.328 183.205 115.651 183.557 115.564C183.868 115.487 184.015 115.102 183.945 114.789C183.874 114.477 183.651 114.225 183.436 113.988C182.986 113.494 182.537 113 182.088 112.505ZM180.958 118.625C180.756 118.942 180.985 119.351 181.214 119.649C181.574 120.116 181.952 120.568 182.347 121.004C182.504 121.176 182.676 121.354 182.902 121.411C183.148 121.472 183.426 121.362 183.563 121.149C183.7 120.936 183.684 120.637 183.527 120.439C183.157 119.976 182.788 119.514 182.418 119.051C182.232 118.818 182.035 118.576 181.762 118.454C181.489 118.331 181.118 118.372 180.958 118.625ZM162.94 90.7168C162.77 90.9662 162.993 91.2902 163.203 91.5069C163.938 92.2639 164.672 93.0209 165.407 93.7779C165.562 93.9379 165.751 94.1109 165.973 94.088C166.253 94.0591 166.406 93.7134 166.339 93.4403C166.272 93.1672 166.06 92.9575 165.856 92.7634C165.211 92.1475 164.566 91.5316 163.921 90.9158C163.783 90.7838 163.638 90.648 163.457 90.5863C163.276 90.5246 163.048 90.559 162.94 90.7168M178.496 107.717C178.253 107.72 178.088 107.997 178.11 108.239C178.132 108.481 178.283 108.69 178.428 108.885C178.951 109.587 179.474 110.288 179.996 110.99C180.098 111.127 180.205 111.268 180.357 111.347C180.508 111.426 180.717 111.422 180.827 111.291C180.985 111.104 180.849 110.822 180.711 110.619C180.139 109.778 179.568 108.937 178.997 108.096C178.874 107.915 178.715 107.714 178.496 107.717M186.89 118.496C186.233 117.704 185.577 116.913 184.921 116.121C184.842 116.026 184.755 115.925 184.635 115.894C184.402 115.832 184.18 116.083 184.179 116.325C184.177 116.567 184.321 116.783 184.462 116.979C184.9 117.583 185.373 118.162 185.879 118.71C186.059 118.905 186.264 119.107 186.527 119.14C186.79 119.173 187.091 118.928 187.006 118.677C186.983 118.609 186.936 118.552 186.89 118.496ZM165.101 100.141C165.266 100.321 165.461 100.514 165.705 100.517C165.949 100.521 166.168 100.189 165.985 100.028C165.241 99.3708 164.581 98.6195 164.025 97.7975C163.875 97.5769 163.718 97.3381 163.471 97.2396C163.223 97.1411 162.869 97.2791 162.863 97.5453C162.86 97.7031 162.973 97.8362 163.08 97.9522C163.754 98.6819 164.427 99.4116 165.101 100.141ZM178.705 96.6542C178.781 97.223 179.328 97.6892 179.901 97.6738C179.995 97.6713 180.096 97.6543 180.164 97.5893C180.231 97.5256 180.252 97.4294 180.271 97.339C180.358 96.917 180.364 96.3452 179.956 96.2046C179.789 96.1467 179.601 96.1915 179.429 96.1464C179.309 96.1149 179.199 96.0399 179.074 96.0403C178.804 96.0411 178.67 96.3857 178.705 96.6542ZM157.044 116.23C156.877 116.051 156.625 115.97 156.38 115.962C156.246 115.958 156.107 115.975 155.993 116.044C155.89 116.108 155.816 116.21 155.768 116.321C155.55 116.824 155.996 117.49 156.542 117.449C157.088 117.408 157.417 116.631 157.044 116.23M167.664 107.659C167.898 107.646 168.106 107.441 168.122 107.207C168.13 107.096 168.097 106.982 168.032 106.891C167.837 106.619 167.346 106.663 167.201 106.964C167.056 107.266 167.33 107.676 167.664 107.659ZM170.013 99.9578C170.105 100.014 170.203 100.073 170.31 100.069C170.417 100.066 170.528 99.9705 170.505 99.8658C170.089 99.4829 169.673 99.1 169.257 98.7172C169.149 98.96 169.231 99.2536 169.393 99.4638C169.556 99.674 169.787 99.8182 170.013 99.9578ZM176.641 107.153C176.803 107.293 177.063 107.053 177.019 106.843C176.975 106.633 176.773 106.501 176.588 106.392C176.403 106.284 176.201 106.153 176.155 105.943C175.887 106.339 176.28 106.84 176.641 107.153Z" fill="#00160A"/>
</svg>
