<svg width="200" height="200" viewBox="0 0 200 200" fill="none" xmlns="http://www.w3.org/2000/svg">
<path fill-rule="evenodd" clip-rule="evenodd" d="M39.059 144.741C15.1236 128.136 43.7898 106.132 36.7873 79.8215C29.7847 53.5108 12.8222 14.281 79.741 28.2596C147.544 42.4228 190.547 60.6603 180.384 117.151C170.221 173.642 62.9945 161.346 39.059 144.741Z" fill="#FFA600"/>
<path fill-rule="evenodd" clip-rule="evenodd" d="M142.948 167.486C141.447 165.99 140.736 163.897 140.073 161.885C138.335 164.401 134.456 164.482 131.792 162.98C129.128 161.479 127.33 158.857 125.417 156.471C121.992 152.199 107.32 141.649 107.079 138.466C106.951 136.778 111.86 133.705 111.86 133.705L103.039 128.515C103.039 128.515 98.4639 132.025 95.8335 132.442C88.5157 133.603 83.3399 132.912 83.3337 134.229C83.3113 138.994 112.143 163.17 102.949 162.98C89.1505 162.696 63.9492 135.84 55.7858 133.705C52.3671 132.812 28.9191 134.229 28.9191 128.553C28.9191 120.93 49.8629 115.685 49.8629 115.685C49.8629 115.685 44.4043 97.2785 51.011 82.2262C52.5241 78.7788 54.3975 74.7735 54.5801 71.3865C54.6301 70.4572 81.0434 45.4383 84.4366 44.1884C92.3484 41.2742 100.764 39.7341 109.195 39.6575C110.319 39.6473 142.366 44.1884 156.776 67.9749C159.381 72.2736 171.211 104.197 159.2 124.223C157.305 127.382 157.537 131.304 158.847 134.782C160.157 138.26 161.768 142.129 160.283 145.536C159.473 140.077 158.049 134.709 156.047 129.566C153.256 131.595 154.669 135.962 156.333 138.985C158.43 142.795 160.527 146.604 162.624 150.414C163.496 151.999 164.398 153.745 164.084 155.526C163.726 157.563 161.911 158.972 160.23 160.176C156.392 162.927 152.554 165.677 148.716 168.428C146.993 169.662 144.449 168.982 142.948 167.486Z" fill="white"/>
<path fill-rule="evenodd" clip-rule="evenodd" d="M91.1021 83.1844C91.396 82.3887 92.4542 82.0601 93.235 82.3917C94.0157 82.7233 94.5003 83.5525 94.6226 84.3918C94.745 85.2312 94.5592 86.0843 94.3203 86.8982C94.1025 87.6404 93.8395 88.3693 93.5334 89.0797C93.505 89.1456 93.4668 89.2195 93.3967 89.2353C93.3221 89.2521 93.2532 89.194 93.1994 89.1395C91.8728 87.7954 91.073 85.9444 91.0034 84.0572C90.9926 83.7627 91 83.4609 91.1021 83.1844ZM93.3955 83.3786C93.1778 83.192 92.8968 83.0698 92.6102 83.0785C91.9411 83.0988 91.4743 83.8285 91.4892 84.4977C91.5041 85.1669 91.8605 85.7744 92.2065 86.3474C92.4543 86.7577 92.702 87.1681 92.9498 87.5784C93.0343 87.7183 93.2004 87.8778 93.3319 87.7809C93.385 87.7419 93.4055 87.6734 93.4228 87.6099C93.5242 87.2371 93.6256 86.8643 93.727 86.4915C93.872 85.9585 94.0182 85.4169 94.0092 84.8646C94.0002 84.3123 93.8148 83.7381 93.3955 83.3786L93.3955 83.3786Z" fill="#FFB61D"/>
<path fill-rule="evenodd" clip-rule="evenodd" d="M92.9579 85.5207C92.7949 85.5665 92.617 85.5579 92.4592 85.4964C92.1531 85.3771 91.9417 85.0492 91.9595 84.7211C91.9772 84.393 92.2227 84.0898 92.5399 84.0042C93.0205 83.8745 93.5617 84.3173 93.5297 84.8141C93.509 85.1364 93.2689 85.4331 92.9579 85.5207Z" fill="#FFB61D"/>
<path fill-rule="evenodd" clip-rule="evenodd" d="M101.717 163.517C102.266 163.59 102.063 164.441 101.707 164.865C98.306 168.914 93.8655 172.082 88.9305 173.981C87.8239 174.407 86.679 174.773 85.4961 174.854C83.3023 175.006 81.1169 174.149 79.382 172.798C77.6472 171.446 76.3253 169.63 75.248 167.713C72.3019 162.47 71.0669 156.284 71.7741 150.312C71.8406 149.75 72.2239 149.005 72.7417 149.233C72.5917 151.23 72.5684 153.236 72.6721 155.235C72.774 157.199 73.0007 159.169 73.5647 161.053C74.0868 162.797 74.8902 164.442 75.7278 166.059C76.5888 167.721 77.5011 169.378 78.7445 170.777C79.9879 172.176 81.6018 173.312 83.4379 173.675C85.7396 174.13 88.1021 173.337 90.2242 172.336C94.6254 170.261 98.5735 167.232 101.717 163.517Z" fill="#00160A"/>
<path fill-rule="evenodd" clip-rule="evenodd" d="M117.64 140.762C121.637 136.829 125.634 132.897 129.631 128.965C129.855 128.744 130.186 128.509 130.451 128.678C130.804 128.903 130.521 129.445 130.224 129.74C125.922 133.994 121.62 138.249 117.318 142.504C117.008 142.346 116.917 141.922 117.027 141.592C117.136 141.262 117.392 141.006 117.64 140.762H117.64Z" fill="#00160A"/>
<path fill-rule="evenodd" clip-rule="evenodd" d="M87.0408 118.145C86.7972 118.187 86.5535 118.23 86.3098 118.272C85.8369 117.562 85.3529 116.825 85.2044 115.985C85.0559 115.146 85.3339 114.168 86.0794 113.754C86.9229 113.285 87.1772 112.132 86.9085 111.205C86.6398 110.278 85.974 109.527 85.3219 108.815C84.6596 108.093 83.5975 107.326 82.8112 107.911C82.2987 108.293 81.5315 108.077 81.0728 107.632C80.614 107.187 80.3713 106.573 80.0746 106.007C79.5134 104.936 78.6949 103.97 77.6242 103.409C76.5536 102.847 75.2135 102.736 74.1359 103.284C73.0668 103.827 72.3926 104.909 71.4813 105.688C70.57 106.468 69.0652 106.882 68.2442 106.008C68.0354 105.786 67.8953 105.456 68.014 105.175C68.1326 104.894 68.5934 104.798 68.7404 105.065C69.1152 105.746 70.1508 105.736 70.7984 105.306C71.4461 104.877 71.8513 104.175 72.3827 103.608C73.4219 102.498 75.0015 101.921 76.5111 102.098C78.0207 102.276 79.4235 103.204 80.1773 104.523C80.5406 105.159 80.7645 105.883 81.2387 106.441C81.713 106.999 82.5749 107.341 83.1832 106.933C83.8705 106.472 84.7668 107.045 85.3699 107.611C86.186 108.378 86.9812 109.206 87.4408 110.227C87.9004 111.248 87.9733 112.504 87.3727 113.449C86.8727 114.235 85.9159 114.872 85.9988 115.801C86.0761 116.666 87.0723 117.277 87.0408 118.145Z" fill="#00160A"/>
<path fill-rule="evenodd" clip-rule="evenodd" d="M97.5922 79.1674C99.0555 79.8525 100.357 80.9482 101.11 82.3782C101.862 83.8082 102.015 85.584 101.341 87.0523C99.9453 90.0897 95.5089 91.272 95.0197 94.5786C94.8951 95.4207 95.0646 96.2963 94.8565 97.1218C94.7127 97.6922 94.3976 98.2015 94.1456 98.7331C93.605 99.8736 93.3496 101.148 93.4092 102.409C92.8452 102.714 92.1822 102.064 92.1102 101.427C92.0382 100.79 92.2932 100.157 92.2796 99.5161C92.2539 98.311 91.3218 97.3519 90.5266 96.4461C89.3339 95.0874 88.2976 93.4878 88.1039 91.6903C88.0415 91.1112 88.0678 90.5204 87.9376 89.9527C87.7975 89.342 87.4837 88.7884 87.2064 88.2266C86.4585 86.7115 85.9523 84.9629 86.4127 83.3373C86.8732 81.7116 88.5896 80.3667 90.2189 80.8141C90.6818 80.9412 91.1346 81.2009 91.6093 81.13C92.4431 81.0057 92.7794 80.0111 93.3605 79.4005C94.4022 78.3058 96.2237 78.5267 97.5922 79.1674M90.5066 94.9652C91.4305 96.1808 92.3544 97.3963 93.2783 98.6118C94.338 97.496 93.8997 95.691 94.2218 94.1862C94.6607 92.1364 96.4942 90.7449 98.0828 89.3772C99.6715 88.0094 101.249 86.1382 100.892 84.0725C100.605 82.4127 99.157 81.2331 97.7681 80.28C96.9851 79.7426 96.0814 79.2022 95.1475 79.3749C94.2033 79.5495 93.5564 80.3867 92.8761 81.0643C92.1958 81.742 91.17 82.3306 90.3186 81.8866C89.1205 81.2617 87.595 82.3278 87.2569 83.6361C86.9189 84.9445 87.405 86.3133 87.9386 87.5548C88.4723 88.7962 89.0744 90.083 88.973 91.4305C88.8744 92.7416 89.7109 93.9185 90.5066 94.9652Z" fill="#00160A"/>
<path fill-rule="evenodd" clip-rule="evenodd" d="M16.8082 67.0448C16.7482 66.8823 17.0331 66.8366 17.1859 66.9183C17.1793 67.0872 16.9195 67.1727 16.8139 67.0406L16.8082 67.0448Z" fill="#00160A"/>
<path fill-rule="evenodd" clip-rule="evenodd" d="M127.625 133.614C127.939 133.658 128.105 134.044 128.034 134.353C127.963 134.661 127.73 134.903 127.508 135.128C125.707 136.948 123.906 138.768 122.106 140.588C121.973 140.723 121.816 140.867 121.627 140.861C121.373 140.853 121.207 140.559 121.238 140.307C121.269 140.055 121.435 139.842 121.596 139.645C123.252 137.62 125.049 135.709 126.969 133.932C127.154 133.761 127.376 133.58 127.625 133.614V133.614Z" fill="#00160A"/>
<path fill-rule="evenodd" clip-rule="evenodd" d="M74.6787 107.293C75.6707 107.382 76.4337 108.315 76.6039 109.296C76.7742 110.278 76.4682 111.281 76.0532 112.187C75.8245 112.686 75.5617 113.169 75.2672 113.632C75.0553 113.965 74.7855 114.316 74.3959 114.38C73.7455 114.488 73.2887 113.772 73.0377 113.163C72.6845 112.304 72.3604 111.434 72.0661 110.554C71.9216 110.122 71.7826 109.667 71.8565 109.218C71.9694 108.531 72.5535 108.016 73.1655 107.684C73.6301 107.431 74.1521 107.245 74.6787 107.293M73.7465 112.347C73.8227 112.465 73.9037 112.587 74.0229 112.662C74.1208 112.724 74.2407 112.75 74.3552 112.734C74.6503 112.693 74.8399 112.409 74.9906 112.152C75.385 111.479 75.7899 110.774 75.8342 109.995C75.8786 109.217 75.4364 108.351 74.6735 108.191C73.7808 108.003 72.9491 108.897 72.8735 109.806C72.7978 110.715 73.2541 111.579 73.7465 112.347Z" fill="#FFB61D"/>
<path fill-rule="evenodd" clip-rule="evenodd" d="M74.636 109.137C74.8809 109.216 75.092 109.395 75.2104 109.624C75.3158 109.827 75.3475 110.067 75.2984 110.291C75.185 110.808 74.6011 111.169 74.0884 111.039C73.5756 110.909 73.234 110.313 73.3803 109.805C73.5267 109.297 74.1327 108.974 74.636 109.137ZM74.5225 110.21C74.7092 110.111 74.5424 109.753 74.3471 109.833C74.1957 109.853 74.0955 110.044 74.1647 110.18C74.2338 110.316 74.4467 110.347 74.5522 110.237L74.5225 110.21Z" fill="#FFB61D"/>
<path fill-rule="evenodd" clip-rule="evenodd" d="M127.143 118.916C126.59 118.319 126.093 117.67 125.661 116.98C125.522 116.76 125.809 116.473 126.067 116.507C126.325 116.541 126.514 116.758 126.679 116.96C127.252 117.662 127.825 118.365 128.398 119.068C128.332 119.319 128.016 119.432 127.765 119.366C127.514 119.299 127.32 119.107 127.143 118.916L127.143 118.916Z" fill="#00160A"/>
<path fill-rule="evenodd" clip-rule="evenodd" d="M146.025 151.484C146.032 151.566 146.001 151.646 145.97 151.722C145.655 152.488 145.187 153.191 144.601 153.776C143.668 154.707 142.404 155.397 141.905 156.617C141.787 156.906 141.345 156.948 141.116 156.736C140.887 156.524 140.855 156.161 140.957 155.865C141.058 155.57 141.268 155.327 141.473 155.092C142.142 154.325 142.81 153.559 143.479 152.792C143.991 152.205 144.526 151.6 145.236 151.278C145.528 151.146 146.001 151.164 146.025 151.484V151.484Z" fill="#00160A"/>
<path fill-rule="evenodd" clip-rule="evenodd" d="M127.825 115.724C128.484 116.5 129.144 117.275 129.804 118.05C129.915 118.181 130.032 118.329 130.025 118.499C130.013 118.765 129.687 118.923 129.428 118.861C129.17 118.8 128.974 118.593 128.801 118.392C128.242 117.743 127.741 117.044 127.307 116.307C127.137 116.019 127.071 115.516 127.402 115.473C127.572 115.451 127.714 115.594 127.825 115.724L127.825 115.724Z" fill="#00160A"/>
<path fill-rule="evenodd" clip-rule="evenodd" d="M120.225 120.046C120.125 119.905 120.021 119.721 120.106 119.571C120.246 119.322 120.626 119.515 120.816 119.728C121.486 120.484 122.057 121.329 122.508 122.233C122.078 122.451 121.621 122.008 121.342 121.615C120.969 121.092 120.597 120.569 120.225 120.046Z" fill="#00160A"/>
<path fill-rule="evenodd" clip-rule="evenodd" d="M120.82 122.272C121.088 122.551 121.36 123.01 121.08 123.278C120.796 123.551 120.341 123.243 120.089 122.94C119.481 122.206 118.953 121.406 118.515 120.559C118.796 120.318 119.212 120.599 119.468 120.865C119.919 121.334 120.369 121.803 120.82 122.272Z" fill="#00160A"/>
<path fill-rule="evenodd" clip-rule="evenodd" d="M121.551 119.523C121.43 119.345 121.316 119.1 121.447 118.928C121.635 118.684 122.018 118.908 122.228 119.134C122.838 119.788 123.449 120.443 124.06 121.097C124.032 121.333 123.755 121.475 123.52 121.44C123.284 121.405 123.088 121.246 122.911 121.086C122.398 120.622 121.941 120.096 121.551 119.523L121.551 119.523Z" fill="#00160A"/>
<path fill-rule="evenodd" clip-rule="evenodd" d="M125.4 118.072C125.78 118.557 126.16 119.043 126.54 119.528C126.691 119.72 126.85 119.967 126.752 120.191C126.657 120.406 126.358 120.463 126.141 120.37C125.925 120.278 125.773 120.082 125.632 119.893C125.235 119.363 124.842 118.831 124.452 118.296C124.366 118.178 124.276 118.045 124.289 117.899C124.311 117.657 124.622 117.531 124.853 117.605C125.085 117.679 125.25 117.881 125.4 118.072H125.4Z" fill="#00160A"/>
<path fill-rule="evenodd" clip-rule="evenodd" d="M125.113 120.309C125.192 120.395 125.277 120.495 125.268 120.611C125.257 120.766 125.075 120.863 124.921 120.84C124.768 120.816 124.64 120.711 124.525 120.608C123.766 119.925 123.127 119.111 122.644 118.212C122.739 117.965 123.112 118.132 123.292 118.327C123.899 118.988 124.506 119.649 125.113 120.309Z" fill="#00160A"/>
<path fill-rule="evenodd" clip-rule="evenodd" d="M132.482 115.935C132.541 116.003 132.604 116.081 132.6 116.171C132.595 116.307 132.433 116.393 132.299 116.37C132.164 116.347 132.056 116.251 131.956 116.158C131.241 115.498 130.558 114.805 129.909 114.08C130.138 113.772 130.623 114.019 130.902 114.284C131.454 114.809 131.982 115.36 132.482 115.935V115.935Z" fill="#00160A"/>
<path fill-rule="evenodd" clip-rule="evenodd" d="M130.219 116.595C129.819 116.047 129.42 115.5 129.02 114.953C128.947 114.853 128.87 114.731 128.909 114.613C128.987 114.381 129.339 114.484 129.528 114.639C130.129 115.129 130.639 115.73 131.024 116.403C131.099 116.533 131.171 116.688 131.118 116.829C131.051 117.008 130.805 117.061 130.629 116.986C130.453 116.911 130.332 116.749 130.219 116.595L130.219 116.595Z" fill="#00160A"/>
<path fill-rule="evenodd" clip-rule="evenodd" d="M133.407 114.584C133.012 114.16 132.617 113.735 132.223 113.311C132.082 113.16 132.252 112.891 132.458 112.869C132.663 112.847 132.851 112.977 133.013 113.104C133.313 113.338 133.601 113.586 133.878 113.846C134.032 113.99 134.187 114.147 134.245 114.349C134.302 114.551 134.223 114.808 134.025 114.876C133.796 114.955 133.571 114.761 133.407 114.584L133.407 114.584Z" fill="#00160A"/>
<path fill-rule="evenodd" clip-rule="evenodd" d="M132.641 115.424C132.095 114.864 131.572 114.281 131.073 113.678C130.986 113.573 130.895 113.444 130.932 113.313C130.974 113.165 131.167 113.107 131.313 113.156C131.459 113.206 131.565 113.328 131.664 113.446C132.121 113.986 132.577 114.526 133.034 115.067C133.157 115.213 133.279 115.443 133.139 115.573C132.997 115.704 132.776 115.562 132.641 115.424V115.424Z" fill="#00160A"/>
<path fill-rule="evenodd" clip-rule="evenodd" d="M158.624 150.05C159.24 149.86 160.801 149.437 161.418 149.247C161.694 149.161 162.104 149.15 162.156 149.435C162.199 149.669 161.93 149.828 161.704 149.904C161.082 150.113 159.493 150.492 158.841 150.57C158.609 150.598 158.272 150.512 158.319 150.283C158.346 150.151 158.495 150.09 158.624 150.05Z" fill="#00160A"/>
<path fill-rule="evenodd" clip-rule="evenodd" d="M89.7395 124.268C90.7155 124.282 91.8695 124.51 92.2588 125.405C92.6245 126.246 92.0495 127.256 91.2431 127.693C90.4367 128.129 89.4762 128.14 88.5593 128.139C76.05 128.123 63.5411 127.821 51.0455 127.233C50.2669 127.196 50.1931 126.073 50.3711 125.314C50.4773 124.861 50.5965 124.384 50.9233 124.052C51.3934 123.576 52.139 123.543 52.8084 123.541C61.7913 123.512 70.7906 123.484 79.7355 124.31C81.1523 124.441 82.5707 124.594 83.9935 124.58C85.9122 124.561 87.8209 124.24 89.7395 124.268M91.1404 126.539C91.35 126.13 91.0415 125.61 90.622 125.422C90.2025 125.234 89.7203 125.283 89.2628 125.328C83.3988 125.905 77.4949 125.239 71.6126 124.895C67.3372 124.645 63.0538 124.566 58.7718 124.486C56.9868 124.453 55.2018 124.42 53.4167 124.387C52.8473 124.376 52.2235 124.384 51.786 124.748C51.3484 125.113 51.3338 125.972 51.8768 126.144C51.9749 126.175 52.0791 126.181 52.1819 126.186C64.7494 126.797 77.3333 127.071 89.9155 127.008C90.3766 127.006 90.93 126.949 91.1404 126.539V126.539Z" fill="#00160A"/>
<path fill-rule="evenodd" clip-rule="evenodd" d="M81.7533 134.379C82.8689 136.821 85.272 138.629 87.9274 139.024C89.1769 139.21 90.0297 140.346 90.7412 141.389C91.4807 142.474 92.0231 144.313 90.8008 144.792C95.545 150.023 100.289 155.255 105.033 160.487C105.585 161.094 106.12 162.109 105.481 162.623C105.244 162.814 104.918 162.844 104.614 162.855C100.705 162.986 97.017 161.156 93.6343 159.193C88.7632 156.367 84.1108 153.163 79.7325 149.621C76.5337 147.033 71.9384 146.293 68.0887 147.745C66.0915 148.499 63.5879 146.963 63.3548 144.841C63.1218 142.719 65.2322 140.676 67.3453 140.978C64.1684 136.264 58.4866 133.351 52.8049 133.523C45.9471 133.73 39.0619 133.01 32.3951 131.39C31.8095 131.248 31.1807 131.07 30.8135 130.592C30.0811 129.64 30.8494 128.285 31.6543 127.393C37.5852 120.82 46.7109 117.274 55.5236 118.118C55.8991 118.154 56.1034 117.698 56.1914 117.332C58.4316 107.995 60.6718 98.6592 62.9121 89.323C63.1822 88.1972 64.8957 88.0415 65.7447 88.8286C66.5937 89.6157 66.7803 90.8705 66.8782 92.0241C67.6079 100.624 66.3337 109.882 70.6087 117.379C70.8078 117.728 71.0328 118.086 71.3826 118.284C71.7272 118.48 72.1422 118.492 72.5382 118.499C80.4534 118.639 88.3687 118.779 96.2839 118.919C97.2701 118.937 98.4809 118.819 98.8793 117.917C99.9003 115.605 100.921 113.293 101.942 110.981C102.267 110.245 102.715 109.411 103.51 109.29C104.648 109.116 105.369 110.546 105.332 111.697C105.295 112.848 104.908 114.071 105.415 115.105C107.274 113.129 109.166 111.127 111.491 109.728C113.816 108.329 116.672 107.585 119.279 108.337C116.974 112.002 114.669 115.667 112.364 119.332C114.289 120.606 114.441 123.829 112.644 125.278C111.877 125.897 112.486 127.118 113.121 127.871C115.112 130.232 117.104 132.592 119.095 134.952C117.396 135.741 115.416 134.929 113.745 134.083C110.758 132.569 107.842 130.915 105.011 129.128C103.637 128.261 102.122 129.887 100.875 130.929C98.8952 132.582 96.1617 132.911 93.5956 133.173C89.6482 133.575 85.7008 133.977 81.7533 134.379ZM88.6388 129.249C91.0639 129.382 93.5351 129.55 95.8883 128.948C98.2977 128.333 100.49 126.9 102.021 124.94C102.393 124.464 103.045 124.33 103.64 124.227C105.694 123.874 107.858 123.528 109.821 124.231C110.706 124.548 111.787 124.185 112.301 123.397C112.816 122.61 112.714 121.475 112.068 120.791C111.368 120.772 111.241 121.765 110.87 122.358C110.382 123.137 109.319 123.264 108.401 123.31C105.033 123.48 101.665 123.649 98.2968 123.818C97.479 123.86 96.3527 123.622 96.3772 122.803C96.388 122.443 96.651 122.146 96.9088 121.894C97.8131 121.011 98.8453 120.26 99.9632 119.67C86.2872 119.774 72.6093 119.62 58.9391 119.209C52.217 119.007 45.0488 118.854 39.3209 122.378C38.7862 122.707 38.3681 123.677 38.9885 123.773C40.8157 124.055 42.6428 124.337 44.47 124.619C44.6877 124.652 44.9204 124.693 45.078 124.847C45.5501 125.308 44.8886 126.05 44.2803 126.306C41.7704 127.362 38.7795 127.201 36.3978 125.881C35.858 125.582 35.2176 125.218 34.6676 125.498C34.0033 125.836 34.0946 126.904 34.6581 127.393C35.2217 127.881 36.0243 127.949 36.7685 127.995C43.4537 128.408 50.139 128.82 56.8243 129.233C58.7034 129.349 60.5883 129.465 62.4674 129.348C71.1793 128.805 79.923 128.772 88.6388 129.249ZM98.3976 155.165C96.0578 151.946 93.3925 148.963 90.4557 146.278C89.4941 145.398 88.6471 144.403 87.8029 143.41C84.1115 139.071 80.4201 134.731 76.7288 130.391C76.3603 129.958 75.7232 129.901 75.1548 129.883C70.3065 129.729 65.4421 130.09 60.6694 130.956C60.3165 131.02 59.9357 131.103 59.7027 131.375C59.1623 132.008 59.8377 132.932 60.4709 133.471C66.808 138.866 73.378 143.989 80.1565 148.818C81.404 149.707 82.6702 150.593 84.079 151.194C86.7368 152.329 89.3946 153.464 92.0523 154.599C94.0858 155.468 96.5099 156.317 98.3976 155.165ZM66.6587 107.252C66.5611 105.984 66.5606 104.694 66.2122 103.472C65.5845 101.269 63.9109 99.539 62.245 97.9669C62.1157 97.8449 61.9452 97.7137 61.7782 97.7748C61.6264 97.8303 61.5714 98.0126 61.5367 98.1704C60.2951 103.825 59.0536 109.479 57.812 115.133C57.5776 116.2 57.3419 117.282 57.3927 118.373C61.7455 118.428 66.0984 118.483 70.4512 118.538C68.2826 115.166 66.9666 111.25 66.6587 107.252ZM117.804 109.13C115.1 108.899 112.315 109.892 110.368 111.783C106.803 115.246 102.995 118.46 98.9823 121.393C98.4329 121.795 97.8444 122.24 97.6579 122.895C101.02 122.743 104.382 122.591 107.743 122.44C108.63 122.4 109.674 122.267 110.098 121.487C112.417 117.219 114.992 113.091 117.804 109.13ZM31.5139 129.148C31.4222 129.344 31.3411 129.562 31.392 129.773C31.4819 130.144 31.916 130.299 32.2877 130.389C39.8043 132.213 47.6024 132.448 55.3338 132.674C56.1031 132.697 56.9013 132.714 57.6077 132.408C58.3141 132.103 58.9012 131.376 58.7863 130.615C53.7607 129.919 48.6881 129.562 43.6146 129.548C40.5752 129.54 37.4492 129.64 34.5999 128.583C33.9125 128.327 33.1346 127.816 33.2221 127.088C32.4901 127.615 31.8959 128.331 31.5139 129.148ZM103.189 127.791C102.92 127.206 102.16 126.989 101.53 127.124C100.9 127.26 100.365 127.659 99.8366 128.027C98.6171 128.879 97.2984 129.63 95.8513 129.973C94.5896 130.272 93.277 130.251 91.9806 130.228C87.2478 130.144 82.515 130.06 77.7823 129.976C78.8363 131.549 80.2808 133.316 82.1625 133.109C85.8438 132.704 89.5731 132.801 93.2368 132.26C96.9006 131.72 100.613 130.451 103.189 127.791ZM114.139 131.84C114.312 131.816 114.513 131.759 114.567 131.594C114.612 131.455 114.529 131.31 114.448 131.188C113.085 129.137 111.406 127.319 109.735 125.51C109.48 125.234 109.214 124.95 108.868 124.804C108.509 124.653 108.105 124.668 107.718 124.697C106.132 124.816 104.563 125.139 103.059 125.656C102.937 125.698 102.794 125.766 102.78 125.895C102.769 125.996 102.844 126.083 102.915 126.155C104.494 127.761 106.47 128.908 108.42 130.035C110.184 131.055 112.12 132.112 114.139 131.84ZM69.1957 142.154C69.0485 142.04 68.8917 141.921 68.707 141.898C68.5571 141.878 68.4072 141.923 68.2628 141.968C67.9288 142.072 67.5948 142.176 67.2608 142.279C66.9334 142.381 66.5245 142.682 66.7134 142.968C67.3024 143.86 67.5415 144.976 67.3694 146.031C67.3135 146.374 67.8058 146.496 68.1518 146.472C69.9399 146.345 71.7281 146.219 73.5162 146.093C73.7027 146.08 73.9543 145.985 73.9109 145.803C72.3391 144.587 70.7674 143.37 69.1957 142.154ZM99.8351 117.971C99.7094 118.299 100.044 118.656 100.394 118.692C100.744 118.728 101.077 118.552 101.384 118.381C102.492 117.764 103.687 117.048 104.106 115.851C104.242 115.461 104.284 115.045 104.325 114.634C104.396 113.928 104.466 113.223 104.537 112.517C104.553 112.361 104.566 112.191 104.483 112.057C104.4 111.923 104.18 111.869 104.088 111.997C103.716 112.513 103.17 112.902 102.561 113.085C102.297 113.164 102.014 113.209 101.792 113.371C101.527 113.565 101.397 113.888 101.28 114.194C100.798 115.453 100.317 116.712 99.8351 117.971ZM88.8171 140.579C88.3344 139.679 87.0044 139.376 86.1798 139.979C87.2429 140.81 87.8425 142.092 88.7449 143.095C89.0555 143.44 89.4592 143.774 89.9226 143.743C90.386 143.713 90.769 143.094 90.4406 142.765C89.7965 142.121 89.2476 141.382 88.8171 140.579ZM65.1787 143.035C64.4611 143.735 64.7056 144.922 65.0017 145.88C65.1016 146.203 65.4198 146.605 65.684 146.394C65.7738 146.322 65.8058 146.202 65.8327 146.091C65.9651 145.54 66.0984 144.976 66.0392 144.413C65.98 143.85 65.6901 143.278 65.1787 143.035Z" fill="#00160A"/>
<path fill-rule="evenodd" clip-rule="evenodd" d="M144.548 168.819C143.047 167.323 142.336 165.231 141.673 163.218C139.935 165.734 137.681 167.521 135.017 166.019C132.353 164.518 128.93 160.19 127.017 157.804C123.592 153.532 119.523 149.777 114.99 146.705C117.411 149.361 118.859 152.885 119.004 156.476C120.84 156.456 122.676 156.437 124.512 156.418C118.339 158.522 111.725 159.324 105.228 158.756C108.758 155.787 111.519 151.911 113.17 147.603C112.802 146.438 111.051 146.708 110.028 147.377C109.006 148.047 107.683 148.896 106.698 148.173C105.485 147.282 105.568 144.492 104.129 144.928C100.39 146.061 95.9582 143.811 94.6669 140.124C93.7851 140.675 92.9033 141.226 92.0215 141.778C91.597 140.412 93.5629 139.357 94.8879 139.895C96.2128 140.434 96.9892 141.774 97.9079 142.87C98.8267 143.966 100.301 144.934 101.612 144.363C104.056 143.298 107.27 145.221 107.488 147.877C109.382 146.356 111.982 145.753 114.352 146.285C112.84 144.094 111.152 142.024 109.31 140.102C110.711 138.236 112.442 136.62 114.399 135.351C113.438 137.167 112.107 138.786 110.51 140.079C118.699 148.107 126.888 156.135 135.077 164.164C135.592 164.669 136.183 165.208 136.905 165.218C137.696 165.229 138.334 164.605 138.873 164.027C142.717 159.903 146.56 155.778 150.403 151.654C151.405 150.579 152.458 149.395 152.608 147.934C152.797 146.099 151.516 144.471 150.293 143.091C145.372 137.535 140.136 132.258 134.618 127.294C132.198 125.117 129.008 122.852 125.964 124.005C122.29 125.397 121.416 130.925 117.643 132.017C118.771 130.466 119.899 128.915 121.027 127.365C118.791 125.747 115.993 122.135 115.847 119.379C117.643 117.743 119.857 116.504 121.693 115.555C119.857 111.231 120.075 110.333 122.53 109.742C124.986 109.152 127.113 108.567 129.37 107.812C135.626 105.72 138.612 95.7985 133.361 91.6776C130.472 89.4106 108.819 67.1576 99.5219 58.953C100.226 62.0932 96.0893 65.054 93.344 63.3747C93.8707 65.1848 92.6045 67.3754 90.7345 67.6142C88.8645 67.853 87.0403 65.7795 87.6948 64.0116C88.2582 62.4898 90.0609 61.8603 91.1076 60.6204C92.1544 59.3805 91.2414 56.6554 89.8187 57.4359C89.0674 60.46 84.6449 61.7484 82.387 59.601C81.5922 58.8451 80.551 58.6592 79.4863 58.8378C78.182 59.0567 75.9258 59.5629 74.961 60.4982C73.4495 61.9633 73.1084 64.1037 71.3088 65.0983C71.022 65.2568 70.7214 65.3928 70.4037 65.501C68.0936 66.2883 64.859 64.0022 66.0585 61.8766C59.4853 67.9374 54.9729 76.1942 53.4217 84.9995C56.8525 85.9777 57.5039 90.4832 57.4942 94.0508C53.6239 95.0327 57.2648 102.42 53.9174 104.597C50.1017 107.079 51.1625 112.85 52.6735 117.144C48.8055 108.819 48.3401 98.9732 51.4057 90.3211C51.1028 95.8102 50.7998 101.299 50.4968 106.788C53.0922 106.409 54.1406 103.246 54.3552 100.631C54.5698 98.0171 54.733 94.9412 56.931 93.5096C56.1105 91.418 55.7738 89.1383 55.9547 86.8989C54.9995 86.5905 54.0442 86.2821 53.089 85.9738C52.5152 90.0153 48.0263 92.0033 44.3246 93.7241C40.3285 95.5818 36.5689 97.9477 33.1651 100.747C29.5142 103.749 26.0375 107.877 26.4419 112.586C26.8306 117.114 30.7327 120.577 34.8293 122.545C30.4425 122.536 26.6773 118.633 25.9701 114.304C25.263 109.974 27.1494 105.52 30.0987 102.273C33.048 99.0254 36.9589 96.8178 40.9246 94.9424C46.1179 92.4865 52.4172 89.301 52.611 83.5596C52.7725 78.7735 58.0219 74.0827 55.5072 70.0073C51.975 64.2828 50.0047 57.6049 49.8638 50.8798C49.7943 47.562 50.3999 43.8064 53.1196 41.9049C54.4737 40.9583 56.1583 40.6277 57.7997 40.4392C63.8867 39.7402 70.1576 40.7156 75.7448 43.2303C79.0423 44.7145 82.6434 46.7717 86.0366 45.5218C93.9484 42.6076 102.364 41.0674 110.795 40.9909C111.919 40.9806 112.852 40.1554 113.635 39.3486C116.714 36.1739 119.284 32.5003 122.635 29.6139C125.986 26.7275 130.444 24.6495 134.775 25.5428C139.31 26.478 142.695 30.5162 144.177 34.903C145.658 39.2897 145.574 44.029 145.474 48.658C145.295 56.948 155.693 61.4626 158.376 69.3082C159.959 73.934 165.179 76.0775 169.873 77.4423C174.568 78.8071 179.826 80.3191 182.246 84.5672C184.5 88.524 183.385 93.7075 180.725 97.403C178.064 101.099 174.125 103.631 170.282 106.074C164.061 110.029 165.807 120.145 160.8 125.556C158.275 128.284 159.137 132.637 160.447 136.115C161.757 139.593 163.368 143.462 161.883 146.869C161.073 141.41 159.649 136.042 157.647 130.899C154.856 132.929 156.269 137.295 157.933 140.318C160.03 144.128 162.127 147.938 164.224 151.748C165.096 153.332 165.998 155.078 165.684 156.859C165.326 158.896 163.511 160.305 161.83 161.51C157.992 164.26 154.154 167.011 150.315 169.761C148.593 170.995 146.049 170.316 144.548 168.819ZM152.739 133.704C152.403 133.326 151.787 133.511 151.327 133.723C150.866 133.936 150.405 134.149 149.944 134.362C149.843 134.408 149.731 134.456 149.624 134.427C149.421 134.372 149.387 134.072 149.514 133.906C149.641 133.739 149.857 133.672 150.056 133.607C150.481 133.469 150.896 133.3 151.295 133.101C151.524 132.987 151.769 132.837 151.831 132.589C151.894 132.342 151.609 132.041 151.399 132.186C150.78 132.612 150.084 132.926 149.355 133.107C149.136 133.161 148.795 133.093 148.847 132.874C148.866 132.79 148.945 132.734 149.018 132.688C149.668 132.279 150.378 131.965 151.119 131.758C151.385 131.683 151.319 131.235 151.065 131.125C150.811 131.015 150.521 131.126 150.267 131.237C149.653 131.504 149.04 131.772 148.426 132.039C148.294 132.097 148.147 132.172 148.111 132.311C148.08 132.436 148.152 132.562 148.222 132.67C148.668 133.368 149.114 134.067 149.56 134.765C149.628 134.872 149.705 134.985 149.825 135.024C149.955 135.067 150.095 135.008 150.219 134.95C151.068 134.554 151.909 134.138 152.739 133.704ZM110.815 57.7414C109.371 57.7661 108.286 56.124 108.555 54.7047C108.824 53.2854 110.1 52.2233 111.482 51.8025C113.36 51.2307 115.602 51.5653 117.099 50.2953C117.771 49.7248 118.181 48.9054 118.794 48.2709C120.128 46.8879 122.45 46.5953 124.086 47.6039C124.454 46.6399 123.367 45.7079 122.35 45.5363C121.332 45.3646 120.235 45.5696 119.298 45.1382C117.652 44.3803 115.714 45.3539 114.397 46.5982C113.079 47.8426 111.999 49.41 110.375 50.2146C108.751 51.0193 106.295 50.5705 105.848 48.8142C105.709 48.2669 105.692 47.5418 105.158 47.3573C104.316 47.0663 103.878 46.0834 103.928 45.1942C103.978 44.3049 104.405 43.4863 104.822 42.6993C103.172 42.6162 101.516 42.6674 99.8744 42.8522C99.4806 42.8966 98.98 43.0628 98.9809 43.459C98.9827 44.2779 98.2225 44.8653 97.5394 45.3168C96.0935 46.2725 94.6476 47.2282 93.2017 48.1839C93.2472 49.1385 94.6545 49.3668 95.4789 48.8834C96.3033 48.4 96.884 47.5358 97.7727 47.1844C98.2473 46.9968 98.7686 46.9738 99.2786 46.953C100.15 46.9176 101.021 46.8821 101.892 46.8467C103.008 46.8013 104.514 47.0847 104.573 48.2003C104.621 49.1152 103.606 49.6497 102.955 50.2951C101.475 51.764 101.48 54.6073 99.5375 55.3656C98.8472 55.635 98.6615 56.5912 98.9644 57.2676C99.2672 57.944 99.8987 58.4037 100.496 58.8421C110.925 66.4942 129.093 86.222 129.49 86.2748C129.888 86.3275 130.354 86.0423 130.332 85.6419C130.274 84.6067 130.218 83.5527 130.472 82.5473C130.725 81.5419 131.339 80.5741 132.287 80.1537C133.161 79.7663 134.432 79.6786 134.621 78.742C135.044 76.6466 137.141 75.0263 139.276 75.1462C140.324 75.2051 141.481 75.6052 142.354 75.0209C141.65 74.3533 140.61 74.2156 139.738 73.7918C138.865 73.368 138.098 72.2951 138.619 71.4771C139.389 70.269 138.267 68.6892 138.498 67.2753C138.596 66.6752 138.935 66.144 139.293 65.6529C140.508 63.9879 142.042 62.557 143.788 61.4613C144.194 61.2065 144.295 60.6702 144.359 60.1953C144.513 59.0487 144.668 57.9021 144.822 56.7555C144.93 55.9556 145.003 55.0376 144.454 54.4459C142.667 52.5202 139.693 52.4571 137.068 52.5428C134.443 52.6285 131.476 52.5947 129.658 50.6995C129.093 50.1112 128.062 50.3112 127.45 50.8496C126.838 51.3879 126.499 52.1631 126.044 52.8391C124.62 54.9509 121.864 56.0702 119.371 55.5488C118.035 55.2695 116.689 54.5659 115.378 54.9427C113.631 55.445 112.634 57.7104 110.815 57.7414ZM160.988 109.719C161.069 110.01 161.186 110.343 161.472 110.441C161.701 110.52 161.948 110.412 162.167 110.307C162.892 109.958 163.617 109.608 164.343 109.259C164.715 109.08 165.133 108.842 165.199 108.434C166.542 100.164 166.153 91.6159 164.065 83.5015C163.571 81.5826 162.982 79.6839 162.197 77.8645C161.194 75.5405 159.88 73.3651 158.531 71.2232C156.59 68.1402 154.567 65.1086 152.466 62.1326C152.076 62.7407 151.96 63.4774 151.761 64.172C151.563 64.8666 151.23 65.5867 150.592 65.9254C149.954 66.2641 148.974 65.9766 148.861 65.2631C148.616 63.7207 146.961 62.5545 145.426 62.8432C145.096 62.9053 144.987 63.3157 144.946 63.649C144.573 66.6787 144.199 69.7085 143.825 72.7382C143.798 72.9585 143.787 73.2206 143.96 73.3593C144.104 73.4748 144.31 73.449 144.495 73.4463C145.539 73.4306 146.45 74.5216 146.249 75.5466C146.047 76.5716 144.79 77.2359 143.83 76.8255C143.415 76.6483 143.09 77.2104 142.986 77.6492C142.359 80.2977 141.731 82.9462 141.104 85.5948C140.919 86.3759 141.593 87.1132 142.319 87.4565C143.045 87.7998 143.874 87.924 144.54 88.3725C146.208 89.4957 146.136 92.0503 147.484 93.5417C148.583 94.7567 150.616 94.9777 151.95 94.0272C153.144 93.1767 153.663 91.6235 153.663 90.1579C153.664 89.1585 154.284 88.1854 155.191 87.7637C156.097 87.3421 157.241 87.4938 158.006 88.1371C158.751 88.7636 159.088 89.7373 159.393 90.6617C159.528 91.0693 159.663 91.5142 159.518 91.9184C159.282 92.5794 158.47 92.7752 157.805 93.0022C156.585 93.4191 155.516 94.2634 154.827 95.3534C154.491 95.8855 154.263 96.6314 154.679 97.1035C155.696 98.2571 156.713 99.4107 157.729 100.564C158.261 101.168 158.809 101.8 159.022 102.575C159.678 104.956 160.333 107.337 160.988 109.719ZM57.4221 71.7963C59.0153 68.8227 60.6243 65.8256 62.7887 63.2379C64.6842 60.9717 66.9672 59.0662 69.2471 57.187C72.2507 54.7112 75.2726 52.2576 78.3125 49.8264C79.5778 48.8145 80.8629 47.7961 82.338 47.126C77.9154 45.1771 73.4645 43.2185 68.7691 42.0737C64.0737 40.929 59.0724 40.6305 54.4394 42.0061C53.9931 42.1386 53.5447 42.2894 53.1594 42.5508C52.5087 42.9922 52.0977 43.7073 51.7894 44.4307C50.5777 47.2734 50.6457 50.4944 51.0399 53.5595C51.8674 59.994 54.0567 66.25 57.4221 71.7963ZM157.279 160.046C157.237 160.478 156.771 160.884 156.38 160.696C156.195 160.608 156.083 160.42 155.981 160.242C154.421 157.518 152.861 154.795 151.301 152.072C150.295 152.45 149.811 153.664 149.924 154.733C150.037 155.803 150.607 156.762 151.164 157.682C152.015 159.089 152.867 160.497 153.718 161.904C153.271 162.365 152.55 161.752 152.218 161.202C151.037 159.241 149.855 157.279 148.674 155.318C146.417 157.639 144.16 159.96 141.904 162.281C143.373 164.578 144.843 166.875 146.313 169.172C146.659 169.714 147.401 169.887 148.029 169.751C148.657 169.615 149.2 169.233 149.723 168.861C153.662 166.06 157.6 163.259 161.539 160.458C161.838 160.245 162.159 160.002 162.247 159.645C162.339 159.272 162.148 158.893 161.963 158.557C153.053 142.349 143.545 126.471 133.463 110.966C133.166 110.509 132.791 110.005 132.247 109.969C131.885 109.945 131.55 110.142 131.241 110.333C127.242 112.793 123.243 115.254 119.245 117.714C118.504 118.17 117.764 118.626 117.024 119.081C116.831 119.2 116.623 119.337 116.559 119.554C116.483 119.81 116.634 120.074 116.78 120.298C118.236 122.535 119.774 124.72 121.389 126.847C123.297 124.793 125.567 122.581 128.37 122.65C130.789 122.71 132.786 124.47 134.548 126.129C135.579 127.1 136.61 128.07 137.641 129.041C136.011 125.988 134.085 123.094 131.898 120.414C131.803 119.962 132.598 120.086 132.904 120.43C135.957 123.864 137.637 128.377 140.852 131.659C144.137 135.014 147.422 138.368 150.706 141.723C152.102 143.147 153.582 144.757 153.692 146.748C153.793 148.567 152.715 150.221 151.631 151.685C153.542 153.94 155.289 156.334 156.856 158.841C157.086 159.209 157.32 159.614 157.279 160.046ZM122.49 43.0736C123.873 43.3477 125.258 43.6223 126.615 44.0054C130.111 44.9924 133.361 46.6814 136.582 48.359C139.394 49.8231 142.221 51.2969 144.745 53.2153C145.019 46.3573 144.747 39.5478 142.465 33.0747C141.807 31.2081 140.218 29.1953 138.672 27.9596C136.856 26.5087 134.336 26.2533 132.036 26.5824C128.017 27.1573 124.357 29.3095 121.343 32.0283C118.328 34.747 115.884 38.0273 113.46 41.2841C116.47 41.8806 119.48 42.4771 122.49 43.0736ZM162.859 76.3612C166.742 86.2673 168.01 97.185 166.501 107.717C171.429 104.893 175.833 101.16 179.425 96.7607C181.215 94.5686 182.874 91.9885 182.757 89.1608C182.661 86.8371 181.339 84.6919 179.594 83.155C177.848 81.618 175.704 80.613 173.55 79.737C170.085 78.3279 166.506 77.1978 162.859 76.3612ZM155.245 93.2986C156.157 92.6291 157.134 92.0469 158.156 91.5623C158.154 90.9098 158.147 90.2359 157.885 89.6382C157.623 89.0405 157.035 88.5347 156.384 88.5795C155.7 88.6267 155.184 89.2516 154.966 89.9023C154.749 90.5529 154.745 91.2545 154.595 91.9238C154.18 93.7747 152.539 95.2855 150.66 95.548C148.782 95.8104 146.79 94.8068 145.883 93.1406C145.152 91.7979 145.043 90.0603 143.878 89.0697C143.233 88.5209 142.375 88.3103 141.55 88.1164C141.359 88.0714 141.155 88.0268 140.969 88.0904C140.67 88.1927 140.53 88.5269 140.425 88.8249C139.719 90.8207 139.013 92.8166 138.307 94.8124C138.046 95.5507 137.831 96.4945 138.415 97.0167C143.803 101.839 145.996 109.509 151.477 114.227C151.639 114.367 151.839 114.513 152.047 114.464C154.661 113.843 157.196 112.887 159.569 111.627C159.758 111.527 159.954 111.416 160.063 111.231C160.173 111.044 160.172 110.815 160.161 110.598C160.083 109.107 159.639 107.636 158.88 106.35C158.521 105.741 158.081 105.141 158.012 104.438C157.954 103.838 158.177 103.222 158.035 102.636C157.918 102.158 157.575 101.772 157.244 101.407C156.308 100.377 155.373 99.3475 154.437 98.3176C153.974 97.8081 153.493 97.2647 153.351 96.5912C153.075 95.279 154.164 94.0919 155.245 93.2986ZM96.5958 62.9761C97.6997 62.312 98.3687 60.9874 98.248 59.7048C98.0718 57.8332 96.4599 56.4693 94.972 55.3204C92.5341 53.4379 86.9593 48.8639 84.5082 47.8807C82.0571 46.8976 71.2128 56.5709 67.4445 60.2797C67.2542 60.4671 67.0557 60.6713 67.0027 60.933C66.9497 61.1947 65.798 64.0111 68.1166 64.6956C70.4352 65.3801 70.6838 64.8527 71.631 64.0111C72.5781 63.1695 73.1296 61.9756 73.5746 60.7892C73.9547 59.776 75.104 59.2911 76.1644 59.0751C77.2248 58.8591 78.3674 58.7787 79.2445 58.1448C80.158 57.4847 81.4335 57.5231 82.4747 57.9547C83.5158 58.3862 84.3756 59.154 85.2135 59.9077C85.9135 60.5374 87.0453 59.8333 87.4768 58.9964C87.9083 58.1595 88.0896 57.1269 88.8443 56.564C89.9235 55.759 91.5795 56.4795 92.244 57.6503C93.189 59.3155 92.5209 61.6931 90.8469 62.6224C89.8769 63.1609 88.4573 63.5218 88.4186 64.6306C88.3993 65.1819 88.7842 65.6668 89.2131 66.0138C89.9824 66.6361 91.2352 66.9315 91.8907 66.1901C92.8247 65.1336 91.7816 62.901 93.0753 62.3398C94.2179 61.8442 95.5287 63.6182 96.5958 62.9761ZM126.095 51.1572C126.482 50.5568 126.87 49.8992 127.516 49.5932C128.341 49.2021 129.331 49.5127 130.114 49.9829C130.896 50.4532 131.595 51.0824 132.454 51.3934C133.327 51.7099 134.285 51.6672 135.213 51.6203C136.756 51.5424 138.3 51.4646 139.843 51.3867C130.513 45.9806 120.018 42.1893 109.235 42.0827C108.326 42.0738 107.397 42.0945 106.544 42.4089C105.691 42.7234 104.916 43.3852 104.698 44.2675C104.365 45.6111 105.587 47.0473 106.971 47.0901C106.248 47.6192 106.359 48.8481 107.048 49.421C107.736 49.9939 108.767 49.9894 109.593 49.6444C110.42 49.2994 111.089 48.6703 111.74 48.0543C112.95 46.9077 114.16 45.7611 115.37 44.6145C116.13 43.8939 117.314 43.8633 118.342 44.0667C119.37 44.27 120.376 44.6637 121.423 44.6382C123.623 44.5848 125.571 46.8427 125.195 49.0104C124.208 48.0795 122.772 47.6481 121.436 47.8807C120.099 48.1134 118.893 49.0047 118.279 50.2143C117.781 51.195 116.669 51.7133 115.587 51.9151C114.506 52.1168 113.389 52.0746 112.312 52.2972C111.234 52.5198 110.136 53.0869 109.696 54.0947C109.255 55.1026 109.831 56.5401 110.926 56.6417C112.202 56.76 112.947 55.262 114.02 54.562C115.041 53.8958 116.374 53.983 117.566 54.242C118.757 54.5009 119.948 54.9093 121.163 54.8042C123.274 54.6216 124.947 52.9383 126.095 51.1572ZM160.263 112.591C157.819 113.533 155.374 114.476 152.929 115.419C152.589 115.55 152.175 115.885 152.379 116.187C154.711 119.628 156.506 123.433 157.68 127.421C157.794 127.809 158.383 127.519 158.614 127.186C160.752 124.095 162.457 120.704 163.663 117.144C163.881 116.5 164.084 115.804 163.897 115.15C163.603 114.122 162.498 113.604 161.684 112.911C161.459 112.719 161.232 112.498 160.94 112.455C160.709 112.422 160.48 112.507 160.263 112.591ZM132.06 82.0206C130.937 83.2131 131.881 85.2332 131.304 86.7663C131.176 87.1062 130.969 87.4647 131.087 87.8081C131.146 87.9792 131.277 88.1134 131.405 88.2414C131.804 88.6416 132.204 89.0417 132.603 89.4419C132.917 89.7559 133.425 90.0814 133.752 89.781C135.095 88.5458 136.722 87.6212 138.47 87.0994C138.974 86.9492 139.519 86.8133 139.87 86.4227C140.18 86.0782 140.28 85.599 140.368 85.1441C140.862 82.5969 141.352 80.0492 141.839 77.5007C141.877 77.3019 141.914 77.0887 141.833 76.9031C141.747 76.7064 141.548 76.5858 141.354 76.4935C139.388 75.5566 136.742 76.5167 135.834 78.497C135.526 79.1692 135.384 79.9474 134.866 80.4755C134.112 81.2451 132.799 81.2361 132.06 82.0206ZM92.8428 49.4392C92.4626 49.0941 92.0693 48.661 92.1068 48.1488C92.1467 47.603 92.6523 47.2265 93.1104 46.9269C94.7334 45.8654 96.3564 44.8039 97.9794 43.7423C97.9399 43.4271 97.498 43.3938 97.1855 43.4506C92.9829 44.2149 88.8655 45.4467 84.9337 47.1162C89.3185 49.8192 93.525 52.8112 97.5169 56.0664C98.0013 54.9667 99.2482 54.4254 99.9863 53.4771C100.919 52.2792 100.989 50.5002 102.135 49.5055C102.698 49.0174 103.534 48.679 103.647 47.9426C102.662 47.9495 101.678 47.9564 100.693 47.9633C99.4955 47.9717 98.2205 48.0027 97.2254 48.6691C96.3569 49.2507 95.6895 50.3085 94.6446 50.3384C93.9562 50.358 93.3527 49.9022 92.8428 49.4392ZM141.926 114.935C142.69 116.305 143.454 117.676 144.218 119.046C142.818 114.592 141.149 110.223 139.222 105.97C139.154 105.819 139.075 105.657 138.929 105.58C138.748 105.484 138.528 105.547 138.334 105.612C132.906 107.427 127.478 109.242 122.05 111.056C121.885 111.112 121.707 111.177 121.618 111.327C121.512 111.507 121.575 111.735 121.647 111.932C121.965 112.809 122.381 113.652 122.885 114.437C126.289 112.456 129.693 110.476 133.098 108.495C133.622 108.19 134.173 107.877 134.779 107.854C135.28 107.835 135.768 108.019 136.215 108.245C138.875 109.586 140.475 112.334 141.926 114.935ZM117.282 152C116.597 150.539 115.423 149.343 114.075 148.455C112.42 151.53 110.521 154.474 108.401 157.249C108.239 157.461 108.179 157.895 108.446 157.877C111.03 157.695 113.615 157.513 116.2 157.331C116.719 157.295 117.342 157.186 117.533 156.702C118.124 155.201 117.966 153.462 117.282 152ZM156.307 130.441C156.517 130.121 156.73 129.791 156.814 129.418C156.927 128.924 156.803 128.41 156.669 127.922C155.644 124.165 154.031 120.579 152.018 117.245C151.784 116.857 151.532 116.459 151.15 116.215C150.769 115.97 150.22 115.925 149.887 116.233C149.442 116.644 149.611 117.37 149.814 117.94C151.418 122.462 153.023 126.983 154.628 131.505C154.724 131.774 154.942 132.105 155.208 132.002C155.312 131.962 155.379 131.863 155.44 131.77C155.729 131.327 156.018 130.884 156.307 130.441ZM140.201 72.9347C140.665 73.3265 141.282 73.4749 141.874 73.6114C142.349 73.7209 142.63 73.1015 142.712 72.6211C143.261 69.4131 143.613 66.1751 143.966 62.9395C143.696 62.825 143.41 63.0452 143.2 63.2489C142.445 63.9814 141.69 64.7139 140.935 65.4465C140.41 65.9564 139.86 66.5071 139.694 67.2202C139.376 68.5775 140.533 70.1241 139.802 71.3108C139.483 71.8281 139.736 72.543 140.201 72.9347ZM138.556 98.598C138.375 98.3941 138.179 98.1841 137.92 98.1C137.66 98.0159 137.322 98.1111 137.232 98.3686C136.428 100.668 135.624 102.967 134.82 105.267C134.744 105.485 134.795 105.853 135.017 105.788C136.373 105.388 137.624 104.68 138.985 104.3C140.347 103.919 141.939 103.924 143.026 104.827C141.758 102.603 140.257 100.512 138.556 98.598ZM150.168 64.9738C150.576 63.8677 150.984 62.7616 151.392 61.6555C151.471 61.4411 151.314 61.2179 151.167 61.0429C149.711 59.3088 148.243 57.5627 146.481 56.1414C146.406 56.0809 146.321 56.0177 146.224 56.0229C146.041 56.0327 145.968 56.2605 145.942 56.4421C145.723 57.9844 145.503 59.5267 145.284 61.0691C145.22 61.5185 145.634 61.9091 146.068 62.042C146.502 62.175 146.969 62.138 147.416 62.221C148.239 62.3742 148.968 62.9633 149.29 63.736C149.495 64.2262 149.646 64.8781 150.168 64.9738ZM137.153 94.7665C137.924 92.7952 138.631 90.799 139.272 88.7819C139.316 88.646 139.359 88.4987 139.313 88.3637C139.191 88.0034 138.657 88.0967 138.317 88.2671C136.981 88.9367 135.695 89.7085 134.476 90.5737C134.325 90.6812 134.159 90.8167 134.154 91.0022C134.149 91.1426 134.24 91.2661 134.326 91.3768C135.232 92.5368 136.175 93.6674 137.153 94.7665ZM148.46 127.258C148.316 127.101 148.079 127.076 147.865 127.08C147.382 127.088 146.9 127.186 146.452 127.369C146.232 127.459 146.013 127.57 145.776 127.582C145.538 127.594 145.272 127.471 145.213 127.24C145.841 126.791 146.603 126.532 147.374 126.504C147.717 126.491 147.727 125.909 147.426 125.744C147.124 125.579 146.753 125.7 146.433 125.823C145.903 126.026 145.374 126.23 144.844 126.433C144.69 126.493 144.531 126.306 144.554 126.143C144.576 125.979 144.709 125.855 144.84 125.754C145.316 125.391 145.885 125.148 146.477 125.057C146.76 125.013 146.805 124.575 146.599 124.378C146.393 124.18 146.075 124.167 145.79 124.182C144.96 124.225 144.138 124.405 143.366 124.712C144.024 125.893 144.696 127.067 145.382 128.232C145.56 128.534 145.753 128.849 146.06 129.016C146.613 128.318 147.453 127.856 148.338 127.762C148.551 127.74 148.605 127.416 148.46 127.258ZM159.8 148.57C159.292 148.7 158.79 148.848 158.293 149.013C158.157 149.059 158 149.129 157.977 149.271C157.963 149.355 158.003 149.438 158.043 149.513C158.335 150.074 158.626 150.635 158.918 151.196C159.037 151.423 159.275 151.69 159.496 151.56C160.224 151.132 161.037 150.85 161.873 150.734C162.103 150.702 162.254 150.456 162.259 150.223C162.264 149.991 162.161 149.772 162.061 149.562C161.889 149.203 161.699 148.825 161.361 148.616C160.905 148.334 160.319 148.438 159.8 148.57ZM161.758 154.733C161.559 154.77 161.33 154.829 161.252 155.016C161.189 155.167 161.256 155.339 161.322 155.49C161.575 156.064 161.828 156.638 162.081 157.212C162.16 157.392 162.265 157.593 162.456 157.636C162.593 157.666 162.731 157.604 162.856 157.544C163.247 157.357 163.637 157.17 164.027 156.983C164.246 156.878 164.479 156.761 164.599 156.55C164.72 156.338 164.656 156.007 164.421 155.942C164.296 155.908 164.164 155.957 164.047 156.014C163.698 156.184 163.383 156.43 163.01 156.539C162.637 156.647 162.162 156.564 161.985 156.218C162.904 155.892 163.782 155.452 164.594 154.911C164.521 154.404 163.81 154.359 163.306 154.451C162.79 154.545 162.274 154.639 161.758 154.733ZM154.25 141.547C154.399 141.385 154.616 141.305 154.824 141.231C155.396 141.028 155.969 140.824 156.541 140.621C156.839 140.515 156.766 140.02 156.485 139.876C156.204 139.731 155.865 139.821 155.563 139.914C154.909 140.116 154.254 140.318 153.599 140.519C153.514 140.545 153.424 140.574 153.364 140.641C153.227 140.793 153.319 141.031 153.417 141.211C153.676 141.69 153.935 142.17 154.195 142.649C154.225 142.705 154.259 142.764 154.317 142.791C154.386 142.824 154.468 142.799 154.541 142.774C155.337 142.499 156.134 142.223 156.931 141.948C157.121 141.882 157.349 141.762 157.333 141.561C157.311 141.288 156.91 141.286 156.649 141.369C155.829 141.629 155.01 141.889 154.19 142.149C154.046 141.982 154.1 141.71 154.25 141.547ZM164.434 110.285C163.729 110.683 163.023 111.082 162.318 111.481C162.233 111.529 162.144 111.581 162.098 111.666C161.975 111.893 162.218 112.139 162.432 112.282C162.871 112.576 163.31 112.87 163.748 113.164C163.835 113.222 163.928 113.282 164.032 113.283C164.268 113.285 164.39 113.007 164.45 112.779C164.645 112.046 164.84 111.313 165.034 110.579C165.059 110.487 165.082 110.386 165.043 110.3C164.948 110.091 164.634 110.172 164.434 110.285ZM155.147 143.189C154.977 143.233 154.783 143.297 154.719 143.461C154.671 143.583 154.714 143.721 154.77 143.839C154.913 144.144 155.139 144.41 155.417 144.6C156.157 144.317 156.897 144.035 157.637 143.752C157.956 143.631 158.332 143.426 158.319 143.086C158.309 142.843 158.079 142.654 157.84 142.607C157.601 142.56 157.355 142.621 157.119 142.682C156.462 142.851 155.804 143.02 155.147 143.189ZM144.424 116.565C144.682 117.071 145.323 117.217 145.884 117.308C146.778 117.453 147.672 117.598 148.566 117.743C148.581 117.236 148.058 116.898 147.593 116.694C146.741 116.321 145.851 116.033 144.942 115.835C144.844 115.814 144.741 115.794 144.644 115.817C144.353 115.887 144.287 116.299 144.424 116.565ZM141.11 116.183C141.18 116.156 141.25 116.129 141.311 116.085C141.578 115.889 141.496 115.428 141.224 115.24C140.952 115.051 140.583 115.077 140.268 115.176C139.952 115.275 139.657 115.44 139.334 115.513C138.898 115.611 138.327 115.607 138.16 116.022C138.017 116.376 138.345 116.777 138.718 116.859C139.091 116.941 139.473 116.804 139.83 116.668C140.257 116.506 140.683 116.345 141.11 116.183ZM142.826 119.379C143.186 119.144 143.019 118.525 142.636 118.329C142.253 118.133 141.793 118.225 141.373 118.321C140.931 118.422 140.459 118.54 140.158 118.88C139.856 119.219 139.857 119.854 140.268 120.047C140.826 120.308 141.35 119.571 141.96 119.479C142.251 119.436 142.579 119.54 142.826 119.379ZM155.473 139.21C155.593 139.17 155.721 139.124 155.799 139.023C155.886 138.911 155.889 138.751 155.84 138.618C155.725 138.306 155.366 138.14 155.034 138.146C154.702 138.152 154.389 138.293 154.088 138.432C153.703 138.608 153.319 138.785 152.935 138.961C152.724 139.058 152.485 139.19 152.45 139.419C152.415 139.653 152.629 139.865 152.86 139.915C153.091 139.964 153.329 139.895 153.555 139.825C154.197 139.628 154.836 139.422 155.473 139.21ZM157.204 147.345C158.031 146.997 158.858 146.649 159.686 146.301C159.764 146.268 159.845 146.233 159.902 146.17C160.07 145.984 159.916 145.66 159.682 145.57C159.448 145.481 159.187 145.55 158.946 145.62C158.387 145.782 157.828 145.944 157.268 146.106C156.959 146.195 156.613 146.316 156.483 146.61C156.305 147.013 156.798 147.515 157.204 147.345ZM162.789 152.168C163.119 152.04 162.999 151.483 162.67 151.35C162.342 151.216 161.974 151.353 161.641 151.476C160.99 151.716 160.319 151.901 159.636 152.03C159.398 152.35 159.688 152.841 160.072 152.95C160.456 153.058 160.86 152.913 161.232 152.769C161.751 152.569 162.27 152.368 162.789 152.168ZM145.175 115.091C145.842 115.265 146.509 115.44 147.175 115.615C147.429 115.681 147.82 115.644 147.802 115.383C146.65 114.586 145.326 114.043 143.947 113.8C143.874 113.787 143.797 113.776 143.727 113.801C143.488 113.888 143.579 114.258 143.759 114.438C144.132 114.81 144.666 114.957 145.175 115.091ZM147.694 112.515C147.93 113.082 148.166 113.649 148.402 114.216C148.544 114.557 148.703 114.92 149.016 115.117C149.33 115.313 149.839 115.23 149.942 114.875C150.02 114.604 149.837 114.334 149.663 114.112C149 113.265 148.316 112.435 147.613 111.62C147.458 111.889 147.575 112.228 147.694 112.515ZM146.552 113.581C146.678 113.624 146.83 113.663 146.931 113.577C147.049 113.477 147.007 113.284 146.926 113.151C146.634 112.67 146.043 112.48 145.502 112.326C144.774 112.119 144.046 111.913 143.318 111.706C143.092 111.642 142.922 111.972 143.028 112.182C143.134 112.392 143.377 112.486 143.599 112.563C144.584 112.902 145.568 113.241 146.552 113.581ZM156.284 144.838C156.079 144.9 155.857 144.975 155.745 145.157C155.546 145.481 155.837 145.903 156.179 146.069C156.95 145.441 157.934 145.078 158.929 145.054C159.267 145.046 159.297 144.479 159.01 144.299C158.723 144.12 158.35 144.212 158.026 144.31C157.445 144.486 156.865 144.662 156.284 144.838ZM153.051 135.977C152.582 136.101 152.113 136.225 151.643 136.349C151.213 136.463 150.674 136.745 150.777 137.178C150.865 137.546 151.38 137.63 151.725 137.475C152.071 137.319 152.334 137.018 152.679 136.86C153.241 136.6 154.033 136.695 154.348 136.162C154.079 135.78 153.502 135.858 153.051 135.977ZM135.464 111.162C135.374 111.201 135.281 111.245 135.221 111.323C135.068 111.525 135.235 111.839 135.473 111.927C135.71 112.016 135.974 111.952 136.22 111.893C137.048 111.695 137.891 111.558 138.739 111.483C138.821 111.018 138.213 110.757 137.741 110.738C136.963 110.707 136.179 110.853 135.464 111.162ZM149.186 129.202C149.43 128.944 149.292 128.37 148.944 128.438C148.022 128.618 147.133 128.967 146.335 129.462C146.148 129.842 146.665 130.236 147.083 130.17C147.501 130.104 147.837 129.797 148.229 129.637C148.557 129.503 148.943 129.46 149.186 129.202ZM149.692 120.87C149.582 120.732 149.408 120.667 149.242 120.608C148.436 120.32 147.63 120.031 146.824 119.743C146.604 119.664 146.357 119.586 146.142 119.68C145.928 119.774 145.842 120.129 146.052 120.233C147.085 120.744 148.182 121.122 149.31 121.357C149.427 121.381 149.558 121.402 149.659 121.338C149.808 121.243 149.801 121.008 149.692 120.87ZM145.897 111.389C146.012 111.458 146.163 111.329 146.166 111.195C146.169 111.062 146.08 110.945 145.989 110.847C145.124 109.902 143.853 109.461 142.638 109.055C142.33 108.952 141.879 108.917 141.789 109.229C143.194 109.879 144.566 110.601 145.897 111.389ZM163.821 153.29C163.748 153.037 163.481 152.879 163.219 152.853C162.957 152.826 162.697 152.904 162.445 152.981C162.005 153.116 161.566 153.25 161.126 153.385C160.822 153.477 160.453 153.66 160.479 153.977C160.499 154.234 160.8 154.388 161.057 154.364C161.314 154.339 161.541 154.194 161.774 154.082C162.283 153.838 162.863 153.747 163.422 153.823C163.683 153.859 163.893 153.543 163.821 153.29ZM136.249 113.088C136.245 113.326 136.431 113.553 136.665 113.596C136.817 113.624 136.971 113.582 137.119 113.541C137.975 113.302 138.831 113.064 139.687 112.825C139.7 112.585 139.492 112.377 139.262 112.307C139.031 112.238 138.784 112.273 138.545 112.31C137.924 112.404 137.302 112.499 136.681 112.593C136.446 112.629 136.253 112.85 136.249 113.088ZM150.384 130.205C150.418 129.982 150.198 129.784 149.974 129.756C149.75 129.728 149.529 129.82 149.322 129.909C148.661 130.194 148.001 130.479 147.341 130.765C147.144 131.014 147.386 131.409 147.696 131.479C148.005 131.55 148.319 131.408 148.605 131.27C149.056 131.053 149.507 130.835 149.958 130.618C150.144 130.528 150.353 130.409 150.384 130.205ZM140.939 107.338C141.015 107.474 141.167 107.546 141.308 107.609C142.485 108.136 143.662 108.664 144.839 109.191C145.047 109.284 145.352 109.348 145.455 109.144C145.566 108.924 145.293 108.715 145.067 108.619C143.801 108.081 142.535 107.543 141.269 107.005C141.206 106.978 141.138 106.95 141.069 106.962C140.916 106.988 140.863 107.202 140.939 107.338ZM147.033 122.519C146.994 122.502 146.951 122.485 146.909 122.493C146.866 122.502 146.829 122.54 146.823 122.584C146.926 123.288 147.716 123.635 148.393 123.855C149.278 124.142 150.163 124.429 151.047 124.717C151.26 124.481 150.913 124.156 150.621 124.032C149.425 123.528 148.229 123.023 147.033 122.519ZM140.491 114.265C140.589 114.079 140.441 113.847 140.254 113.751C139.926 113.582 139.532 113.676 139.177 113.774C138.773 113.884 138.369 113.995 137.965 114.106C137.674 114.186 137.323 114.337 137.312 114.639C137.304 114.865 137.517 115.049 137.739 115.091C137.961 115.132 138.188 115.067 138.404 115.002C138.98 114.83 139.557 114.658 140.133 114.486C140.271 114.445 140.423 114.393 140.491 114.265ZM160.523 147.032C160.283 146.893 159.98 146.974 159.716 147.058C158.875 147.327 158.034 147.596 157.193 147.865C157.007 148.163 157.346 148.559 157.696 148.58C158.047 148.601 158.364 148.396 158.674 148.23C159.237 147.929 159.857 147.735 160.492 147.662C160.768 147.63 160.763 147.171 160.523 147.032ZM144.461 121.5C144.192 121.428 143.907 121.478 143.632 121.529C143.293 121.591 142.954 121.654 142.614 121.716C142.23 121.787 141.742 121.986 141.782 122.376C141.806 122.605 142.033 122.771 142.262 122.804C142.49 122.838 142.72 122.77 142.941 122.702C143.618 122.496 144.295 122.29 144.972 122.084C144.979 121.805 144.731 121.572 144.461 121.5ZM142.152 116.938C141.963 116.746 141.653 116.732 141.394 116.807C141.136 116.881 140.904 117.028 140.651 117.121C140.353 117.23 140.031 117.263 139.735 117.375C139.438 117.487 139.151 117.711 139.099 118.025C139.211 118.285 139.585 118.256 139.859 118.182C140.584 117.987 141.309 117.792 142.035 117.596C142.295 117.526 142.34 117.13 142.152 116.938ZM141.142 120.487C140.84 120.575 140.892 121.074 141.168 121.226C141.443 121.378 141.783 121.294 142.086 121.206C142.72 121.023 143.354 120.84 143.988 120.657C144.034 120.34 143.744 120.054 143.432 119.985C143.119 119.916 142.796 120.006 142.489 120.095C142.04 120.226 141.591 120.356 141.142 120.487ZM144.74 75.8791C145.143 75.5889 145.081 74.9896 145.093 74.4929C144.567 74.4287 143.992 74.3754 143.549 74.6651C143.106 74.9549 142.987 75.737 143.461 75.972C143.624 76.0528 143.814 76.0506 143.996 76.0467C144.254 76.0412 144.53 76.03 144.74 75.8791ZM145.756 118.111C145.502 118.085 145.132 118.197 145.204 118.442C145.239 118.559 145.368 118.617 145.483 118.659C146.588 119.058 147.742 119.323 148.91 119.444C149.055 119.411 149.098 119.206 149.022 119.078C148.946 118.951 148.8 118.885 148.663 118.829C147.733 118.456 146.752 118.213 145.756 118.111ZM140.613 105.845C141.569 106.336 142.543 106.791 143.533 107.21C143.725 107.291 143.943 107.372 144.136 107.292C144.33 107.213 144.403 106.89 144.212 106.806C143.087 106.314 141.962 105.821 140.836 105.329C140.658 105.25 140.403 105.194 140.306 105.364C140.2 105.55 140.423 105.747 140.613 105.845ZM150.073 122.318C149.91 122.17 149.691 122.104 149.48 122.042C148.592 121.781 147.705 121.52 146.817 121.259C146.694 121.223 146.557 121.188 146.442 121.245C146.327 121.301 146.286 121.494 146.401 121.551C147.616 122.146 148.898 122.603 150.215 122.911C150.324 122.72 150.236 122.465 150.073 122.318ZM150.769 136.019C151.402 135.795 152.035 135.571 152.668 135.347C152.947 135.249 153.246 135.135 153.405 134.886C153.365 134.663 153.123 134.523 152.897 134.518C152.67 134.514 152.456 134.612 152.25 134.708C151.696 134.967 151.141 135.226 150.586 135.485C150.385 135.579 150.155 135.717 150.151 135.938C150.255 136.141 150.554 136.095 150.769 136.019ZM145.739 123.358C145.887 123.193 145.754 122.907 145.548 122.825C145.343 122.743 145.111 122.8 144.897 122.857C144.171 123.051 143.444 123.246 142.718 123.44C142.586 123.593 142.704 123.851 142.889 123.931C143.075 124.011 143.287 123.968 143.484 123.924C144.14 123.779 144.796 123.633 145.451 123.488C145.556 123.465 145.667 123.437 145.739 123.358ZM154.617 136.974C154.467 136.941 154.314 137.001 154.172 137.059C153.398 137.375 152.623 137.692 151.849 138.008C151.624 138.1 151.715 138.481 151.942 138.564C152.17 138.647 152.419 138.539 152.637 138.434C153.303 138.112 153.968 137.789 154.634 137.467C154.709 137.431 154.79 137.389 154.827 137.314C154.895 137.176 154.767 137.007 154.617 136.974ZM148.93 124.674C148.632 124.563 148.202 124.505 148.083 124.8C149.133 125.341 150.246 125.758 151.393 126.039C151.627 125.898 151.334 125.564 151.078 125.469C150.362 125.204 149.646 124.939 148.93 124.674ZM134.489 110.167C134.289 110.395 134.486 110.827 134.79 110.824C135.483 110.371 136.293 110.099 137.119 110.039C136.857 109.712 136.403 109.588 135.985 109.62C135.567 109.653 135.173 109.82 134.787 109.984C134.679 110.03 134.567 110.079 134.489 110.167ZM151.453 127.177C151.68 127.232 152.038 127.168 151.981 126.942C151.033 126.514 150.034 126.199 149.011 126.007C148.898 126.159 148.966 126.389 149.107 126.515C149.248 126.642 149.441 126.691 149.625 126.735C150.234 126.883 150.844 127.03 151.453 127.177ZM150.736 128.365C151.267 128.53 151.817 128.633 152.371 128.673C152.482 128.526 152.419 128.302 152.283 128.178C152.147 128.054 151.961 128.004 151.783 127.959C151.217 127.815 150.651 127.671 150.086 127.527C149.881 127.881 150.346 128.245 150.736 128.365ZM162.827 158.513C162.7 158.824 162.865 159.259 163.198 159.302C163.612 158.904 163.968 158.446 164.251 157.945C164.09 157.771 163.806 157.813 163.584 157.895C163.269 158.011 162.953 158.202 162.827 158.513ZM153.971 132.687C153.701 132.436 153.368 132.253 153.011 132.161C152.954 132.667 153.244 133.194 153.702 133.415C153.812 133.469 153.942 133.505 154.054 133.457C154.338 133.337 154.197 132.897 153.971 132.687ZM152.644 129.509C152.458 129.375 152.218 129.349 151.991 129.328C151.71 129.302 151.429 129.276 151.149 129.25C151.013 129.577 151.398 129.896 151.749 129.947C152.099 129.998 152.483 129.928 152.79 130.106C152.929 129.925 152.829 129.643 152.644 129.509ZM154.819 135.677C154.929 135.771 155.064 135.854 155.208 135.839C155.259 135.15 154.794 134.509 154.214 134.133C154.146 134.705 154.381 135.303 154.819 135.677ZM153.021 131.034C152.696 130.855 152.314 130.782 151.945 130.828C152.079 131.187 152.397 131.471 152.768 131.564C152.967 131.614 153.215 131.592 153.324 131.418C153.432 131.244 153.218 130.956 153.051 131.074M134.822 108.721C134.514 108.775 134.225 108.932 134.011 109.16C134.394 109.268 134.83 109.159 135.117 108.884C135.046 108.789 134.936 108.724 134.819 108.707" fill="#00160A"/>
<path fill-rule="evenodd" clip-rule="evenodd" d="M128.213 139.359C131.356 136.34 135.766 136.766 138.851 140.078C141.534 142.96 140.896 146.766 137.85 149.959C136.7 151.152 134.393 151.943 132.723 151.749C131.31 151.608 129.109 150.567 127.802 149.606C127.196 149.162 126.643 148.245 126.121 146.853L126.044 146.645C125.117 144.073 125.743 141.356 127.844 139.65L127.942 139.572L127.964 139.541C127.983 139.519 128.003 139.497 128.027 139.477L128.066 139.448L128.108 139.421L128.198 139.375L128.213 139.359ZM133.676 149.727L132.726 150.743L132.83 150.752C133.805 150.823 134.758 150.671 135.625 150.302L135.673 150.281L135.606 150.277C135.007 150.234 134.374 150.051 133.716 149.746L133.676 149.727ZM130.903 147.818L130.814 147.736L130.72 147.828C130.352 148.186 129.977 148.554 129.594 148.934L129.161 149.364C129.283 149.454 129.411 149.541 129.544 149.626C130.145 150.018 130.794 150.315 131.466 150.508L131.61 150.548L132.305 149.816L132.825 149.266L132.791 149.246C132.138 148.844 131.495 148.352 130.903 147.818ZM135.436 147.843L134.304 149.055L134.361 149.08C135.242 149.45 136.026 149.52 136.701 149.247L136.772 149.217L136.703 149.14C136.363 148.759 135.996 148.381 135.595 147.995L135.436 147.843ZM128.611 145.285L128.41 145.483C128.12 145.765 127.828 146.045 127.533 146.322L127.07 146.756L127.109 146.849C127.423 147.572 127.86 148.202 128.43 148.753L128.45 148.772L128.515 148.707C128.927 148.288 129.354 147.864 129.798 147.43L130.143 147.093L130.049 146.999C129.533 146.473 129.091 145.959 128.719 145.439L128.611 145.285ZM137.287 145.863L136.051 147.186L136.063 147.198C136.537 147.651 136.971 148.095 137.373 148.543L137.496 148.681L137.499 148.677C137.921 148.103 137.849 147.17 137.342 145.989L137.287 145.863ZM132.961 145.684L132.87 145.77C132.447 146.167 132.018 146.574 131.581 146.994L131.458 147.113L131.573 147.214C132.177 147.742 132.756 148.186 133.335 148.544L133.444 148.61L134.221 147.786L134.755 147.217L134.578 147.06C134.258 146.777 133.912 146.481 133.476 146.115L132.961 145.684ZM139.566 143.425L137.856 145.255L137.911 145.362C138.006 145.548 138.098 145.736 138.189 145.927L138.323 146.217L138.449 146.495C138.577 146.765 138.665 147.034 138.712 147.298L138.719 147.343L138.77 147.251C139.462 145.982 139.746 144.676 139.572 143.463L139.566 143.425ZM135.804 143.405L135.716 143.289L135.404 143.55L134.535 144.269L134.379 144.4C134.219 144.535 134.076 144.658 133.943 144.776L133.789 144.914L133.63 145.061L133.989 145.36C134.388 145.696 134.737 145.994 135.062 146.281L135.372 146.557L136.366 145.492L136.839 144.983L136.835 144.977C136.538 144.452 136.185 143.917 135.804 143.405ZM130.509 143.512L130.434 143.439L130.411 143.464C130.12 143.769 129.827 144.071 129.531 144.37L129.236 144.667L129.297 144.761C129.657 145.3 130.101 145.825 130.62 146.335L130.751 146.462L130.775 146.485L130.815 146.446C131.115 146.16 131.422 145.869 131.74 145.571L132.252 145.091L132.181 145.032C131.605 144.542 131.049 144.036 130.509 143.512ZM127.347 141.571L127.319 141.618C126.615 142.801 126.398 144.272 126.725 145.673L126.754 145.793L126.769 145.85L126.916 145.712C127.225 145.422 127.531 145.128 127.835 144.833L128.144 144.529L128.115 144.475C127.608 143.533 127.343 142.576 127.347 141.593L127.347 141.571ZM132.937 140.685L132.57 141.107C132.153 141.581 131.731 142.05 131.303 142.514L131.051 142.785L131.113 142.846C131.612 143.328 132.129 143.798 132.668 144.259L132.919 144.472L133.159 144.251C133.313 144.111 133.477 143.968 133.664 143.809L133.969 143.553L134.688 142.961C134.817 142.854 134.933 142.758 135.041 142.667L135.146 142.578L135.095 142.518C134.849 142.232 134.617 141.986 134.424 141.806L134.367 141.754C133.976 141.401 133.548 141.078 133.071 140.77L132.937 140.685ZM138.123 140.634L138.084 140.701C137.688 141.374 137.141 142.003 136.398 142.688L136.336 142.745L136.358 142.776C136.683 143.232 136.991 143.709 137.282 144.208L137.388 144.391L138.22 143.493L139.272 142.351L139.248 142.291C139.006 141.716 138.646 141.177 138.168 140.68L138.123 140.634ZM128.279 141.145L128.275 141.184C128.189 142.09 128.367 142.982 128.783 143.859L128.794 143.881L128.904 143.77C129.15 143.522 129.393 143.271 129.636 143.019L129.82 142.825L129.745 142.749C129.319 142.31 128.901 141.856 128.488 141.386L128.279 141.145ZM128.692 140.142L128.629 140.173L128.645 140.193C129.208 140.864 129.781 141.5 130.375 142.11L130.436 142.172L130.683 141.906C131.118 141.435 131.546 140.959 131.969 140.477L132.175 140.241L132.153 140.229C132.048 140.172 131.941 140.115 131.831 140.058L131.664 139.973C130.685 139.492 129.961 139.545 128.791 140.095L128.692 140.142ZM134.818 138.427L134.457 138.875C134.213 139.174 133.967 139.472 133.719 139.768L133.545 139.974L133.59 140.002C134.246 140.425 134.805 140.884 135.265 141.393L135.369 141.512C135.471 141.63 135.571 141.75 135.67 141.871L135.784 142.013L135.799 141.999C136.531 141.316 137.048 140.695 137.403 140.027L137.413 140.006L137.319 139.932C136.37 139.186 135.675 138.743 134.94 138.471L134.818 138.427ZM133.366 138.171C132.437 138.164 131.59 138.33 130.809 138.671L130.764 138.691L130.842 138.701C131.013 138.727 131.181 138.77 131.346 138.832L131.429 138.865C131.871 139.06 132.279 139.255 132.66 139.458L132.788 139.527L133.038 139.232C133.293 138.929 133.545 138.624 133.795 138.317L133.884 138.205L133.776 138.193C133.685 138.184 133.594 138.177 133.503 138.174L133.366 138.171Z" fill="#FFB61D"/>
<path fill-rule="evenodd" clip-rule="evenodd" d="M149.169 74.5209C149.463 73.7252 150.521 73.3966 151.302 73.7282C152.083 74.0598 152.567 74.8889 152.69 75.7283C152.812 76.5676 152.626 77.4207 152.387 78.2346C152.169 78.9768 151.907 79.7057 151.6 80.4161C151.572 80.482 151.534 80.5559 151.464 80.5717C151.389 80.5885 151.32 80.5304 151.266 80.4759C149.94 79.1318 149.14 77.2808 149.07 75.3936C149.06 75.0991 149.067 74.7973 149.169 74.5209ZM151.462 74.715C151.245 74.5284 150.964 74.4062 150.677 74.4149C150.008 74.4352 149.541 75.165 149.556 75.8341C149.571 76.5033 149.927 77.1108 150.273 77.6838C150.521 78.0941 150.769 78.5045 151.017 78.9148C151.101 79.0547 151.267 79.2142 151.399 79.1173C151.452 79.0783 151.472 79.0099 151.49 78.9463C151.591 78.5735 151.693 78.2007 151.794 77.8279C151.939 77.2949 152.085 76.7533 152.076 76.201C152.067 75.6488 151.882 75.0745 151.462 74.715L151.462 74.715Z" fill="#FFB61D"/>
<path fill-rule="evenodd" clip-rule="evenodd" d="M151.025 76.8571C150.862 76.903 150.684 76.8943 150.526 76.8328C150.22 76.7135 150.009 76.3856 150.026 76.0576C150.044 75.7295 150.29 75.4263 150.607 75.3407C151.087 75.211 151.629 75.6538 151.597 76.1505C151.576 76.4729 151.336 76.7696 151.025 76.8571Z" fill="#FFB61D"/>
</svg>
